{"glyphs":{"0":{"ha":876,"x_min":56,"x_max":821,"o":"m 438 -14 q 282 27 352 -14 q 161 142 211 68 q 83 312 110 215 q 56 521 56 409 q 85 730 56 633 q 166 900 114 826 q 287 1015 217 974 q 438 1056 357 1056 q 589 1015 519 1056 q 711 900 659 974 q 792 730 763 826 q 821 521 821 633 q 794 312 821 409 q 716 142 767 215 q 595 27 665 68 q 438 -14 524 -14 m 438 20 q 543 61 504 20 q 603 172 583 101 q 631 333 624 242 q 638 521 638 423 q 630 709 638 619 q 599 870 621 799 q 539 981 578 940 q 438 1022 499 1022 q 340 981 378 1022 q 278 870 301 940 q 248 709 256 799 q 239 521 239 619 q 246 333 239 423 q 273 172 253 242 q 334 61 294 101 q 438 20 374 20 z "},"1":{"ha":626,"x_min":69,"x_max":558,"o":"m 249 10 l 249 1005 l 93 1005 l 93 1042 l 406 1042 l 406 10 l 249 10 m 69 0 l 69 37 l 558 37 l 558 0 l 69 0 z "},"2":{"ha":783,"x_min":56,"x_max":734,"o":"m 56 0 l 56 104 l 362 384 q 495 558 447 463 q 543 756 543 653 q 517 888 543 832 q 444 975 490 944 q 338 1006 398 1006 q 217 975 270 1006 q 135 885 164 944 q 109 747 106 827 l 75 747 q 90 783 75 766 q 127 810 104 799 q 176 820 151 820 q 221 809 200 820 q 256 778 242 798 q 270 731 270 758 q 257 678 270 700 q 221 643 244 656 q 172 631 199 631 q 122 645 144 631 q 87 685 100 659 q 74 747 74 711 q 106 905 69 835 q 214 1015 142 974 q 392 1056 287 1056 q 563 1019 492 1056 q 669 923 633 983 q 706 792 706 863 q 692 695 706 738 q 656 617 678 652 q 603 551 633 581 q 543 494 574 521 l 167 149 l 698 149 l 698 253 l 734 253 l 734 0 l 56 0 z "},"3":{"ha":742,"x_min":35,"x_max":688,"o":"m 331 -14 q 164 17 230 -14 q 67 96 99 48 q 35 196 35 144 q 61 268 35 242 q 128 294 88 294 q 188 272 163 294 q 212 208 212 249 q 199 165 212 183 q 167 135 187 146 q 124 125 147 125 q 81 134 101 125 q 49 160 61 144 q 36 196 36 176 l 72 196 q 101 110 72 149 q 180 48 129 72 q 299 24 231 24 q 428 58 378 24 q 500 151 477 93 q 524 280 524 209 q 514 366 524 320 q 476 453 504 413 q 397 519 449 494 q 260 545 344 545 l 260 568 q 468 544 385 568 q 599 480 551 521 q 667 388 647 440 q 688 278 688 335 q 660 156 688 210 q 583 64 632 102 q 469 6 533 26 q 331 -14 404 -14 m 260 558 l 260 581 q 384 604 339 581 q 450 664 429 627 q 477 742 472 701 q 482 820 482 783 q 472 898 482 862 q 440 960 461 933 q 389 1002 419 987 q 318 1017 358 1017 q 245 1006 281 1017 q 179 974 209 994 q 131 925 149 953 q 113 860 113 896 l 77 860 q 91 900 77 883 q 126 925 105 917 q 166 934 147 934 q 209 924 190 934 q 242 896 229 915 q 254 851 254 877 q 240 801 254 820 q 206 773 226 782 q 166 764 186 764 q 122 775 143 764 q 89 807 101 786 q 76 860 76 828 q 97 934 76 899 q 157 996 119 969 q 243 1039 195 1023 q 344 1054 292 1054 q 457 1039 403 1054 q 553 995 510 1024 q 621 922 596 966 q 646 821 646 878 q 630 722 646 769 q 573 638 615 674 q 456 580 532 601 q 260 558 380 558 z "},"4":{"ha":843,"x_min":44,"x_max":830,"o":"m 390 0 l 390 37 l 522 37 l 522 928 l 113 317 l 830 317 l 830 281 l 44 281 l 553 1042 l 677 1042 l 677 37 l 781 37 l 781 0 l 390 0 z "},"5":{"ha":708,"x_min":35,"x_max":666,"o":"m 300 -14 q 166 14 226 -14 q 70 86 106 41 q 35 183 35 131 q 61 256 35 231 q 125 281 87 281 q 186 259 157 281 q 215 192 215 238 q 203 144 215 164 q 169 114 190 125 q 125 103 149 103 q 93 110 109 103 q 65 128 77 117 q 44 153 52 139 q 36 183 36 168 l 72 183 q 89 125 72 153 q 134 73 105 96 q 202 36 163 50 q 286 23 240 23 q 392 49 351 23 q 456 119 433 76 q 488 214 479 163 q 497 317 497 266 q 475 463 497 399 q 410 562 453 526 q 308 597 367 597 q 223 584 258 597 q 167 553 188 572 q 135 516 146 534 l 101 516 q 143 572 112 542 q 226 624 174 602 q 352 647 278 647 q 516 607 445 647 q 626 494 587 568 q 666 317 666 421 q 639 189 666 249 q 563 84 613 129 q 447 12 514 38 q 300 -14 381 -14 m 89 516 l 89 1042 l 581 1042 l 581 1117 l 618 1117 l 618 893 l 126 893 l 126 516 l 89 516 z "},"6":{"ha":797,"x_min":69,"x_max":756,"o":"m 418 -14 q 233 36 311 -14 q 112 186 155 87 q 69 431 69 285 q 114 670 69 557 q 239 869 159 783 q 424 1006 319 956 q 651 1056 529 1056 l 651 1022 q 484 977 560 1022 q 353 857 408 933 q 268 688 298 782 q 238 497 238 594 l 233 390 q 243 251 233 317 q 276 133 253 185 q 334 52 298 82 q 422 23 369 23 q 508 50 475 23 q 559 123 541 76 q 584 227 577 169 q 591 347 591 285 q 570 507 591 444 q 508 602 549 571 q 411 633 468 633 q 315 605 354 633 q 254 523 275 577 q 233 390 233 469 l 203 390 q 227 538 203 472 q 304 643 251 604 q 446 681 357 681 q 555 662 500 681 q 655 603 609 643 q 728 499 701 563 q 756 347 756 436 q 716 161 756 243 q 600 33 676 80 q 418 -14 525 -14 z "},"7":{"ha":714,"x_min":56,"x_max":701,"o":"m 329 -14 q 255 13 284 -14 q 226 111 226 40 q 239 199 226 152 q 276 297 253 246 q 329 402 300 348 q 389 513 358 456 q 448 626 415 562 q 514 758 480 690 q 577 887 548 826 l 92 887 l 92 782 l 56 782 l 56 1042 l 701 1042 q 684 1006 701 1042 q 636 911 666 969 q 572 782 607 852 q 501 641 536 711 q 435 515 465 571 q 385 411 403 451 q 360 343 367 372 q 353 286 353 315 q 364 225 353 249 q 391 180 376 200 q 418 140 406 160 q 429 90 429 119 q 404 17 429 48 q 329 -14 379 -14 z "},"8":{"ha":783,"x_min":56,"x_max":728,"o":"m 392 -14 q 138 63 220 -14 q 56 264 56 139 q 120 447 56 375 q 320 535 185 519 q 144 614 204 550 q 83 778 83 678 q 118 917 83 854 q 222 1018 153 981 q 392 1056 291 1056 q 561 1018 492 1056 q 665 917 631 981 q 700 778 700 854 q 640 614 700 678 q 463 535 580 550 q 663 447 599 519 q 728 264 728 375 q 646 63 728 139 q 392 -14 564 -14 m 392 23 q 494 55 456 23 q 549 142 532 87 q 565 264 565 197 q 549 388 565 331 q 494 480 532 445 q 392 515 456 515 q 290 480 328 515 q 234 388 251 445 q 217 264 217 331 q 234 142 217 197 q 290 55 251 87 q 392 23 328 23 m 392 555 q 480 584 448 555 q 524 664 511 614 q 538 778 538 715 q 530 867 538 824 q 507 945 523 910 q 462 999 490 979 q 392 1019 434 1019 q 321 999 349 1019 q 276 945 293 979 q 253 867 260 910 q 246 778 246 824 q 259 664 246 715 q 304 584 272 614 q 392 555 335 555 z "},"9":{"ha":797,"x_min":41,"x_max":728,"o":"m 146 -14 l 146 20 q 313 65 238 20 q 444 184 389 109 q 530 353 499 260 q 560 545 560 447 l 564 652 q 554 791 564 725 q 522 908 544 857 q 464 989 499 960 q 375 1019 428 1019 q 289 992 322 1019 q 238 919 256 965 q 213 815 220 873 q 206 694 206 757 q 227 534 206 598 q 289 440 249 471 q 386 409 329 409 q 483 437 443 409 q 543 519 522 465 q 564 652 564 573 l 594 652 q 570 503 594 569 q 493 399 547 438 q 351 360 440 360 q 243 380 297 360 q 142 439 188 399 q 69 543 97 479 q 41 694 41 606 q 81 880 41 799 q 197 1009 122 962 q 379 1056 272 1056 q 564 1005 486 1056 q 685 856 642 955 q 728 611 728 757 q 683 372 728 485 q 558 172 638 259 q 373 36 478 85 q 146 -14 268 -14 z "},"A":{"ha":1099,"x_min":46,"x_max":1054,"o":"m 301 320 l 301 357 l 751 357 l 751 320 l 301 320 m 587 1062 l 942 37 l 1054 37 l 1054 0 l 629 0 l 629 37 l 763 37 l 498 856 l 212 37 l 351 37 l 351 0 l 46 0 l 46 37 l 170 37 l 532 1062 l 587 1062 z "},"Á":{"ha":1099,"x_min":46,"x_max":1054,"o":"m 301 320 l 301 357 l 751 357 l 751 320 l 301 320 m 587 1062 l 942 37 l 1054 37 l 1054 0 l 629 0 l 629 37 l 763 37 l 498 856 l 212 37 l 351 37 l 351 0 l 46 0 l 46 37 l 170 37 l 532 1062 l 587 1062 m 515 1163 l 493 1188 l 631 1340 q 666 1363 647 1360 q 702 1359 685 1367 q 727 1338 719 1352 q 735 1307 736 1324 q 724 1274 733 1289 q 697 1252 714 1259 l 515 1163 z "},"Ă":{"ha":1099,"x_min":46,"x_max":1054,"o":"m 301 320 l 301 357 l 751 357 l 751 320 l 301 320 m 587 1062 l 942 37 l 1054 37 l 1054 0 l 629 0 l 629 37 l 763 37 l 498 856 l 212 37 l 351 37 l 351 0 l 46 0 l 46 37 l 170 37 l 532 1062 l 587 1062 m 559 1167 q 464 1194 498 1167 q 417 1265 430 1221 q 403 1358 403 1308 l 426 1358 q 443 1302 426 1324 q 492 1269 461 1280 q 559 1258 522 1258 q 627 1269 597 1258 q 676 1302 658 1280 q 694 1358 694 1324 l 717 1358 q 703 1265 717 1308 q 655 1194 690 1221 q 559 1167 621 1167 z "},"Â":{"ha":1099,"x_min":46,"x_max":1054,"o":"m 301 320 l 301 357 l 751 357 l 751 320 l 301 320 m 587 1062 l 942 37 l 1054 37 l 1054 0 l 629 0 l 629 37 l 763 37 l 498 856 l 212 37 l 351 37 l 351 0 l 46 0 l 46 37 l 170 37 l 532 1062 l 587 1062 m 373 1174 l 355 1193 l 511 1356 l 610 1356 l 766 1193 l 747 1174 l 560 1283 l 373 1174 z "},"Ä":{"ha":1099,"x_min":46,"x_max":1054,"o":"m 301 320 l 301 357 l 751 357 l 751 320 l 301 320 m 587 1062 l 942 37 l 1054 37 l 1054 0 l 629 0 l 629 37 l 763 37 l 498 856 l 212 37 l 351 37 l 351 0 l 46 0 l 46 37 l 170 37 l 532 1062 l 587 1062 m 676 1173 q 625 1193 646 1173 q 605 1243 605 1214 q 625 1293 605 1272 q 676 1314 646 1314 q 725 1293 705 1314 q 746 1243 746 1272 q 725 1193 746 1214 q 676 1173 705 1173 m 442 1173 q 393 1193 413 1173 q 372 1243 372 1214 q 393 1293 372 1272 q 443 1314 413 1314 q 493 1293 472 1314 q 513 1243 513 1272 q 493 1193 513 1214 q 442 1173 472 1173 z "},"À":{"ha":1099,"x_min":46,"x_max":1054,"o":"m 301 320 l 301 357 l 751 357 l 751 320 l 301 320 m 587 1062 l 942 37 l 1054 37 l 1054 0 l 629 0 l 629 37 l 763 37 l 498 856 l 212 37 l 351 37 l 351 0 l 46 0 l 46 37 l 170 37 l 532 1062 l 587 1062 m 603 1163 l 422 1252 q 394 1274 404 1259 q 384 1307 385 1289 q 391 1338 383 1324 q 416 1359 399 1352 q 452 1363 433 1367 q 488 1340 472 1360 l 625 1188 l 603 1163 z "},"Ā":{"ha":1099,"x_min":46,"x_max":1054,"o":"m 301 320 l 301 357 l 751 357 l 751 320 l 301 320 m 587 1062 l 942 37 l 1054 37 l 1054 0 l 629 0 l 629 37 l 763 37 l 498 856 l 212 37 l 351 37 l 351 0 l 46 0 l 46 37 l 170 37 l 532 1062 l 587 1062 m 393 1181 l 393 1217 l 726 1217 l 726 1181 l 393 1181 z "},"Ą":{"ha":1099,"x_min":46,"x_max":1054,"o":"m 301 320 l 301 357 l 751 357 l 751 320 l 301 320 m 587 1062 l 942 37 l 1054 37 l 1054 0 l 629 0 l 629 37 l 763 37 l 498 856 l 212 37 l 351 37 l 351 0 l 46 0 l 46 37 l 170 37 l 532 1062 l 587 1062 m 842 -297 q 768 -284 803 -297 q 709 -245 732 -272 q 686 -177 686 -219 q 705 -102 686 -135 q 755 -44 724 -69 q 823 -2 786 -19 q 894 27 859 16 l 904 6 q 868 -26 885 -4 q 841 -78 851 -48 q 831 -144 831 -108 q 848 -214 831 -187 q 898 -240 865 -240 q 948 -222 928 -240 q 981 -180 967 -204 l 1005 -196 q 976 -239 994 -215 q 926 -280 958 -262 q 842 -297 894 -297 z "},"Å":{"ha":1099,"x_min":46,"x_max":1054,"o":"m 301 320 l 301 357 l 751 357 l 751 320 l 301 320 m 587 1062 l 942 37 l 1054 37 l 1054 0 l 629 0 l 629 37 l 763 37 l 498 856 l 212 37 l 351 37 l 351 0 l 46 0 l 46 37 l 170 37 l 532 1062 l 587 1062 m 560 1167 q 468 1202 504 1167 q 431 1291 431 1238 q 468 1381 431 1344 q 560 1417 504 1417 q 652 1381 616 1417 q 689 1291 689 1344 q 652 1202 689 1238 q 560 1167 616 1167 m 560 1204 q 596 1215 581 1204 q 619 1245 611 1226 q 627 1291 627 1265 q 619 1338 627 1318 q 596 1369 611 1358 q 560 1380 581 1380 q 523 1369 538 1380 q 501 1338 508 1358 q 493 1291 493 1318 q 501 1245 493 1265 q 523 1215 508 1226 q 560 1204 538 1204 z "},"Ã":{"ha":1099,"x_min":46,"x_max":1054,"o":"m 301 320 l 301 357 l 751 357 l 751 320 l 301 320 m 587 1062 l 942 37 l 1054 37 l 1054 0 l 629 0 l 629 37 l 763 37 l 498 856 l 212 37 l 351 37 l 351 0 l 46 0 l 46 37 l 170 37 l 532 1062 l 587 1062 m 669 1163 q 597 1179 627 1163 q 541 1217 566 1196 q 492 1256 517 1239 q 437 1272 467 1272 q 380 1251 403 1272 q 357 1181 357 1231 l 319 1181 q 341 1281 319 1240 q 396 1343 363 1322 q 467 1365 430 1365 q 540 1348 510 1365 q 593 1310 570 1331 q 637 1272 615 1288 q 685 1255 658 1255 q 744 1276 722 1255 q 766 1347 766 1297 l 803 1347 q 788 1241 803 1281 q 743 1181 772 1200 q 669 1163 713 1163 z "},"Æ":{"ha":1422,"x_min":20,"x_max":1381,"o":"m 126 0 l 727 1042 l 763 1042 l 167 0 l 126 0 m 20 0 l 20 37 l 327 37 l 327 0 l 20 0 m 339 322 l 341 358 l 743 358 l 743 322 l 339 322 m 604 0 l 604 37 l 1088 37 q 1237 69 1182 37 q 1317 163 1292 101 q 1344 313 1342 224 l 1381 313 l 1381 0 l 604 0 m 729 0 l 729 1042 l 885 1042 l 885 0 l 729 0 m 1100 381 q 1078 458 1097 427 q 1028 505 1060 490 q 958 520 997 520 l 875 520 l 875 557 l 958 557 q 1028 571 997 557 q 1078 614 1060 585 q 1100 690 1097 644 l 1137 690 l 1137 381 l 1100 381 m 1331 757 q 1304 887 1328 831 q 1231 974 1281 943 q 1101 1005 1181 1005 l 729 1005 l 729 1042 l 1367 1042 l 1367 757 l 1331 757 z "},"B":{"ha":944,"x_min":46,"x_max":865,"o":"m 46 0 l 46 37 l 474 37 q 582 66 533 37 q 659 152 631 95 q 688 292 688 209 q 659 424 688 374 q 582 495 631 473 q 474 517 533 517 l 311 517 l 311 540 l 497 540 q 681 515 597 540 q 815 435 765 490 q 865 288 865 380 q 766 66 865 133 q 497 0 668 0 l 46 0 m 171 15 l 171 1027 l 326 1027 l 326 15 l 171 15 m 311 529 l 311 553 l 460 553 q 558 573 512 553 q 633 640 604 593 q 661 770 661 688 q 633 905 661 853 q 558 981 604 956 q 460 1005 512 1005 l 46 1005 l 46 1042 l 468 1042 q 726 981 630 1042 q 823 785 823 920 q 732 590 823 651 q 468 529 640 529 l 311 529 z "},"C":{"ha":1019,"x_min":81,"x_max":921,"o":"m 560 -14 q 307 55 415 -14 q 140 245 199 124 q 81 521 81 366 q 140 797 81 676 q 307 986 199 917 q 560 1056 415 1056 q 688 1032 627 1056 q 796 968 749 1009 l 874 1042 l 906 1042 l 906 751 l 869 751 q 816 891 858 833 q 710 981 773 949 q 574 1013 647 1013 q 427 972 487 1013 q 331 861 367 931 q 279 703 295 792 q 263 521 263 615 q 279 338 263 426 q 331 180 295 250 q 427 70 367 110 q 574 29 487 29 q 694 49 641 29 q 788 104 748 69 q 851 188 827 140 q 883 291 875 235 l 921 291 l 921 0 l 888 0 l 816 78 q 703 11 769 35 q 560 -14 637 -14 z "},"Ć":{"ha":1019,"x_min":81,"x_max":921,"o":"m 560 -14 q 307 55 415 -14 q 140 245 199 124 q 81 521 81 366 q 140 797 81 676 q 307 986 199 917 q 560 1056 415 1056 q 688 1032 627 1056 q 796 968 749 1009 l 874 1042 l 906 1042 l 906 751 l 869 751 q 816 891 858 833 q 710 981 773 949 q 574 1013 647 1013 q 427 972 487 1013 q 331 861 367 931 q 279 703 295 792 q 263 521 263 615 q 279 338 263 426 q 331 180 295 250 q 427 70 367 110 q 574 29 487 29 q 694 49 641 29 q 788 104 748 69 q 851 188 827 140 q 883 291 875 235 l 921 291 l 921 0 l 888 0 l 816 78 q 703 11 769 35 q 560 -14 637 -14 m 516 1163 l 494 1188 l 631 1340 q 667 1363 647 1360 q 703 1359 686 1367 q 728 1338 719 1352 q 735 1307 737 1324 q 724 1274 734 1289 q 697 1252 715 1259 l 516 1163 z "},"Č":{"ha":1019,"x_min":81,"x_max":921,"o":"m 560 -14 q 307 55 415 -14 q 140 245 199 124 q 81 521 81 366 q 140 797 81 676 q 307 986 199 917 q 560 1056 415 1056 q 688 1032 627 1056 q 796 968 749 1009 l 874 1042 l 906 1042 l 906 751 l 869 751 q 816 891 858 833 q 710 981 773 949 q 574 1013 647 1013 q 427 972 487 1013 q 331 861 367 931 q 279 703 295 792 q 263 521 263 615 q 279 338 263 426 q 331 180 295 250 q 427 70 367 110 q 574 29 487 29 q 694 49 641 29 q 788 104 748 69 q 851 188 827 140 q 883 291 875 235 l 921 291 l 921 0 l 888 0 l 816 78 q 703 11 769 35 q 560 -14 637 -14 m 512 1181 l 356 1344 l 374 1362 l 560 1253 l 748 1362 l 767 1344 l 610 1181 l 512 1181 z "},"Ç":{"ha":1019,"x_min":81,"x_max":921,"o":"m 560 -14 q 307 55 415 -14 q 140 245 199 124 q 81 521 81 366 q 140 797 81 676 q 307 986 199 917 q 560 1056 415 1056 q 688 1032 627 1056 q 796 968 749 1009 l 874 1042 l 906 1042 l 906 751 l 869 751 q 816 891 858 833 q 710 981 773 949 q 574 1013 647 1013 q 427 972 487 1013 q 331 861 367 931 q 279 703 295 792 q 263 521 263 615 q 279 338 263 426 q 331 180 295 250 q 427 70 367 110 q 574 29 487 29 q 694 49 641 29 q 788 104 748 69 q 851 188 827 140 q 883 291 875 235 l 921 291 l 921 0 l 888 0 l 816 78 q 703 11 769 35 q 560 -14 637 -14 m 447 -350 l 447 -314 q 543 -293 508 -314 q 578 -240 578 -273 q 559 -191 578 -208 q 506 -168 540 -174 q 430 -161 472 -161 l 552 3 l 598 3 l 516 -106 q 610 -119 570 -108 q 671 -155 649 -131 q 693 -218 693 -179 q 669 -283 693 -253 q 590 -332 644 -313 q 447 -350 536 -350 z "},"Ĉ":{"ha":1019,"x_min":81,"x_max":921,"o":"m 560 -14 q 307 55 415 -14 q 140 245 199 124 q 81 521 81 366 q 140 797 81 676 q 307 986 199 917 q 560 1056 415 1056 q 688 1032 627 1056 q 796 968 749 1009 l 874 1042 l 906 1042 l 906 751 l 869 751 q 816 891 858 833 q 710 981 773 949 q 574 1013 647 1013 q 427 972 487 1013 q 331 861 367 931 q 279 703 295 792 q 263 521 263 615 q 279 338 263 426 q 331 180 295 250 q 427 70 367 110 q 574 29 487 29 q 694 49 641 29 q 788 104 748 69 q 851 188 827 140 q 883 291 875 235 l 921 291 l 921 0 l 888 0 l 816 78 q 703 11 769 35 q 560 -14 637 -14 m 374 1174 l 356 1193 l 512 1356 l 610 1356 l 767 1193 l 748 1174 l 560 1283 l 374 1174 z "},"Ċ":{"ha":1019,"x_min":81,"x_max":921,"o":"m 560 -14 q 307 55 415 -14 q 140 245 199 124 q 81 521 81 366 q 140 797 81 676 q 307 986 199 917 q 560 1056 415 1056 q 688 1032 627 1056 q 796 968 749 1009 l 874 1042 l 906 1042 l 906 751 l 869 751 q 816 891 858 833 q 710 981 773 949 q 574 1013 647 1013 q 427 972 487 1013 q 331 861 367 931 q 279 703 295 792 q 263 521 263 615 q 279 338 263 426 q 331 180 295 250 q 427 70 367 110 q 574 29 487 29 q 694 49 641 29 q 788 104 748 69 q 851 188 827 140 q 883 291 875 235 l 921 291 l 921 0 l 888 0 l 816 78 q 703 11 769 35 q 560 -14 637 -14 m 561 1267 q 495 1295 522 1267 q 468 1361 468 1322 q 495 1427 468 1400 q 561 1454 522 1454 q 627 1427 600 1454 q 654 1361 654 1400 q 627 1295 654 1322 q 561 1267 600 1267 z "},"D":{"ha":1038,"x_min":46,"x_max":958,"o":"m 450 1042 q 721 974 608 1042 q 896 789 835 906 q 958 521 958 671 q 921 313 958 408 q 817 148 885 218 q 657 39 750 78 q 450 0 563 0 l 46 0 l 46 37 l 171 37 l 171 1005 l 46 1005 l 46 1042 l 450 1042 m 326 37 l 450 37 q 604 75 542 37 q 704 182 667 114 q 758 337 742 249 q 775 521 775 424 q 757 705 775 617 q 699 860 738 792 q 598 966 660 928 q 450 1005 536 1005 l 326 1005 l 326 37 z "},"Ð":{"ha":1038,"x_min":46,"x_max":958,"o":"m 55 503 l 55 539 l 514 539 l 514 503 l 55 503 m 450 1042 q 721 974 608 1042 q 896 789 835 906 q 958 521 958 671 q 921 313 958 408 q 817 148 885 218 q 657 39 750 78 q 450 0 563 0 l 46 0 l 46 37 l 171 37 l 171 1005 l 46 1005 l 46 1042 l 450 1042 m 326 37 l 450 37 q 604 75 542 37 q 704 182 667 114 q 758 337 742 249 q 775 521 775 424 q 757 705 775 617 q 699 860 738 792 q 598 966 660 928 q 450 1005 536 1005 l 326 1005 l 326 37 z "},"Ď":{"ha":1038,"x_min":46,"x_max":958,"o":"m 450 1042 q 721 974 608 1042 q 896 789 835 906 q 958 521 958 671 q 921 313 958 408 q 817 148 885 218 q 657 39 750 78 q 450 0 563 0 l 46 0 l 46 37 l 171 37 l 171 1005 l 46 1005 l 46 1042 l 450 1042 m 326 37 l 450 37 q 604 75 542 37 q 704 182 667 114 q 758 337 742 249 q 775 521 775 424 q 757 705 775 617 q 699 860 738 792 q 598 966 660 928 q 450 1005 536 1005 l 326 1005 l 326 37 m 394 1181 l 238 1344 l 256 1362 l 442 1253 l 630 1362 l 649 1344 l 492 1181 l 394 1181 z "},"Đ":{"ha":1038,"x_min":46,"x_max":958,"o":"m 55 503 l 55 539 l 514 539 l 514 503 l 55 503 m 450 1042 q 721 974 608 1042 q 896 789 835 906 q 958 521 958 671 q 921 313 958 408 q 817 148 885 218 q 657 39 750 78 q 450 0 563 0 l 46 0 l 46 37 l 171 37 l 171 1005 l 46 1005 l 46 1042 l 450 1042 m 326 37 l 450 37 q 604 75 542 37 q 704 182 667 114 q 758 337 742 249 q 775 521 775 424 q 757 705 775 617 q 699 860 738 792 q 598 966 660 928 q 450 1005 536 1005 l 326 1005 l 326 37 z "},"E":{"ha":885,"x_min":46,"x_max":820,"o":"m 46 0 l 46 37 l 171 37 l 171 1005 l 46 1005 l 46 1042 l 806 1042 l 806 757 l 770 757 q 743 887 767 831 q 670 974 719 943 q 539 1005 620 1005 l 326 1005 l 326 37 l 524 37 q 675 69 619 37 q 756 163 731 101 q 784 313 781 224 l 820 313 l 820 0 l 46 0 m 540 381 q 518 458 537 427 q 468 505 499 490 q 397 520 437 520 l 301 520 l 301 557 l 397 557 q 468 571 437 557 q 518 614 499 585 q 540 690 537 644 l 576 690 l 576 381 l 540 381 z "},"É":{"ha":885,"x_min":46,"x_max":820,"o":"m 46 0 l 46 37 l 171 37 l 171 1005 l 46 1005 l 46 1042 l 806 1042 l 806 757 l 770 757 q 743 887 767 831 q 670 974 719 943 q 539 1005 620 1005 l 326 1005 l 326 37 l 524 37 q 675 69 619 37 q 756 163 731 101 q 784 313 781 224 l 820 313 l 820 0 l 46 0 m 540 381 q 518 458 537 427 q 468 505 499 490 q 397 520 437 520 l 301 520 l 301 557 l 397 557 q 468 571 437 557 q 518 614 499 585 q 540 690 537 644 l 576 690 l 576 381 l 540 381 m 418 1163 l 396 1188 l 533 1340 q 569 1363 549 1360 q 605 1359 588 1367 q 630 1338 622 1352 q 638 1307 639 1324 q 626 1274 636 1289 q 599 1252 617 1259 l 418 1163 z "},"Ĕ":{"ha":885,"x_min":46,"x_max":820,"o":"m 46 0 l 46 37 l 171 37 l 171 1005 l 46 1005 l 46 1042 l 806 1042 l 806 757 l 770 757 q 743 887 767 831 q 670 974 719 943 q 539 1005 620 1005 l 326 1005 l 326 37 l 524 37 q 675 69 619 37 q 756 163 731 101 q 784 313 781 224 l 820 313 l 820 0 l 46 0 m 540 381 q 518 458 537 427 q 468 505 499 490 q 397 520 437 520 l 301 520 l 301 557 l 397 557 q 468 571 437 557 q 518 614 499 585 q 540 690 537 644 l 576 690 l 576 381 l 540 381 m 462 1167 q 367 1194 401 1167 q 319 1265 333 1221 q 306 1358 306 1308 l 328 1358 q 346 1302 328 1324 q 394 1269 364 1280 q 462 1258 425 1258 q 530 1269 499 1258 q 578 1302 560 1280 q 597 1358 597 1324 l 619 1358 q 606 1265 619 1308 q 558 1194 592 1221 q 462 1167 524 1167 z "},"Ě":{"ha":885,"x_min":46,"x_max":820,"o":"m 46 0 l 46 37 l 171 37 l 171 1005 l 46 1005 l 46 1042 l 806 1042 l 806 757 l 770 757 q 743 887 767 831 q 670 974 719 943 q 539 1005 620 1005 l 326 1005 l 326 37 l 524 37 q 675 69 619 37 q 756 163 731 101 q 784 313 781 224 l 820 313 l 820 0 l 46 0 m 540 381 q 518 458 537 427 q 468 505 499 490 q 397 520 437 520 l 301 520 l 301 557 l 397 557 q 468 571 437 557 q 518 614 499 585 q 540 690 537 644 l 576 690 l 576 381 l 540 381 m 414 1181 l 258 1344 l 276 1362 l 463 1253 l 650 1362 l 669 1344 l 513 1181 l 414 1181 z "},"Ê":{"ha":885,"x_min":46,"x_max":820,"o":"m 46 0 l 46 37 l 171 37 l 171 1005 l 46 1005 l 46 1042 l 806 1042 l 806 757 l 770 757 q 743 887 767 831 q 670 974 719 943 q 539 1005 620 1005 l 326 1005 l 326 37 l 524 37 q 675 69 619 37 q 756 163 731 101 q 784 313 781 224 l 820 313 l 820 0 l 46 0 m 540 381 q 518 458 537 427 q 468 505 499 490 q 397 520 437 520 l 301 520 l 301 557 l 397 557 q 468 571 437 557 q 518 614 499 585 q 540 690 537 644 l 576 690 l 576 381 l 540 381 m 276 1174 l 258 1193 l 414 1356 l 513 1356 l 669 1193 l 650 1174 l 463 1283 l 276 1174 z "},"Ë":{"ha":885,"x_min":46,"x_max":820,"o":"m 46 0 l 46 37 l 171 37 l 171 1005 l 46 1005 l 46 1042 l 806 1042 l 806 757 l 770 757 q 743 887 767 831 q 670 974 719 943 q 539 1005 620 1005 l 326 1005 l 326 37 l 524 37 q 675 69 619 37 q 756 163 731 101 q 784 313 781 224 l 820 313 l 820 0 l 46 0 m 540 381 q 518 458 537 427 q 468 505 499 490 q 397 520 437 520 l 301 520 l 301 557 l 397 557 q 468 571 437 557 q 518 614 499 585 q 540 690 537 644 l 576 690 l 576 381 l 540 381 m 578 1173 q 528 1193 549 1173 q 508 1243 508 1214 q 528 1293 508 1272 q 578 1314 549 1314 q 628 1293 608 1314 q 649 1243 649 1272 q 628 1193 649 1214 q 578 1173 608 1173 m 345 1173 q 295 1193 316 1173 q 275 1243 275 1214 q 295 1293 275 1272 q 346 1314 316 1314 q 395 1293 375 1314 q 416 1243 416 1272 q 395 1193 416 1214 q 345 1173 375 1173 z "},"Ė":{"ha":885,"x_min":46,"x_max":820,"o":"m 46 0 l 46 37 l 171 37 l 171 1005 l 46 1005 l 46 1042 l 806 1042 l 806 757 l 770 757 q 743 887 767 831 q 670 974 719 943 q 539 1005 620 1005 l 326 1005 l 326 37 l 524 37 q 675 69 619 37 q 756 163 731 101 q 784 313 781 224 l 820 313 l 820 0 l 46 0 m 540 381 q 518 458 537 427 q 468 505 499 490 q 397 520 437 520 l 301 520 l 301 557 l 397 557 q 468 571 437 557 q 518 614 499 585 q 540 690 537 644 l 576 690 l 576 381 l 540 381 m 463 1267 q 397 1295 424 1267 q 370 1361 370 1322 q 397 1427 370 1400 q 463 1454 424 1454 q 529 1427 502 1454 q 556 1361 556 1400 q 529 1295 556 1322 q 463 1267 502 1267 z "},"È":{"ha":885,"x_min":46,"x_max":820,"o":"m 46 0 l 46 37 l 171 37 l 171 1005 l 46 1005 l 46 1042 l 806 1042 l 806 757 l 770 757 q 743 887 767 831 q 670 974 719 943 q 539 1005 620 1005 l 326 1005 l 326 37 l 524 37 q 675 69 619 37 q 756 163 731 101 q 784 313 781 224 l 820 313 l 820 0 l 46 0 m 540 381 q 518 458 537 427 q 468 505 499 490 q 397 520 437 520 l 301 520 l 301 557 l 397 557 q 468 571 437 557 q 518 614 499 585 q 540 690 537 644 l 576 690 l 576 381 l 540 381 m 506 1163 l 324 1252 q 297 1274 307 1259 q 286 1307 288 1289 q 294 1338 285 1324 q 319 1359 302 1352 q 355 1363 335 1367 q 390 1340 374 1360 l 528 1188 l 506 1163 z "},"Ē":{"ha":885,"x_min":46,"x_max":820,"o":"m 46 0 l 46 37 l 171 37 l 171 1005 l 46 1005 l 46 1042 l 806 1042 l 806 757 l 770 757 q 743 887 767 831 q 670 974 719 943 q 539 1005 620 1005 l 326 1005 l 326 37 l 524 37 q 675 69 619 37 q 756 163 731 101 q 784 313 781 224 l 820 313 l 820 0 l 46 0 m 540 381 q 518 458 537 427 q 468 505 499 490 q 397 520 437 520 l 301 520 l 301 557 l 397 557 q 468 571 437 557 q 518 614 499 585 q 540 690 537 644 l 576 690 l 576 381 l 540 381 m 296 1181 l 296 1217 l 629 1217 l 629 1181 l 296 1181 z "},"Ę":{"ha":885,"x_min":46,"x_max":820,"o":"m 46 0 l 46 37 l 171 37 l 171 1005 l 46 1005 l 46 1042 l 806 1042 l 806 757 l 770 757 q 743 887 767 831 q 670 974 719 943 q 539 1005 620 1005 l 326 1005 l 326 37 l 524 37 q 675 69 619 37 q 756 163 731 101 q 784 313 781 224 l 820 313 l 820 0 l 46 0 m 540 381 q 518 458 537 427 q 468 505 499 490 q 397 520 437 520 l 301 520 l 301 557 l 397 557 q 468 571 437 557 q 518 614 499 585 q 540 690 537 644 l 576 690 l 576 381 l 540 381 m 648 -297 q 574 -284 610 -297 q 515 -245 538 -272 q 492 -177 492 -219 q 511 -102 492 -135 q 561 -44 531 -69 q 629 -2 592 -19 q 700 27 665 16 l 710 6 q 674 -26 691 -4 q 647 -78 658 -48 q 637 -144 637 -108 q 654 -214 637 -187 q 704 -240 671 -240 q 754 -222 735 -240 q 787 -180 774 -204 l 811 -196 q 783 -239 801 -215 q 733 -280 765 -262 q 648 -297 701 -297 z "},"F":{"ha":856,"x_min":46,"x_max":790,"o":"m 549 365 q 528 441 547 411 q 474 485 510 471 q 379 500 438 500 l 288 500 l 288 536 l 379 536 q 474 549 438 536 q 528 590 510 562 q 549 664 547 617 l 586 664 l 586 365 l 549 365 m 790 1042 l 790 757 l 754 757 q 728 887 751 831 q 657 974 706 943 q 528 1005 608 1005 l 326 1005 l 326 37 l 465 37 l 465 0 l 46 0 l 46 37 l 171 37 l 171 1005 l 46 1005 l 46 1042 l 790 1042 z "},"G":{"ha":1051,"x_min":81,"x_max":1015,"o":"m 619 416 l 1015 416 l 1015 376 l 935 376 l 935 225 q 881 151 913 192 q 803 72 849 110 q 692 10 756 35 q 543 -14 628 -14 q 292 55 396 -14 q 135 244 189 123 q 81 521 81 365 q 116 736 81 638 q 216 906 151 834 q 370 1016 281 977 q 564 1056 458 1056 q 691 1033 629 1056 q 800 970 752 1010 l 882 1042 l 915 1042 l 915 751 l 877 751 q 845 858 871 810 q 780 940 820 906 q 688 994 739 975 q 579 1013 636 1013 q 432 972 492 1013 q 334 861 372 931 q 280 703 297 791 q 263 521 263 615 q 275 337 263 426 q 318 177 288 248 q 404 65 349 106 q 543 23 459 23 q 642 41 602 23 q 707 84 682 58 q 746 134 733 109 q 766 174 760 160 l 766 376 l 619 376 l 619 416 z "},"Ğ":{"ha":1051,"x_min":81,"x_max":1015,"o":"m 619 416 l 1015 416 l 1015 376 l 935 376 l 935 225 q 881 151 913 192 q 803 72 849 110 q 692 10 756 35 q 543 -14 628 -14 q 292 55 396 -14 q 135 244 189 123 q 81 521 81 365 q 116 736 81 638 q 216 906 151 834 q 370 1016 281 977 q 564 1056 458 1056 q 691 1033 629 1056 q 800 970 752 1010 l 882 1042 l 915 1042 l 915 751 l 877 751 q 845 858 871 810 q 780 940 820 906 q 688 994 739 975 q 579 1013 636 1013 q 432 972 492 1013 q 334 861 372 931 q 280 703 297 791 q 263 521 263 615 q 275 337 263 426 q 318 177 288 248 q 404 65 349 106 q 543 23 459 23 q 642 41 602 23 q 707 84 682 58 q 746 134 733 109 q 766 174 760 160 l 766 376 l 619 376 l 619 416 m 564 1167 q 469 1194 503 1167 q 422 1265 435 1221 q 408 1358 408 1308 l 431 1358 q 448 1302 431 1324 q 497 1269 466 1280 q 564 1258 527 1258 q 632 1269 601 1258 q 681 1302 663 1280 q 699 1358 699 1324 l 722 1358 q 708 1265 722 1308 q 660 1194 694 1221 q 564 1167 626 1167 z "},"Ĝ":{"ha":1051,"x_min":81,"x_max":1015,"o":"m 619 416 l 1015 416 l 1015 376 l 935 376 l 935 225 q 881 151 913 192 q 803 72 849 110 q 692 10 756 35 q 543 -14 628 -14 q 292 55 396 -14 q 135 244 189 123 q 81 521 81 365 q 116 736 81 638 q 216 906 151 834 q 370 1016 281 977 q 564 1056 458 1056 q 691 1033 629 1056 q 800 970 752 1010 l 882 1042 l 915 1042 l 915 751 l 877 751 q 845 858 871 810 q 780 940 820 906 q 688 994 739 975 q 579 1013 636 1013 q 432 972 492 1013 q 334 861 372 931 q 280 703 297 791 q 263 521 263 615 q 275 337 263 426 q 318 177 288 248 q 404 65 349 106 q 543 23 459 23 q 642 41 602 23 q 707 84 682 58 q 746 134 733 109 q 766 174 760 160 l 766 376 l 619 376 l 619 416 m 377 1174 l 359 1193 l 515 1356 l 614 1356 l 770 1193 l 751 1174 l 564 1283 l 377 1174 z "},"Ģ":{"ha":1051,"x_min":81,"x_max":1015,"o":"m 619 416 l 1015 416 l 1015 376 l 935 376 l 935 225 q 881 151 913 192 q 803 72 849 110 q 692 10 756 35 q 543 -14 628 -14 q 292 55 396 -14 q 135 244 189 123 q 81 521 81 365 q 116 736 81 638 q 216 906 151 834 q 370 1016 281 977 q 564 1056 458 1056 q 691 1033 629 1056 q 800 970 752 1010 l 882 1042 l 915 1042 l 915 751 l 877 751 q 845 858 871 810 q 780 940 820 906 q 688 994 739 975 q 579 1013 636 1013 q 432 972 492 1013 q 334 861 372 931 q 280 703 297 791 q 263 521 263 615 q 275 337 263 426 q 318 177 288 248 q 404 65 349 106 q 543 23 459 23 q 642 41 602 23 q 707 84 682 58 q 746 134 733 109 q 766 174 760 160 l 766 376 l 619 376 l 619 416 m 461 -447 l 461 -417 q 536 -394 503 -417 q 588 -331 569 -371 q 601 -237 606 -290 l 611 -237 q 603 -258 612 -247 q 578 -278 594 -270 q 542 -287 562 -287 q 483 -265 502 -287 q 463 -212 463 -243 q 474 -174 463 -192 q 504 -147 485 -157 q 547 -137 524 -137 q 608 -167 583 -137 q 633 -253 633 -197 q 613 -347 633 -303 q 555 -419 593 -392 q 461 -447 516 -447 z "},"Ġ":{"ha":1051,"x_min":81,"x_max":1015,"o":"m 619 416 l 1015 416 l 1015 376 l 935 376 l 935 225 q 881 151 913 192 q 803 72 849 110 q 692 10 756 35 q 543 -14 628 -14 q 292 55 396 -14 q 135 244 189 123 q 81 521 81 365 q 116 736 81 638 q 216 906 151 834 q 370 1016 281 977 q 564 1056 458 1056 q 691 1033 629 1056 q 800 970 752 1010 l 882 1042 l 915 1042 l 915 751 l 877 751 q 845 858 871 810 q 780 940 820 906 q 688 994 739 975 q 579 1013 636 1013 q 432 972 492 1013 q 334 861 372 931 q 280 703 297 791 q 263 521 263 615 q 275 337 263 426 q 318 177 288 248 q 404 65 349 106 q 543 23 459 23 q 642 41 602 23 q 707 84 682 58 q 746 134 733 109 q 766 174 760 160 l 766 376 l 619 376 l 619 416 m 565 1267 q 499 1295 526 1267 q 472 1361 472 1322 q 499 1427 472 1400 q 565 1454 526 1454 q 631 1427 603 1454 q 658 1361 658 1400 q 631 1295 658 1322 q 565 1267 603 1267 z "},"H":{"ha":1087,"x_min":46,"x_max":1041,"o":"m 1041 1042 l 1041 1005 l 917 1005 l 917 37 l 1041 37 l 1041 0 l 626 0 l 626 37 l 761 37 l 761 495 l 326 495 l 326 37 l 461 37 l 461 0 l 46 0 l 46 37 l 171 37 l 171 1005 l 46 1005 l 46 1042 l 461 1042 l 461 1005 l 326 1005 l 326 533 l 761 533 l 761 1005 l 626 1005 l 626 1042 l 1041 1042 z "},"Ħ":{"ha":1087,"x_min":45,"x_max":1041,"o":"m 45 758 l 45 794 l 1041 794 l 1041 758 l 45 758 m 1041 1042 l 1041 1005 l 917 1005 l 917 37 l 1041 37 l 1041 0 l 626 0 l 626 37 l 761 37 l 761 495 l 326 495 l 326 37 l 461 37 l 461 0 l 46 0 l 46 37 l 171 37 l 171 1005 l 46 1005 l 46 1042 l 461 1042 l 461 1005 l 326 1005 l 326 533 l 761 533 l 761 1005 l 626 1005 l 626 1042 l 1041 1042 z "},"Ĥ":{"ha":1087,"x_min":46,"x_max":1041,"o":"m 1041 1042 l 1041 1005 l 917 1005 l 917 37 l 1041 37 l 1041 0 l 626 0 l 626 37 l 761 37 l 761 495 l 326 495 l 326 37 l 461 37 l 461 0 l 46 0 l 46 37 l 171 37 l 171 1005 l 46 1005 l 46 1042 l 461 1042 l 461 1005 l 326 1005 l 326 533 l 761 533 l 761 1005 l 626 1005 l 626 1042 l 1041 1042 m 358 1174 l 340 1193 l 496 1356 l 594 1356 l 751 1193 l 732 1174 l 544 1283 l 358 1174 z "},"I":{"ha":566,"x_min":46,"x_max":520,"o":"m 46 0 l 46 37 l 199 37 l 199 1005 l 46 1005 l 46 1042 l 520 1042 l 520 1005 l 353 1005 l 353 37 l 520 37 l 520 0 l 46 0 z "},"Ĳ":{"ha":1235,"x_min":46,"x_max":1171,"o":"m 46 0 l 46 37 l 199 37 l 199 1005 l 46 1005 l 46 1042 l 520 1042 l 520 1005 l 353 1005 l 353 37 l 520 37 l 520 0 l 46 0 m 1171 1042 l 1171 1005 l 1032 1005 l 1032 236 q 999 148 1019 196 q 948 57 978 100 q 873 -15 917 13 q 767 -42 828 -42 q 666 -19 708 -42 q 601 41 624 4 q 578 117 578 77 q 591 172 578 149 q 624 206 603 194 q 670 218 645 218 q 712 208 691 218 q 747 178 733 199 q 761 126 761 158 q 747 75 761 94 q 709 46 732 55 q 661 39 686 37 q 648 48 654 41 q 640 65 641 55 q 667 30 649 46 q 707 5 684 15 q 756 -4 730 -4 q 833 23 807 -4 q 868 108 859 49 q 878 264 878 167 l 878 1005 l 697 1005 l 697 1042 l 1171 1042 z "},"Í":{"ha":566,"x_min":46,"x_max":520,"o":"m 46 0 l 46 37 l 199 37 l 199 1005 l 46 1005 l 46 1042 l 520 1042 l 520 1005 l 353 1005 l 353 37 l 520 37 l 520 0 l 46 0 m 234 1163 l 212 1188 l 349 1340 q 385 1363 365 1360 q 421 1359 404 1367 q 446 1338 438 1352 q 453 1307 455 1324 q 442 1274 452 1289 q 415 1252 433 1259 l 234 1163 z "},"Ĭ":{"ha":566,"x_min":46,"x_max":520,"o":"m 46 0 l 46 37 l 199 37 l 199 1005 l 46 1005 l 46 1042 l 520 1042 l 520 1005 l 353 1005 l 353 37 l 520 37 l 520 0 l 46 0 m 278 1167 q 183 1194 217 1167 q 135 1265 149 1221 q 122 1358 122 1308 l 144 1358 q 162 1302 144 1324 q 210 1269 180 1280 q 278 1258 241 1258 q 346 1269 315 1258 q 394 1302 376 1280 q 413 1358 413 1324 l 435 1358 q 422 1265 435 1308 q 374 1194 408 1221 q 278 1167 340 1167 z "},"Î":{"ha":566,"x_min":46,"x_max":520,"o":"m 46 0 l 46 37 l 199 37 l 199 1005 l 46 1005 l 46 1042 l 520 1042 l 520 1005 l 353 1005 l 353 37 l 520 37 l 520 0 l 46 0 m 91 1174 l 73 1193 l 229 1356 l 328 1356 l 484 1193 l 465 1174 l 278 1283 l 91 1174 z "},"Ï":{"ha":566,"x_min":46,"x_max":520,"o":"m 46 0 l 46 37 l 199 37 l 199 1005 l 46 1005 l 46 1042 l 520 1042 l 520 1005 l 353 1005 l 353 37 l 520 37 l 520 0 l 46 0 m 394 1173 q 344 1193 365 1173 q 324 1243 324 1214 q 344 1293 324 1272 q 394 1314 365 1314 q 444 1293 424 1314 q 465 1243 465 1272 q 444 1193 465 1214 q 394 1173 424 1173 m 161 1173 q 111 1193 132 1173 q 91 1243 91 1214 q 111 1293 91 1272 q 162 1314 132 1314 q 211 1293 191 1314 q 232 1243 232 1272 q 211 1193 232 1214 q 161 1173 191 1173 z "},"İ":{"ha":566,"x_min":46,"x_max":520,"o":"m 46 0 l 46 37 l 199 37 l 199 1005 l 46 1005 l 46 1042 l 520 1042 l 520 1005 l 353 1005 l 353 37 l 520 37 l 520 0 l 46 0 m 278 1267 q 213 1295 240 1267 q 185 1361 185 1322 q 213 1427 185 1400 q 278 1454 240 1454 q 344 1427 317 1454 q 372 1361 372 1400 q 344 1295 372 1322 q 278 1267 317 1267 z "},"Ì":{"ha":566,"x_min":46,"x_max":520,"o":"m 46 0 l 46 37 l 199 37 l 199 1005 l 46 1005 l 46 1042 l 520 1042 l 520 1005 l 353 1005 l 353 37 l 520 37 l 520 0 l 46 0 m 322 1163 l 140 1252 q 113 1274 123 1259 q 102 1307 103 1289 q 110 1338 101 1324 q 135 1359 118 1352 q 171 1363 151 1367 q 206 1340 190 1360 l 344 1188 l 322 1163 z "},"Ī":{"ha":566,"x_min":46,"x_max":520,"o":"m 46 0 l 46 37 l 199 37 l 199 1005 l 46 1005 l 46 1042 l 520 1042 l 520 1005 l 353 1005 l 353 37 l 520 37 l 520 0 l 46 0 m 111 1181 l 111 1217 l 444 1217 l 444 1181 l 111 1181 z "},"Į":{"ha":566,"x_min":46,"x_max":520,"o":"m 46 0 l 46 37 l 199 37 l 199 1005 l 46 1005 l 46 1042 l 520 1042 l 520 1005 l 353 1005 l 353 37 l 520 37 l 520 0 l 46 0 m 267 -297 q 193 -284 229 -297 q 135 -245 158 -272 q 112 -177 112 -219 q 131 -102 112 -135 q 181 -44 150 -69 q 248 -2 212 -19 q 319 27 285 16 l 330 6 q 294 -26 310 -4 q 267 -78 277 -48 q 256 -144 256 -108 q 273 -214 256 -187 q 324 -240 290 -240 q 374 -222 354 -240 q 406 -180 393 -204 l 431 -196 q 402 -239 420 -215 q 352 -280 384 -262 q 267 -297 320 -297 z "},"Ĩ":{"ha":566,"x_min":38,"x_max":522,"o":"m 46 0 l 46 37 l 199 37 l 199 1005 l 46 1005 l 46 1042 l 520 1042 l 520 1005 l 353 1005 l 353 37 l 520 37 l 520 0 l 46 0 m 388 1163 q 315 1179 346 1163 q 260 1217 285 1196 q 211 1256 235 1239 q 156 1272 186 1272 q 99 1251 122 1272 q 76 1181 76 1231 l 38 1181 q 60 1281 38 1240 q 115 1343 81 1322 q 185 1365 149 1365 q 259 1348 229 1365 q 311 1310 289 1331 q 356 1272 334 1288 q 404 1255 377 1255 q 463 1276 440 1255 q 485 1347 485 1297 l 522 1347 q 506 1241 522 1281 q 461 1181 491 1200 q 388 1163 432 1163 z "},"J":{"ha":675,"x_min":37,"x_max":629,"o":"m 629 1042 l 629 1005 l 490 1005 l 490 236 q 457 148 478 196 q 406 57 437 100 q 331 -15 376 13 q 225 -42 287 -42 q 124 -19 167 -42 q 59 41 82 4 q 37 117 37 77 q 49 172 37 149 q 83 206 62 194 q 128 218 103 218 q 170 208 149 218 q 205 178 191 199 q 219 126 219 158 q 205 75 219 94 q 167 46 190 55 q 119 39 144 37 q 106 48 113 41 q 98 65 99 55 q 125 30 108 46 q 165 5 142 15 q 214 -4 188 -4 q 291 23 265 -4 q 327 108 317 49 q 336 264 336 167 l 336 1005 l 156 1005 l 156 1042 l 629 1042 z "},"Ĵ":{"ha":675,"x_min":37,"x_max":629,"o":"m 629 1042 l 629 1005 l 490 1005 l 490 236 q 457 148 478 196 q 406 57 437 100 q 331 -15 376 13 q 225 -42 287 -42 q 124 -19 167 -42 q 59 41 82 4 q 37 117 37 77 q 49 172 37 149 q 83 206 62 194 q 128 218 103 218 q 170 208 149 218 q 205 178 191 199 q 219 126 219 158 q 205 75 219 94 q 167 46 190 55 q 119 39 144 37 q 106 48 113 41 q 98 65 99 55 q 125 30 108 46 q 165 5 142 15 q 214 -4 188 -4 q 291 23 265 -4 q 327 108 317 49 q 336 264 336 167 l 336 1005 l 156 1005 l 156 1042 l 629 1042 m 207 1174 l 189 1193 l 345 1356 l 444 1356 l 600 1193 l 581 1174 l 394 1283 l 207 1174 z "},"K":{"ha":1021,"x_min":46,"x_max":990,"o":"m 192 301 l 737 1005 l 594 1005 l 594 1042 l 928 1042 l 928 1005 l 789 1005 l 244 301 l 192 301 m 46 0 l 46 37 l 171 37 l 171 1005 l 46 1005 l 46 1042 l 465 1042 l 465 1005 l 326 1005 l 326 37 l 461 37 l 461 0 l 46 0 m 540 0 l 540 37 l 672 37 l 389 538 l 492 658 l 860 37 l 990 37 l 990 0 l 540 0 z "},"Ķ":{"ha":1021,"x_min":46,"x_max":990,"o":"m 192 301 l 737 1005 l 594 1005 l 594 1042 l 928 1042 l 928 1005 l 789 1005 l 244 301 l 192 301 m 46 0 l 46 37 l 171 37 l 171 1005 l 46 1005 l 46 1042 l 465 1042 l 465 1005 l 326 1005 l 326 37 l 461 37 l 461 0 l 46 0 m 540 0 l 540 37 l 672 37 l 389 538 l 492 658 l 860 37 l 990 37 l 990 0 l 540 0 m 421 -447 l 421 -417 q 496 -394 463 -417 q 547 -331 529 -371 q 561 -237 565 -290 l 571 -237 q 563 -258 572 -247 q 538 -278 553 -270 q 501 -287 522 -287 q 442 -265 462 -287 q 423 -212 423 -243 q 434 -174 423 -192 q 464 -147 444 -157 q 506 -137 483 -137 q 568 -167 542 -137 q 593 -253 593 -197 q 573 -347 593 -303 q 514 -419 553 -392 q 421 -447 476 -447 z "},"L":{"ha":865,"x_min":46,"x_max":815,"o":"m 46 0 l 46 37 l 171 37 l 171 1005 l 46 1005 l 46 1042 l 451 1042 l 451 1005 l 326 1005 l 326 37 l 519 37 q 649 55 599 37 q 726 108 699 73 q 764 195 753 144 q 777 313 775 247 l 815 313 l 815 0 l 46 0 z "},"Ĺ":{"ha":865,"x_min":46,"x_max":815,"o":"m 46 0 l 46 37 l 171 37 l 171 1005 l 46 1005 l 46 1042 l 451 1042 l 451 1005 l 326 1005 l 326 37 l 519 37 q 649 55 599 37 q 726 108 699 73 q 764 195 753 144 q 777 313 775 247 l 815 313 l 815 0 l 46 0 m 205 1163 l 183 1188 l 320 1340 q 356 1363 336 1360 q 392 1359 375 1367 q 417 1338 408 1352 q 424 1307 426 1324 q 413 1274 423 1289 q 386 1252 403 1259 l 205 1163 z "},"Ľ":{"ha":865,"x_min":46,"x_max":815,"o":"m 46 0 l 46 37 l 171 37 l 171 1005 l 46 1005 l 46 1042 l 451 1042 l 451 1005 l 326 1005 l 326 37 l 519 37 q 649 55 599 37 q 726 108 699 73 q 764 195 753 144 q 777 313 775 247 l 815 313 l 815 0 l 46 0 m 560 692 l 560 727 q 628 743 597 727 q 682 787 660 758 q 716 855 705 815 q 723 940 727 894 l 734 940 q 725 916 735 930 q 696 893 715 903 q 654 883 678 883 q 585 908 608 883 q 563 969 563 934 q 591 1032 563 1006 q 660 1057 619 1057 q 732 1022 703 1057 q 762 922 762 988 q 738 810 762 863 q 669 725 715 758 q 560 692 624 692 z "},"Ļ":{"ha":865,"x_min":46,"x_max":815,"o":"m 46 0 l 46 37 l 171 37 l 171 1005 l 46 1005 l 46 1042 l 451 1042 l 451 1005 l 326 1005 l 326 37 l 519 37 q 649 55 599 37 q 726 108 699 73 q 764 195 753 144 q 777 313 775 247 l 815 313 l 815 0 l 46 0 m 346 -447 l 346 -417 q 421 -394 388 -417 q 472 -331 454 -371 q 486 -237 490 -290 l 496 -237 q 488 -258 497 -247 q 463 -278 478 -270 q 426 -287 447 -287 q 367 -265 387 -287 q 348 -212 348 -243 q 359 -174 348 -192 q 389 -147 369 -157 q 431 -137 408 -137 q 493 -167 467 -137 q 518 -253 518 -197 q 498 -347 518 -303 q 439 -419 478 -392 q 346 -447 401 -447 z "},"Ŀ":{"ha":865,"x_min":46,"x_max":815,"o":"m 46 0 l 46 37 l 171 37 l 171 1005 l 46 1005 l 46 1042 l 451 1042 l 451 1005 l 326 1005 l 326 37 l 519 37 q 649 55 599 37 q 726 108 699 73 q 764 195 753 144 q 777 313 775 247 l 815 313 l 815 0 l 46 0 z "},"Ł":{"ha":865,"x_min":46,"x_max":815,"o":"m 58 458 l 58 501 l 558 806 l 558 763 l 58 458 m 46 0 l 46 37 l 171 37 l 171 1005 l 46 1005 l 46 1042 l 451 1042 l 451 1005 l 326 1005 l 326 37 l 519 37 q 649 55 599 37 q 726 108 699 73 q 764 195 753 144 q 777 313 775 247 l 815 313 l 815 0 l 46 0 z "},"M":{"ha":1251,"x_min":46,"x_max":1206,"o":"m 557 -14 l 170 1042 l 327 1042 l 637 205 l 924 1042 l 963 1042 l 601 -14 l 557 -14 m 190 1042 l 190 37 l 290 37 l 290 0 l 53 0 l 53 37 l 151 37 l 151 1005 l 46 1005 l 46 1042 l 190 1042 m 1206 1042 l 1206 1005 l 1108 1005 l 1108 37 l 1206 37 l 1206 0 l 842 0 l 842 37 l 953 37 l 953 1042 l 1206 1042 z "},"N":{"ha":1099,"x_min":46,"x_max":1054,"o":"m 228 1042 l 228 37 l 390 37 l 390 0 l 46 0 l 46 37 l 190 37 l 190 1005 l 46 1005 l 46 1042 l 228 1042 m 1054 1042 l 1054 1005 l 908 1005 l 908 -14 l 856 -14 l 201 1042 l 388 1042 l 870 255 l 870 1005 l 713 1005 l 713 1042 l 1054 1042 z "},"Ń":{"ha":1099,"x_min":46,"x_max":1054,"o":"m 228 1042 l 228 37 l 390 37 l 390 0 l 46 0 l 46 37 l 190 37 l 190 1005 l 46 1005 l 46 1042 l 228 1042 m 1054 1042 l 1054 1005 l 908 1005 l 908 -14 l 856 -14 l 201 1042 l 388 1042 l 870 255 l 870 1005 l 713 1005 l 713 1042 l 1054 1042 m 529 1163 l 507 1188 l 644 1340 q 680 1363 660 1360 q 716 1359 699 1367 q 741 1338 733 1352 q 749 1307 750 1324 q 738 1274 747 1289 q 710 1252 728 1259 l 529 1163 z "},"Ň":{"ha":1099,"x_min":46,"x_max":1054,"o":"m 228 1042 l 228 37 l 390 37 l 390 0 l 46 0 l 46 37 l 190 37 l 190 1005 l 46 1005 l 46 1042 l 228 1042 m 1054 1042 l 1054 1005 l 908 1005 l 908 -14 l 856 -14 l 201 1042 l 388 1042 l 870 255 l 870 1005 l 713 1005 l 713 1042 l 1054 1042 m 524 1181 l 368 1344 l 387 1362 l 573 1253 l 760 1362 l 779 1344 l 623 1181 l 524 1181 z "},"Ņ":{"ha":1099,"x_min":46,"x_max":1054,"o":"m 228 1042 l 228 37 l 390 37 l 390 0 l 46 0 l 46 37 l 190 37 l 190 1005 l 46 1005 l 46 1042 l 228 1042 m 1054 1042 l 1054 1005 l 908 1005 l 908 -14 l 856 -14 l 201 1042 l 388 1042 l 870 255 l 870 1005 l 713 1005 l 713 1042 l 1054 1042 m 440 -447 l 440 -417 q 515 -394 481 -417 q 566 -331 548 -371 q 580 -237 584 -290 l 590 -237 q 581 -258 590 -247 q 556 -278 572 -270 q 520 -287 540 -287 q 461 -265 481 -287 q 442 -212 442 -243 q 452 -174 442 -192 q 483 -147 463 -157 q 525 -137 502 -137 q 586 -167 561 -137 q 612 -253 612 -197 q 592 -347 612 -303 q 533 -419 572 -392 q 440 -447 494 -447 z "},"Ŋ":{"ha":1082,"x_min":52,"x_max":944,"o":"m 672 -361 q 558 -338 605 -361 q 485 -278 510 -315 q 460 -200 460 -241 q 486 -131 460 -155 q 549 -106 513 -106 q 589 -115 569 -106 q 622 -142 609 -124 q 635 -190 635 -160 q 613 -247 635 -221 q 551 -273 591 -273 q 508 -264 528 -273 q 474 -238 488 -254 q 461 -200 461 -222 l 497 -200 q 518 -261 497 -232 q 577 -308 540 -290 q 663 -326 614 -326 q 738 -296 710 -326 q 778 -215 765 -266 q 795 -101 792 -164 q 799 28 799 -38 l 799 693 q 784 813 799 758 q 738 908 768 867 q 665 972 708 949 q 567 994 622 994 q 448 967 500 994 q 361 895 397 939 q 307 800 325 851 q 288 701 288 749 l 265 701 q 276 785 265 739 q 312 879 288 832 q 376 966 337 926 q 471 1031 415 1006 q 600 1055 527 1055 q 794 1008 718 1055 q 907 884 869 961 q 944 719 944 808 l 943 -16 q 928 -145 943 -83 q 881 -256 913 -208 q 798 -333 849 -305 q 672 -361 746 -361 m 52 0 l 52 37 l 384 37 l 384 0 l 52 0 m 149 0 l 149 1005 l 52 1005 l 52 1042 l 288 1042 l 288 0 l 149 0 z "},"Ñ":{"ha":1099,"x_min":46,"x_max":1054,"o":"m 228 1042 l 228 37 l 390 37 l 390 0 l 46 0 l 46 37 l 190 37 l 190 1005 l 46 1005 l 46 1042 l 228 1042 m 1054 1042 l 1054 1005 l 908 1005 l 908 -14 l 856 -14 l 201 1042 l 388 1042 l 870 255 l 870 1005 l 713 1005 l 713 1042 l 1054 1042 m 683 1163 q 610 1179 640 1163 q 555 1217 579 1196 q 505 1256 530 1239 q 450 1272 481 1272 q 393 1251 417 1272 q 370 1181 370 1231 l 333 1181 q 354 1281 333 1240 q 409 1343 376 1322 q 480 1365 443 1365 q 553 1348 524 1365 q 606 1310 583 1331 q 650 1272 628 1288 q 699 1255 672 1255 q 757 1276 735 1255 q 779 1347 779 1297 l 816 1347 q 801 1241 816 1281 q 756 1181 785 1200 q 683 1163 726 1163 z "},"O":{"ha":1064,"x_min":81,"x_max":984,"o":"m 532 -14 q 341 27 425 -14 q 199 142 257 68 q 111 312 141 215 q 81 521 81 409 q 113 730 81 633 q 204 900 144 826 q 347 1015 264 974 q 532 1056 430 1056 q 718 1015 635 1056 q 860 900 801 974 q 952 730 920 826 q 984 521 984 633 q 954 312 984 409 q 865 142 924 215 q 723 27 807 68 q 532 -14 640 -14 m 532 20 q 671 61 618 20 q 752 172 724 101 q 791 333 781 242 q 801 521 801 423 q 789 709 801 619 q 747 870 777 799 q 665 981 717 940 q 532 1022 613 1022 q 400 981 452 1022 q 317 870 347 940 q 275 709 288 799 q 263 521 263 619 q 273 333 263 423 q 312 172 283 242 q 393 61 340 101 q 532 20 447 20 z "},"Ó":{"ha":1064,"x_min":81,"x_max":984,"o":"m 532 -14 q 341 27 425 -14 q 199 142 257 68 q 111 312 141 215 q 81 521 81 409 q 113 730 81 633 q 204 900 144 826 q 347 1015 264 974 q 532 1056 430 1056 q 718 1015 635 1056 q 860 900 801 974 q 952 730 920 826 q 984 521 984 633 q 954 312 984 409 q 865 142 924 215 q 723 27 807 68 q 532 -14 640 -14 m 532 20 q 671 61 618 20 q 752 172 724 101 q 791 333 781 242 q 801 521 801 423 q 789 709 801 619 q 747 870 777 799 q 665 981 717 940 q 532 1022 613 1022 q 400 981 452 1022 q 317 870 347 940 q 275 709 288 799 q 263 521 263 619 q 273 333 263 423 q 312 172 283 242 q 393 61 340 101 q 532 20 447 20 m 488 1163 l 466 1188 l 603 1340 q 639 1363 619 1360 q 675 1359 658 1367 q 700 1338 692 1352 q 708 1307 709 1324 q 697 1274 706 1289 q 669 1252 687 1259 l 488 1163 z "},"Ŏ":{"ha":1064,"x_min":81,"x_max":984,"o":"m 532 -14 q 341 27 425 -14 q 199 142 257 68 q 111 312 141 215 q 81 521 81 409 q 113 730 81 633 q 204 900 144 826 q 347 1015 264 974 q 532 1056 430 1056 q 718 1015 635 1056 q 860 900 801 974 q 952 730 920 826 q 984 521 984 633 q 954 312 984 409 q 865 142 924 215 q 723 27 807 68 q 532 -14 640 -14 m 532 20 q 671 61 618 20 q 752 172 724 101 q 791 333 781 242 q 801 521 801 423 q 789 709 801 619 q 747 870 777 799 q 665 981 717 940 q 532 1022 613 1022 q 400 981 452 1022 q 317 870 347 940 q 275 709 288 799 q 263 521 263 619 q 273 333 263 423 q 312 172 283 242 q 393 61 340 101 q 532 20 447 20 m 532 1167 q 437 1194 471 1167 q 390 1265 403 1221 q 376 1358 376 1308 l 399 1358 q 416 1302 399 1324 q 465 1269 434 1280 q 532 1258 495 1258 q 600 1269 569 1258 q 649 1302 631 1280 q 667 1358 667 1324 l 690 1358 q 676 1265 690 1308 q 628 1194 663 1221 q 532 1167 594 1167 z "},"Ô":{"ha":1064,"x_min":81,"x_max":984,"o":"m 532 -14 q 341 27 425 -14 q 199 142 257 68 q 111 312 141 215 q 81 521 81 409 q 113 730 81 633 q 204 900 144 826 q 347 1015 264 974 q 532 1056 430 1056 q 718 1015 635 1056 q 860 900 801 974 q 952 730 920 826 q 984 521 984 633 q 954 312 984 409 q 865 142 924 215 q 723 27 807 68 q 532 -14 640 -14 m 532 20 q 671 61 618 20 q 752 172 724 101 q 791 333 781 242 q 801 521 801 423 q 789 709 801 619 q 747 870 777 799 q 665 981 717 940 q 532 1022 613 1022 q 400 981 452 1022 q 317 870 347 940 q 275 709 288 799 q 263 521 263 619 q 273 333 263 423 q 312 172 283 242 q 393 61 340 101 q 532 20 447 20 m 346 1174 l 328 1193 l 484 1356 l 583 1356 l 739 1193 l 720 1174 l 533 1283 l 346 1174 z "},"Ö":{"ha":1064,"x_min":81,"x_max":984,"o":"m 532 -14 q 341 27 425 -14 q 199 142 257 68 q 111 312 141 215 q 81 521 81 409 q 113 730 81 633 q 204 900 144 826 q 347 1015 264 974 q 532 1056 430 1056 q 718 1015 635 1056 q 860 900 801 974 q 952 730 920 826 q 984 521 984 633 q 954 312 984 409 q 865 142 924 215 q 723 27 807 68 q 532 -14 640 -14 m 532 20 q 671 61 618 20 q 752 172 724 101 q 791 333 781 242 q 801 521 801 423 q 789 709 801 619 q 747 870 777 799 q 665 981 717 940 q 532 1022 613 1022 q 400 981 452 1022 q 317 870 347 940 q 275 709 288 799 q 263 521 263 619 q 273 333 263 423 q 312 172 283 242 q 393 61 340 101 q 532 20 447 20 m 649 1173 q 598 1193 619 1173 q 578 1243 578 1214 q 598 1293 578 1272 q 649 1314 619 1314 q 698 1293 678 1314 q 719 1243 719 1272 q 698 1193 719 1214 q 649 1173 678 1173 m 415 1173 q 366 1193 386 1173 q 345 1243 345 1214 q 366 1293 345 1272 q 416 1314 386 1314 q 466 1293 445 1314 q 486 1243 486 1272 q 466 1193 486 1214 q 415 1173 445 1173 z "},"Ò":{"ha":1064,"x_min":81,"x_max":984,"o":"m 532 -14 q 341 27 425 -14 q 199 142 257 68 q 111 312 141 215 q 81 521 81 409 q 113 730 81 633 q 204 900 144 826 q 347 1015 264 974 q 532 1056 430 1056 q 718 1015 635 1056 q 860 900 801 974 q 952 730 920 826 q 984 521 984 633 q 954 312 984 409 q 865 142 924 215 q 723 27 807 68 q 532 -14 640 -14 m 532 20 q 671 61 618 20 q 752 172 724 101 q 791 333 781 242 q 801 521 801 423 q 789 709 801 619 q 747 870 777 799 q 665 981 717 940 q 532 1022 613 1022 q 400 981 452 1022 q 317 870 347 940 q 275 709 288 799 q 263 521 263 619 q 273 333 263 423 q 312 172 283 242 q 393 61 340 101 q 532 20 447 20 m 576 1163 l 394 1252 q 367 1274 377 1259 q 357 1307 358 1289 q 364 1338 356 1324 q 389 1359 372 1352 q 425 1363 406 1367 q 460 1340 444 1360 l 598 1188 l 576 1163 z "},"Ő":{"ha":1064,"x_min":81,"x_max":984,"o":"m 532 -14 q 341 27 425 -14 q 199 142 257 68 q 111 312 141 215 q 81 521 81 409 q 113 730 81 633 q 204 900 144 826 q 347 1015 264 974 q 532 1056 430 1056 q 718 1015 635 1056 q 860 900 801 974 q 952 730 920 826 q 984 521 984 633 q 954 312 984 409 q 865 142 924 215 q 723 27 807 68 q 532 -14 640 -14 m 532 20 q 671 61 618 20 q 752 172 724 101 q 791 333 781 242 q 801 521 801 423 q 789 709 801 619 q 747 870 777 799 q 665 981 717 940 q 532 1022 613 1022 q 400 981 452 1022 q 317 870 347 940 q 275 709 288 799 q 263 521 263 619 q 273 333 263 423 q 312 172 283 242 q 393 61 340 101 q 532 20 447 20 m 343 1163 l 321 1188 l 458 1340 q 494 1363 474 1360 q 530 1359 513 1367 q 555 1338 547 1352 q 563 1307 564 1324 q 551 1274 561 1289 q 524 1252 542 1259 l 343 1163 m 638 1163 l 615 1188 l 753 1340 q 788 1363 769 1360 q 824 1359 808 1367 q 849 1338 841 1352 q 857 1307 858 1324 q 846 1274 856 1289 q 819 1252 836 1259 l 638 1163 z "},"Ō":{"ha":1064,"x_min":81,"x_max":984,"o":"m 532 -14 q 341 27 425 -14 q 199 142 257 68 q 111 312 141 215 q 81 521 81 409 q 113 730 81 633 q 204 900 144 826 q 347 1015 264 974 q 532 1056 430 1056 q 718 1015 635 1056 q 860 900 801 974 q 952 730 920 826 q 984 521 984 633 q 954 312 984 409 q 865 142 924 215 q 723 27 807 68 q 532 -14 640 -14 m 532 20 q 671 61 618 20 q 752 172 724 101 q 791 333 781 242 q 801 521 801 423 q 789 709 801 619 q 747 870 777 799 q 665 981 717 940 q 532 1022 613 1022 q 400 981 452 1022 q 317 870 347 940 q 275 709 288 799 q 263 521 263 619 q 273 333 263 423 q 312 172 283 242 q 393 61 340 101 q 532 20 447 20 m 366 1181 l 366 1217 l 699 1217 l 699 1181 l 366 1181 z "},"Ø":{"ha":1064,"x_min":81,"x_max":984,"o":"m 226 -139 l 817 1153 l 854 1153 l 263 -139 l 226 -139 m 532 -14 q 341 27 425 -14 q 199 142 257 68 q 111 312 141 215 q 81 521 81 409 q 113 730 81 633 q 204 900 144 826 q 347 1015 264 974 q 532 1056 430 1056 q 718 1015 635 1056 q 860 900 801 974 q 952 730 920 826 q 984 521 984 633 q 954 312 984 409 q 865 142 924 215 q 723 27 807 68 q 532 -14 640 -14 m 532 20 q 671 61 618 20 q 752 172 724 101 q 791 333 781 242 q 801 521 801 423 q 789 709 801 619 q 747 870 777 799 q 665 981 717 940 q 532 1022 613 1022 q 400 981 452 1022 q 317 870 347 940 q 275 709 288 799 q 263 521 263 619 q 273 333 263 423 q 312 172 283 242 q 393 61 340 101 q 532 20 447 20 z "},"Õ":{"ha":1064,"x_min":81,"x_max":984,"o":"m 532 -14 q 341 27 425 -14 q 199 142 257 68 q 111 312 141 215 q 81 521 81 409 q 113 730 81 633 q 204 900 144 826 q 347 1015 264 974 q 532 1056 430 1056 q 718 1015 635 1056 q 860 900 801 974 q 952 730 920 826 q 984 521 984 633 q 954 312 984 409 q 865 142 924 215 q 723 27 807 68 q 532 -14 640 -14 m 532 20 q 671 61 618 20 q 752 172 724 101 q 791 333 781 242 q 801 521 801 423 q 789 709 801 619 q 747 870 777 799 q 665 981 717 940 q 532 1022 613 1022 q 400 981 452 1022 q 317 870 347 940 q 275 709 288 799 q 263 521 263 619 q 273 333 263 423 q 312 172 283 242 q 393 61 340 101 q 532 20 447 20 m 642 1163 q 569 1179 600 1163 q 514 1217 539 1196 q 465 1256 490 1239 q 410 1272 440 1272 q 353 1251 376 1272 q 330 1181 330 1231 l 292 1181 q 314 1281 292 1240 q 369 1343 335 1322 q 440 1365 403 1365 q 513 1348 483 1365 q 566 1310 543 1331 q 610 1272 588 1288 q 658 1255 631 1255 q 717 1276 694 1255 q 739 1347 739 1297 l 776 1347 q 760 1241 776 1281 q 716 1181 745 1200 q 642 1163 686 1163 z "},"Œ":{"ha":1369,"x_min":56,"x_max":1303,"o":"m 239 521 q 254 705 239 617 q 303 860 269 792 q 398 966 338 928 q 547 1005 458 1005 l 530 1042 q 282 976 389 1042 q 115 793 175 910 q 56 521 56 676 q 115 249 56 366 q 282 66 175 131 q 530 0 389 0 l 547 37 q 398 75 458 37 q 303 182 338 114 q 254 337 269 249 q 239 521 239 424 m 528 0 l 528 37 l 654 37 l 654 1005 l 528 1005 l 528 1042 l 1290 1042 l 1290 757 l 1253 757 q 1226 887 1250 831 q 1153 974 1203 943 q 1022 1005 1103 1005 l 810 1005 l 810 37 l 1008 37 q 1158 69 1103 37 q 1239 163 1214 101 q 1267 313 1264 224 l 1303 313 l 1303 0 l 528 0 m 1023 381 q 1001 458 1019 427 q 951 505 982 490 q 881 520 920 520 l 785 520 l 785 557 l 881 557 q 951 571 920 557 q 1001 614 982 585 q 1023 690 1019 644 l 1060 690 l 1060 381 l 1023 381 z "},"P":{"ha":916,"x_min":46,"x_max":842,"o":"m 475 1042 q 683 1004 602 1042 q 803 898 764 966 q 842 740 842 831 q 803 583 842 650 q 683 479 764 516 q 475 442 602 442 l 326 442 l 326 37 l 451 37 l 451 0 l 46 0 l 46 37 l 171 37 l 171 1005 l 46 1005 l 46 1042 l 475 1042 m 326 478 l 467 478 q 552 502 515 478 q 615 563 590 525 q 653 648 640 601 q 666 740 666 694 q 653 833 666 787 q 615 919 640 880 q 552 981 590 958 q 467 1005 515 1005 l 326 1005 l 326 478 z "},"Þ":{"ha":865,"x_min":20,"x_max":817,"o":"m 273 249 l 273 288 l 440 288 q 528 309 490 288 q 590 368 565 331 q 628 450 615 405 q 641 541 641 495 q 628 633 641 588 q 590 715 615 678 q 528 774 565 752 q 440 797 490 797 l 273 797 l 273 833 l 454 833 q 730 755 642 833 q 817 541 817 676 q 730 327 817 406 q 454 249 642 249 l 273 249 m 20 0 l 20 37 l 426 37 l 426 0 l 20 0 m 146 0 l 146 1042 l 301 1042 l 301 0 l 146 0 m 20 1005 l 20 1042 l 426 1042 l 426 1005 l 20 1005 z "},"Q":{"ha":1064,"x_min":81,"x_max":984,"o":"m 780 -347 q 595 -328 663 -347 q 492 -267 526 -308 q 448 -159 458 -225 q 438 1 438 -92 q 529 -3 483 -3 q 620 1 574 -3 q 626 -154 620 -93 q 648 -249 632 -215 q 697 -297 665 -283 q 780 -310 728 -310 l 780 -347 m 532 -14 q 341 27 425 -14 q 199 142 257 68 q 111 312 141 215 q 81 521 81 409 q 113 730 81 633 q 204 900 144 826 q 347 1015 264 974 q 532 1056 430 1056 q 718 1015 635 1056 q 860 900 801 974 q 952 730 920 826 q 984 521 984 633 q 954 312 984 409 q 865 142 924 215 q 723 27 807 68 q 532 -14 640 -14 m 532 20 q 671 61 618 20 q 752 172 724 101 q 791 333 781 242 q 801 521 801 423 q 789 709 801 619 q 747 870 777 799 q 665 981 717 940 q 532 1022 613 1022 q 400 981 452 1022 q 317 870 347 940 q 275 709 288 799 q 263 521 263 619 q 273 333 263 423 q 312 172 283 242 q 393 61 340 101 q 532 20 447 20 z "},"R":{"ha":1027,"x_min":46,"x_max":989,"o":"m 296 522 l 296 542 l 502 542 q 615 568 569 542 q 685 645 661 594 q 709 774 709 697 q 685 903 709 851 q 615 980 661 954 q 502 1005 569 1005 l 46 1005 l 46 1042 l 512 1042 q 700 1013 619 1042 q 826 924 781 983 q 871 774 871 865 q 829 628 871 684 q 707 547 787 572 q 512 522 626 522 l 296 522 m 46 0 l 46 37 l 499 37 l 499 0 l 46 0 m 195 20 l 195 1018 l 350 1018 l 350 20 l 195 20 m 852 -8 q 753 14 789 -8 q 701 72 717 35 q 681 155 685 109 q 676 249 676 200 q 670 343 675 298 q 650 426 666 389 q 597 484 633 463 q 497 506 561 506 l 296 506 l 296 525 l 548 525 q 703 498 645 525 q 790 428 761 472 q 830 332 819 384 q 841 227 840 280 q 845 131 842 175 q 860 61 847 88 q 908 35 873 35 q 945 39 929 35 q 976 50 962 44 l 989 15 q 935 -1 972 6 q 852 -8 897 -8 z "},"Ŕ":{"ha":1027,"x_min":46,"x_max":989,"o":"m 296 522 l 296 542 l 502 542 q 615 568 569 542 q 685 645 661 594 q 709 774 709 697 q 685 903 709 851 q 615 980 661 954 q 502 1005 569 1005 l 46 1005 l 46 1042 l 512 1042 q 700 1013 619 1042 q 826 924 781 983 q 871 774 871 865 q 829 628 871 684 q 707 547 787 572 q 512 522 626 522 l 296 522 m 46 0 l 46 37 l 499 37 l 499 0 l 46 0 m 195 20 l 195 1018 l 350 1018 l 350 20 l 195 20 m 852 -8 q 753 14 789 -8 q 701 72 717 35 q 681 155 685 109 q 676 249 676 200 q 670 343 675 298 q 650 426 666 389 q 597 484 633 463 q 497 506 561 506 l 296 506 l 296 525 l 548 525 q 703 498 645 525 q 790 428 761 472 q 830 332 819 384 q 841 227 840 280 q 845 131 842 175 q 860 61 847 88 q 908 35 873 35 q 945 39 929 35 q 976 50 962 44 l 989 15 q 935 -1 972 6 q 852 -8 897 -8 m 424 1163 l 401 1188 l 539 1340 q 574 1363 555 1360 q 610 1359 594 1367 q 635 1338 627 1352 q 643 1307 644 1324 q 632 1274 642 1289 q 605 1252 622 1259 l 424 1163 z "},"Ř":{"ha":1027,"x_min":46,"x_max":989,"o":"m 296 522 l 296 542 l 502 542 q 615 568 569 542 q 685 645 661 594 q 709 774 709 697 q 685 903 709 851 q 615 980 661 954 q 502 1005 569 1005 l 46 1005 l 46 1042 l 512 1042 q 700 1013 619 1042 q 826 924 781 983 q 871 774 871 865 q 829 628 871 684 q 707 547 787 572 q 512 522 626 522 l 296 522 m 46 0 l 46 37 l 499 37 l 499 0 l 46 0 m 195 20 l 195 1018 l 350 1018 l 350 20 l 195 20 m 852 -8 q 753 14 789 -8 q 701 72 717 35 q 681 155 685 109 q 676 249 676 200 q 670 343 675 298 q 650 426 666 389 q 597 484 633 463 q 497 506 561 506 l 296 506 l 296 525 l 548 525 q 703 498 645 525 q 790 428 761 472 q 830 332 819 384 q 841 227 840 280 q 845 131 842 175 q 860 61 847 88 q 908 35 873 35 q 945 39 929 35 q 976 50 962 44 l 989 15 q 935 -1 972 6 q 852 -8 897 -8 m 419 1181 l 263 1344 l 281 1362 l 467 1253 l 655 1362 l 674 1344 l 517 1181 l 419 1181 z "},"Ŗ":{"ha":1027,"x_min":46,"x_max":989,"o":"m 296 522 l 296 542 l 502 542 q 615 568 569 542 q 685 645 661 594 q 709 774 709 697 q 685 903 709 851 q 615 980 661 954 q 502 1005 569 1005 l 46 1005 l 46 1042 l 512 1042 q 700 1013 619 1042 q 826 924 781 983 q 871 774 871 865 q 829 628 871 684 q 707 547 787 572 q 512 522 626 522 l 296 522 m 46 0 l 46 37 l 499 37 l 499 0 l 46 0 m 195 20 l 195 1018 l 350 1018 l 350 20 l 195 20 m 852 -8 q 753 14 789 -8 q 701 72 717 35 q 681 155 685 109 q 676 249 676 200 q 670 343 675 298 q 650 426 666 389 q 597 484 633 463 q 497 506 561 506 l 296 506 l 296 525 l 548 525 q 703 498 645 525 q 790 428 761 472 q 830 332 819 384 q 841 227 840 280 q 845 131 842 175 q 860 61 847 88 q 908 35 873 35 q 945 39 929 35 q 976 50 962 44 l 989 15 q 935 -1 972 6 q 852 -8 897 -8 m 451 -447 l 451 -417 q 526 -394 492 -417 q 577 -331 559 -371 q 591 -237 595 -290 l 601 -237 q 592 -258 601 -247 q 567 -278 583 -270 q 531 -287 551 -287 q 472 -265 492 -287 q 453 -212 453 -243 q 464 -174 453 -192 q 494 -147 474 -157 q 536 -137 513 -137 q 598 -167 572 -137 q 623 -253 623 -197 q 603 -347 623 -303 q 544 -419 583 -392 q 451 -447 506 -447 z "},"Ȓ":{"ha":1027,"x_min":46,"x_max":989,"o":"m 296 522 l 296 542 l 502 542 q 615 568 569 542 q 685 645 661 594 q 709 774 709 697 q 685 903 709 851 q 615 980 661 954 q 502 1005 569 1005 l 46 1005 l 46 1042 l 512 1042 q 700 1013 619 1042 q 826 924 781 983 q 871 774 871 865 q 829 628 871 684 q 707 547 787 572 q 512 522 626 522 l 296 522 m 46 0 l 46 37 l 499 37 l 499 0 l 46 0 m 195 20 l 195 1018 l 350 1018 l 350 20 l 195 20 m 852 -8 q 753 14 789 -8 q 701 72 717 35 q 681 155 685 109 q 676 249 676 200 q 670 343 675 298 q 650 426 666 389 q 597 484 633 463 q 497 506 561 506 l 296 506 l 296 525 l 548 525 q 703 498 645 525 q 790 428 761 472 q 830 332 819 384 q 841 227 840 280 q 845 131 842 175 q 860 61 847 88 q 908 35 873 35 q 945 39 929 35 q 976 50 962 44 l 989 15 q 935 -1 972 6 q 852 -8 897 -8 m 313 1167 q 326 1260 313 1216 q 374 1331 340 1303 q 469 1358 408 1358 q 565 1331 531 1358 q 613 1260 599 1303 q 626 1167 626 1216 l 603 1167 q 585 1222 603 1200 q 537 1255 567 1244 q 469 1266 507 1266 q 402 1255 433 1266 q 353 1222 372 1244 q 335 1167 335 1200 l 313 1167 z "},"S":{"ha":819,"x_min":81,"x_max":769,"o":"m 443 -20 q 294 7 358 -20 q 186 79 231 34 l 113 -14 l 81 -14 l 81 283 l 117 283 q 156 180 131 228 q 220 95 181 132 q 311 39 258 59 q 431 18 363 18 q 553 42 502 18 q 633 110 605 65 q 660 218 660 154 q 631 318 660 278 q 552 389 601 359 q 443 444 502 419 q 326 498 385 469 q 217 564 267 526 q 138 658 168 603 q 108 793 108 713 q 148 931 108 872 q 254 1023 188 990 q 402 1056 321 1056 q 525 1034 468 1056 q 624 971 581 1013 l 697 1056 l 728 1056 l 728 763 l 692 763 q 635 902 674 846 q 540 987 596 959 q 415 1015 484 1015 q 271 972 320 1015 q 222 856 222 928 q 252 764 222 801 q 330 699 281 726 q 438 645 379 671 q 554 591 496 620 q 661 521 613 561 q 740 424 710 481 q 769 283 769 366 q 729 123 769 192 q 615 17 688 55 q 443 -20 541 -20 z "},"Ś":{"ha":819,"x_min":81,"x_max":769,"o":"m 443 -20 q 294 7 358 -20 q 186 79 231 34 l 113 -14 l 81 -14 l 81 283 l 117 283 q 156 180 131 228 q 220 95 181 132 q 311 39 258 59 q 431 18 363 18 q 553 42 502 18 q 633 110 605 65 q 660 218 660 154 q 631 318 660 278 q 552 389 601 359 q 443 444 502 419 q 326 498 385 469 q 217 564 267 526 q 138 658 168 603 q 108 793 108 713 q 148 931 108 872 q 254 1023 188 990 q 402 1056 321 1056 q 525 1034 468 1056 q 624 971 581 1013 l 697 1056 l 728 1056 l 728 763 l 692 763 q 635 902 674 846 q 540 987 596 959 q 415 1015 484 1015 q 271 972 320 1015 q 222 856 222 928 q 252 764 222 801 q 330 699 281 726 q 438 645 379 671 q 554 591 496 620 q 661 521 613 561 q 740 424 710 481 q 769 283 769 366 q 729 123 769 192 q 615 17 688 55 q 443 -20 541 -20 m 365 1163 l 343 1188 l 481 1340 q 516 1363 497 1360 q 552 1359 535 1367 q 577 1338 569 1352 q 585 1307 586 1324 q 574 1274 583 1289 q 547 1252 564 1259 l 365 1163 z "},"Š":{"ha":819,"x_min":81,"x_max":769,"o":"m 443 -20 q 294 7 358 -20 q 186 79 231 34 l 113 -14 l 81 -14 l 81 283 l 117 283 q 156 180 131 228 q 220 95 181 132 q 311 39 258 59 q 431 18 363 18 q 553 42 502 18 q 633 110 605 65 q 660 218 660 154 q 631 318 660 278 q 552 389 601 359 q 443 444 502 419 q 326 498 385 469 q 217 564 267 526 q 138 658 168 603 q 108 793 108 713 q 148 931 108 872 q 254 1023 188 990 q 402 1056 321 1056 q 525 1034 468 1056 q 624 971 581 1013 l 697 1056 l 728 1056 l 728 763 l 692 763 q 635 902 674 846 q 540 987 596 959 q 415 1015 484 1015 q 271 972 320 1015 q 222 856 222 928 q 252 764 222 801 q 330 699 281 726 q 438 645 379 671 q 554 591 496 620 q 661 521 613 561 q 740 424 710 481 q 769 283 769 366 q 729 123 769 192 q 615 17 688 55 q 443 -20 541 -20 m 361 1181 l 205 1344 l 224 1362 l 410 1253 l 597 1362 l 616 1344 l 460 1181 l 361 1181 z "},"Ş":{"ha":819,"x_min":81,"x_max":769,"o":"m 443 -20 q 294 7 358 -20 q 186 79 231 34 l 113 -14 l 81 -14 l 81 283 l 117 283 q 156 180 131 228 q 220 95 181 132 q 311 39 258 59 q 431 18 363 18 q 553 42 502 18 q 633 110 605 65 q 660 218 660 154 q 631 318 660 278 q 552 389 601 359 q 443 444 502 419 q 326 498 385 469 q 217 564 267 526 q 138 658 168 603 q 108 793 108 713 q 148 931 108 872 q 254 1023 188 990 q 402 1056 321 1056 q 525 1034 468 1056 q 624 971 581 1013 l 697 1056 l 728 1056 l 728 763 l 692 763 q 635 902 674 846 q 540 987 596 959 q 415 1015 484 1015 q 271 972 320 1015 q 222 856 222 928 q 252 764 222 801 q 330 699 281 726 q 438 645 379 671 q 554 591 496 620 q 661 521 613 561 q 740 424 710 481 q 769 283 769 366 q 729 123 769 192 q 615 17 688 55 q 443 -20 541 -20 m 317 -353 l 317 -317 q 414 -296 378 -317 q 449 -243 449 -276 q 429 -194 449 -211 q 376 -170 410 -177 q 300 -164 342 -164 l 422 1 l 468 1 l 386 -108 q 480 -122 440 -110 q 541 -158 519 -134 q 563 -221 563 -182 q 539 -286 563 -256 q 460 -334 515 -316 q 317 -353 406 -353 z "},"Ŝ":{"ha":819,"x_min":81,"x_max":769,"o":"m 443 -20 q 294 7 358 -20 q 186 79 231 34 l 113 -14 l 81 -14 l 81 283 l 117 283 q 156 180 131 228 q 220 95 181 132 q 311 39 258 59 q 431 18 363 18 q 553 42 502 18 q 633 110 605 65 q 660 218 660 154 q 631 318 660 278 q 552 389 601 359 q 443 444 502 419 q 326 498 385 469 q 217 564 267 526 q 138 658 168 603 q 108 793 108 713 q 148 931 108 872 q 254 1023 188 990 q 402 1056 321 1056 q 525 1034 468 1056 q 624 971 581 1013 l 697 1056 l 728 1056 l 728 763 l 692 763 q 635 902 674 846 q 540 987 596 959 q 415 1015 484 1015 q 271 972 320 1015 q 222 856 222 928 q 252 764 222 801 q 330 699 281 726 q 438 645 379 671 q 554 591 496 620 q 661 521 613 561 q 740 424 710 481 q 769 283 769 366 q 729 123 769 192 q 615 17 688 55 q 443 -20 541 -20 m 223 1174 l 205 1193 l 361 1356 l 460 1356 l 616 1193 l 597 1174 l 410 1283 l 223 1174 z "},"Ș":{"ha":819,"x_min":81,"x_max":769,"o":"m 443 -20 q 294 7 358 -20 q 186 79 231 34 l 113 -14 l 81 -14 l 81 283 l 117 283 q 156 180 131 228 q 220 95 181 132 q 311 39 258 59 q 431 18 363 18 q 553 42 502 18 q 633 110 605 65 q 660 218 660 154 q 631 318 660 278 q 552 389 601 359 q 443 444 502 419 q 326 498 385 469 q 217 564 267 526 q 138 658 168 603 q 108 793 108 713 q 148 931 108 872 q 254 1023 188 990 q 402 1056 321 1056 q 525 1034 468 1056 q 624 971 581 1013 l 697 1056 l 728 1056 l 728 763 l 692 763 q 635 902 674 846 q 540 987 596 959 q 415 1015 484 1015 q 271 972 320 1015 q 222 856 222 928 q 252 764 222 801 q 330 699 281 726 q 438 645 379 671 q 554 591 496 620 q 661 521 613 561 q 740 424 710 481 q 769 283 769 366 q 729 123 769 192 q 615 17 688 55 q 443 -20 541 -20 m 354 -452 l 354 -422 q 429 -399 396 -422 q 481 -335 463 -376 q 494 -242 499 -295 l 504 -242 q 496 -263 505 -251 q 471 -283 487 -275 q 435 -292 455 -292 q 376 -270 395 -292 q 356 -217 356 -248 q 367 -179 356 -197 q 397 -152 378 -162 q 440 -142 417 -142 q 501 -172 476 -142 q 526 -258 526 -201 q 506 -352 526 -308 q 448 -424 486 -397 q 354 -452 409 -452 z "},"ẞ":{"ha":1147,"x_min":20,"x_max":1091,"o":"m 146 0 l 146 613 q 185 802 146 719 q 296 941 225 885 q 463 1026 367 997 q 668 1056 558 1056 q 852 1031 775 1056 q 979 973 929 1006 q 1050 916 1028 940 l 760 556 q 690 569 735 564 q 601 580 644 575 l 915 963 q 811 1003 872 988 q 668 1018 751 1018 q 507 987 575 1018 q 395 900 439 956 q 330 767 351 844 q 308 598 308 690 l 308 0 l 146 0 m 20 0 l 20 37 l 433 37 l 433 0 l 20 0 m 734 -14 q 568 17 633 -14 q 470 97 502 49 q 438 198 438 146 q 465 272 438 244 q 533 299 492 299 q 593 276 569 299 q 618 211 618 252 q 606 167 618 187 q 573 136 593 147 q 530 125 553 125 q 486 135 506 125 q 452 162 465 146 q 440 198 440 178 l 476 198 q 493 130 476 161 q 542 76 510 99 q 614 40 573 53 q 703 26 656 26 q 832 59 783 26 q 901 146 880 91 q 923 268 923 201 q 917 338 923 300 q 893 411 911 375 q 841 478 876 448 q 747 526 806 508 q 601 544 688 544 l 601 580 q 851 554 754 580 q 1000 483 947 528 q 1072 383 1052 439 q 1091 269 1091 328 q 1063 147 1091 200 q 986 58 1035 94 q 873 5 938 23 q 734 -14 808 -14 z "},"T":{"ha":965,"x_min":46,"x_max":919,"o":"m 252 0 l 252 37 l 405 37 l 405 1005 l 282 1005 q 185 986 223 1005 q 125 930 147 967 q 94 842 103 894 q 83 724 85 790 l 46 724 l 46 1042 l 919 1042 l 919 724 l 883 724 q 872 842 881 790 q 841 930 863 894 q 781 986 819 967 q 683 1005 743 1005 l 560 1005 l 560 37 l 713 37 l 713 0 l 252 0 z "},"Ŧ":{"ha":963,"x_min":46,"x_max":919,"o":"m 268 494 l 268 531 l 701 531 l 701 494 l 268 494 m 252 0 l 252 37 l 405 37 l 405 1005 l 282 1005 q 185 986 223 1005 q 125 930 147 967 q 94 842 103 894 q 83 724 85 790 l 46 724 l 46 1042 l 919 1042 l 919 724 l 883 724 q 872 842 881 790 q 841 930 863 894 q 781 986 819 967 q 683 1005 743 1005 l 560 1005 l 560 37 l 713 37 l 713 0 l 252 0 z "},"Ť":{"ha":965,"x_min":46,"x_max":919,"o":"m 252 0 l 252 37 l 405 37 l 405 1005 l 282 1005 q 185 986 223 1005 q 125 930 147 967 q 94 842 103 894 q 83 724 85 790 l 46 724 l 46 1042 l 919 1042 l 919 724 l 883 724 q 872 842 881 790 q 841 930 863 894 q 781 986 819 967 q 683 1005 743 1005 l 560 1005 l 560 37 l 713 37 l 713 0 l 252 0 m 435 1181 l 279 1344 l 298 1362 l 484 1253 l 672 1362 l 690 1344 l 534 1181 l 435 1181 z "},"Ţ":{"ha":965,"x_min":46,"x_max":919,"o":"m 252 0 l 252 37 l 405 37 l 405 1005 l 282 1005 q 185 986 223 1005 q 125 930 147 967 q 94 842 103 894 q 83 724 85 790 l 46 724 l 46 1042 l 919 1042 l 919 724 l 883 724 q 872 842 881 790 q 841 930 863 894 q 781 986 819 967 q 683 1005 743 1005 l 560 1005 l 560 37 l 713 37 l 713 0 l 252 0 m 364 -348 l 364 -312 q 461 -291 426 -312 q 496 -238 496 -271 q 476 -189 496 -206 q 423 -166 457 -172 q 347 -159 390 -159 l 469 6 l 515 6 l 433 -103 q 527 -117 488 -106 q 589 -153 567 -129 q 610 -216 610 -177 q 586 -281 610 -251 q 508 -330 562 -311 q 364 -348 453 -348 z "},"Ț":{"ha":965,"x_min":46,"x_max":919,"o":"m 252 0 l 252 37 l 405 37 l 405 1005 l 282 1005 q 185 986 223 1005 q 125 930 147 967 q 94 842 103 894 q 83 724 85 790 l 46 724 l 46 1042 l 919 1042 l 919 724 l 883 724 q 872 842 881 790 q 841 930 863 894 q 781 986 819 967 q 683 1005 743 1005 l 560 1005 l 560 37 l 713 37 l 713 0 l 252 0 m 401 -447 l 401 -417 q 476 -394 443 -417 q 528 -331 510 -371 q 542 -237 546 -290 l 551 -237 q 543 -258 552 -247 q 518 -278 534 -270 q 482 -287 502 -287 q 423 -265 442 -287 q 403 -212 403 -243 q 414 -174 403 -192 q 444 -147 425 -157 q 487 -137 464 -137 q 548 -167 523 -137 q 574 -253 574 -197 q 553 -347 574 -303 q 495 -419 533 -392 q 401 -447 456 -447 z "},"U":{"ha":1028,"x_min":40,"x_max":977,"o":"m 977 1042 l 977 1005 l 848 1005 l 848 319 q 767 64 848 148 q 520 -20 686 -20 q 251 60 336 -20 q 165 319 165 140 l 165 1005 l 40 1005 l 40 1042 l 460 1042 l 460 1005 l 321 1005 l 321 333 q 331 208 321 265 q 366 110 340 151 q 437 46 391 69 q 556 24 483 24 q 693 53 636 24 q 781 147 751 82 q 812 319 812 212 l 812 1005 l 687 1005 l 687 1042 l 977 1042 z "},"Ú":{"ha":1028,"x_min":40,"x_max":977,"o":"m 977 1042 l 977 1005 l 848 1005 l 848 319 q 767 64 848 148 q 520 -20 686 -20 q 251 60 336 -20 q 165 319 165 140 l 165 1005 l 40 1005 l 40 1042 l 460 1042 l 460 1005 l 321 1005 l 321 333 q 331 208 321 265 q 366 110 340 151 q 437 46 391 69 q 556 24 483 24 q 693 53 636 24 q 781 147 751 82 q 812 319 812 212 l 812 1005 l 687 1005 l 687 1042 l 977 1042 m 503 1163 l 481 1188 l 618 1340 q 653 1363 634 1360 q 690 1359 673 1367 q 715 1338 706 1352 q 722 1307 724 1324 q 711 1274 721 1289 q 684 1252 701 1259 l 503 1163 z "},"Ŭ":{"ha":1028,"x_min":40,"x_max":977,"o":"m 977 1042 l 977 1005 l 848 1005 l 848 319 q 767 64 848 148 q 520 -20 686 -20 q 251 60 336 -20 q 165 319 165 140 l 165 1005 l 40 1005 l 40 1042 l 460 1042 l 460 1005 l 321 1005 l 321 333 q 331 208 321 265 q 366 110 340 151 q 437 46 391 69 q 556 24 483 24 q 693 53 636 24 q 781 147 751 82 q 812 319 812 212 l 812 1005 l 687 1005 l 687 1042 l 977 1042 m 546 1167 q 451 1194 485 1167 q 403 1265 417 1221 q 390 1358 390 1308 l 413 1358 q 430 1302 413 1324 q 478 1269 448 1280 q 546 1258 509 1258 q 614 1269 583 1258 q 663 1302 644 1280 q 681 1358 681 1324 l 703 1358 q 690 1265 703 1308 q 642 1194 676 1221 q 546 1167 608 1167 z "},"Û":{"ha":1028,"x_min":40,"x_max":977,"o":"m 977 1042 l 977 1005 l 848 1005 l 848 319 q 767 64 848 148 q 520 -20 686 -20 q 251 60 336 -20 q 165 319 165 140 l 165 1005 l 40 1005 l 40 1042 l 460 1042 l 460 1005 l 321 1005 l 321 333 q 331 208 321 265 q 366 110 340 151 q 437 46 391 69 q 556 24 483 24 q 693 53 636 24 q 781 147 751 82 q 812 319 812 212 l 812 1005 l 687 1005 l 687 1042 l 977 1042 m 360 1174 l 342 1193 l 498 1356 l 597 1356 l 753 1193 l 734 1174 l 547 1283 l 360 1174 z "},"Ü":{"ha":1028,"x_min":40,"x_max":977,"o":"m 977 1042 l 977 1005 l 848 1005 l 848 319 q 767 64 848 148 q 520 -20 686 -20 q 251 60 336 -20 q 165 319 165 140 l 165 1005 l 40 1005 l 40 1042 l 460 1042 l 460 1005 l 321 1005 l 321 333 q 331 208 321 265 q 366 110 340 151 q 437 46 391 69 q 556 24 483 24 q 693 53 636 24 q 781 147 751 82 q 812 319 812 212 l 812 1005 l 687 1005 l 687 1042 l 977 1042 m 663 1173 q 612 1193 633 1173 q 592 1243 592 1214 q 612 1293 592 1272 q 663 1314 633 1314 q 712 1293 692 1314 q 733 1243 733 1272 q 712 1193 733 1214 q 663 1173 692 1173 m 429 1173 q 380 1193 400 1173 q 359 1243 359 1214 q 380 1293 359 1272 q 430 1314 400 1314 q 480 1293 459 1314 q 500 1243 500 1272 q 480 1193 500 1214 q 429 1173 459 1173 z "},"Ù":{"ha":1028,"x_min":40,"x_max":977,"o":"m 977 1042 l 977 1005 l 848 1005 l 848 319 q 767 64 848 148 q 520 -20 686 -20 q 251 60 336 -20 q 165 319 165 140 l 165 1005 l 40 1005 l 40 1042 l 460 1042 l 460 1005 l 321 1005 l 321 333 q 331 208 321 265 q 366 110 340 151 q 437 46 391 69 q 556 24 483 24 q 693 53 636 24 q 781 147 751 82 q 812 319 812 212 l 812 1005 l 687 1005 l 687 1042 l 977 1042 m 591 1163 l 409 1252 q 382 1274 392 1259 q 371 1307 372 1289 q 378 1338 370 1324 q 403 1359 387 1352 q 440 1363 420 1367 q 475 1340 459 1360 l 613 1188 l 591 1163 z "},"Ű":{"ha":1028,"x_min":40,"x_max":977,"o":"m 977 1042 l 977 1005 l 848 1005 l 848 319 q 767 64 848 148 q 520 -20 686 -20 q 251 60 336 -20 q 165 319 165 140 l 165 1005 l 40 1005 l 40 1042 l 460 1042 l 460 1005 l 321 1005 l 321 333 q 331 208 321 265 q 366 110 340 151 q 437 46 391 69 q 556 24 483 24 q 693 53 636 24 q 781 147 751 82 q 812 319 812 212 l 812 1005 l 687 1005 l 687 1042 l 977 1042 m 358 1163 l 335 1188 l 473 1340 q 508 1363 489 1360 q 544 1359 528 1367 q 569 1338 561 1352 q 577 1307 578 1324 q 566 1274 576 1289 q 539 1252 556 1259 l 358 1163 m 652 1163 l 630 1188 l 767 1340 q 803 1363 783 1360 q 839 1359 822 1367 q 864 1338 856 1352 q 872 1307 873 1324 q 860 1274 870 1289 q 833 1252 851 1259 l 652 1163 z "},"Ū":{"ha":1028,"x_min":40,"x_max":977,"o":"m 977 1042 l 977 1005 l 848 1005 l 848 319 q 767 64 848 148 q 520 -20 686 -20 q 251 60 336 -20 q 165 319 165 140 l 165 1005 l 40 1005 l 40 1042 l 460 1042 l 460 1005 l 321 1005 l 321 333 q 331 208 321 265 q 366 110 340 151 q 437 46 391 69 q 556 24 483 24 q 693 53 636 24 q 781 147 751 82 q 812 319 812 212 l 812 1005 l 687 1005 l 687 1042 l 977 1042 m 380 1181 l 380 1217 l 713 1217 l 713 1181 l 380 1181 z "},"Ų":{"ha":1028,"x_min":40,"x_max":977,"o":"m 977 1042 l 977 1005 l 848 1005 l 848 319 q 767 64 848 148 q 520 -20 686 -20 q 251 60 336 -20 q 165 319 165 140 l 165 1005 l 40 1005 l 40 1042 l 460 1042 l 460 1005 l 321 1005 l 321 333 q 331 208 321 265 q 366 110 340 151 q 437 46 391 69 q 556 24 483 24 q 693 53 636 24 q 781 147 751 82 q 812 319 812 212 l 812 1005 l 687 1005 l 687 1042 l 977 1042 m 616 -297 q 542 -284 578 -297 q 483 -245 506 -272 q 460 -177 460 -219 q 480 -102 460 -135 q 530 -44 499 -69 q 597 -2 560 -19 q 668 27 633 16 l 678 6 q 642 -26 659 -4 q 615 -78 626 -48 q 605 -144 605 -108 q 622 -214 605 -187 q 672 -240 639 -240 q 722 -222 703 -240 q 755 -180 742 -204 l 779 -196 q 751 -239 769 -215 q 701 -280 733 -262 q 616 -297 669 -297 z "},"Ů":{"ha":1028,"x_min":40,"x_max":977,"o":"m 977 1042 l 977 1005 l 848 1005 l 848 319 q 767 64 848 148 q 520 -20 686 -20 q 251 60 336 -20 q 165 319 165 140 l 165 1005 l 40 1005 l 40 1042 l 460 1042 l 460 1005 l 321 1005 l 321 333 q 331 208 321 265 q 366 110 340 151 q 437 46 391 69 q 556 24 483 24 q 693 53 636 24 q 781 147 751 82 q 812 319 812 212 l 812 1005 l 687 1005 l 687 1042 l 977 1042 m 547 1167 q 455 1202 491 1167 q 418 1291 418 1238 q 455 1381 418 1344 q 547 1417 491 1417 q 639 1381 603 1417 q 676 1291 676 1344 q 639 1202 676 1238 q 547 1167 603 1167 m 547 1204 q 583 1215 568 1204 q 606 1245 598 1226 q 614 1291 614 1265 q 606 1338 614 1318 q 583 1369 598 1358 q 547 1380 568 1380 q 510 1369 525 1380 q 488 1338 495 1358 q 480 1291 480 1318 q 488 1245 480 1265 q 510 1215 495 1226 q 547 1204 525 1204 z "},"Ũ":{"ha":1028,"x_min":40,"x_max":977,"o":"m 977 1042 l 977 1005 l 848 1005 l 848 319 q 767 64 848 148 q 520 -20 686 -20 q 251 60 336 -20 q 165 319 165 140 l 165 1005 l 40 1005 l 40 1042 l 460 1042 l 460 1005 l 321 1005 l 321 333 q 331 208 321 265 q 366 110 340 151 q 437 46 391 69 q 556 24 483 24 q 693 53 636 24 q 781 147 751 82 q 812 319 812 212 l 812 1005 l 687 1005 l 687 1042 l 977 1042 m 656 1163 q 583 1179 614 1163 q 528 1217 553 1196 q 479 1256 503 1239 q 424 1272 454 1272 q 367 1251 390 1272 q 344 1181 344 1231 l 306 1181 q 328 1281 306 1240 q 383 1343 349 1322 q 453 1365 417 1365 q 527 1348 497 1365 q 580 1310 557 1331 q 624 1272 602 1288 q 672 1255 645 1255 q 731 1276 708 1255 q 753 1347 753 1297 l 790 1347 q 774 1241 790 1281 q 730 1181 759 1200 q 656 1163 700 1163 z "},"V":{"ha":1103,"x_min":44,"x_max":1058,"o":"m 1058 1042 l 1058 1005 l 938 1005 l 572 -20 l 510 -20 l 155 1005 l 44 1005 l 44 1042 l 475 1042 l 475 1005 l 334 1005 l 603 173 l 897 1005 l 731 1005 l 731 1042 l 1058 1042 z "},"W":{"ha":1456,"x_min":36,"x_max":1421,"o":"m 499 -14 l 168 1005 l 36 1005 l 36 1042 l 1081 1042 l 1081 1005 l 736 1005 l 992 209 l 1271 1005 l 1149 1005 l 1149 1042 l 1421 1042 l 1421 1005 l 1311 1005 l 955 -14 l 905 -14 l 574 1005 l 336 1005 l 593 209 l 733 604 l 753 543 l 556 -14 l 499 -14 m 834 650 l 802 677 l 923 1028 l 962 1019 l 834 650 z "},"Ẃ":{"ha":1456,"x_min":36,"x_max":1421,"o":"m 499 -14 l 168 1005 l 36 1005 l 36 1042 l 1081 1042 l 1081 1005 l 736 1005 l 992 209 l 1271 1005 l 1149 1005 l 1149 1042 l 1421 1042 l 1421 1005 l 1311 1005 l 955 -14 l 905 -14 l 574 1005 l 336 1005 l 593 209 l 733 604 l 753 543 l 556 -14 l 499 -14 m 834 650 l 802 677 l 923 1028 l 962 1019 l 834 650 m 730 1163 l 708 1188 l 845 1340 q 881 1363 861 1360 q 917 1359 900 1367 q 942 1338 933 1352 q 949 1307 951 1324 q 938 1274 948 1289 q 911 1252 928 1259 l 730 1163 z "},"Ŵ":{"ha":1456,"x_min":36,"x_max":1421,"o":"m 499 -14 l 168 1005 l 36 1005 l 36 1042 l 1081 1042 l 1081 1005 l 736 1005 l 992 209 l 1271 1005 l 1149 1005 l 1149 1042 l 1421 1042 l 1421 1005 l 1311 1005 l 955 -14 l 905 -14 l 574 1005 l 336 1005 l 593 209 l 733 604 l 753 543 l 556 -14 l 499 -14 m 834 650 l 802 677 l 923 1028 l 962 1019 l 834 650 m 588 1174 l 569 1193 l 726 1356 l 824 1356 l 981 1193 l 962 1174 l 774 1283 l 588 1174 z "},"Ẅ":{"ha":1456,"x_min":36,"x_max":1421,"o":"m 499 -14 l 168 1005 l 36 1005 l 36 1042 l 1081 1042 l 1081 1005 l 736 1005 l 992 209 l 1271 1005 l 1149 1005 l 1149 1042 l 1421 1042 l 1421 1005 l 1311 1005 l 955 -14 l 905 -14 l 574 1005 l 336 1005 l 593 209 l 733 604 l 753 543 l 556 -14 l 499 -14 m 834 650 l 802 677 l 923 1028 l 962 1019 l 834 650 m 890 1173 q 840 1193 860 1173 q 819 1243 819 1214 q 840 1293 819 1272 q 890 1314 860 1314 q 940 1293 919 1314 q 960 1243 960 1272 q 940 1193 960 1214 q 890 1173 919 1173 m 657 1173 q 607 1193 628 1173 q 587 1243 587 1214 q 607 1293 587 1272 q 658 1314 628 1314 q 707 1293 687 1314 q 728 1243 728 1272 q 707 1193 728 1214 q 657 1173 687 1173 z "},"Ẇ":{"ha":1456,"x_min":36,"x_max":1421,"o":"m 499 -14 l 168 1005 l 36 1005 l 36 1042 l 1081 1042 l 1081 1005 l 736 1005 l 992 209 l 1271 1005 l 1149 1005 l 1149 1042 l 1421 1042 l 1421 1005 l 1311 1005 l 955 -14 l 905 -14 l 574 1005 l 336 1005 l 593 209 l 733 604 l 753 543 l 556 -14 l 499 -14 m 834 650 l 802 677 l 923 1028 l 962 1019 l 834 650 m 775 1267 q 709 1295 736 1267 q 682 1361 682 1322 q 709 1427 682 1400 q 775 1454 736 1454 q 841 1427 814 1454 q 868 1361 868 1400 q 841 1295 868 1322 q 775 1267 814 1267 z "},"Ẉ":{"ha":1456,"x_min":36,"x_max":1421,"o":"m 499 -14 l 168 1005 l 36 1005 l 36 1042 l 1081 1042 l 1081 1005 l 736 1005 l 992 209 l 1271 1005 l 1149 1005 l 1149 1042 l 1421 1042 l 1421 1005 l 1311 1005 l 955 -14 l 905 -14 l 574 1005 l 336 1005 l 593 209 l 733 604 l 753 543 l 556 -14 l 499 -14 m 834 650 l 802 677 l 923 1028 l 962 1019 l 834 650 m 740 -299 q 674 -272 701 -299 q 647 -206 647 -244 q 674 -140 647 -167 q 740 -113 701 -113 q 806 -140 778 -113 q 833 -206 833 -167 q 806 -272 833 -244 q 740 -299 778 -299 z "},"Ẁ":{"ha":1456,"x_min":36,"x_max":1421,"o":"m 499 -14 l 168 1005 l 36 1005 l 36 1042 l 1081 1042 l 1081 1005 l 736 1005 l 992 209 l 1271 1005 l 1149 1005 l 1149 1042 l 1421 1042 l 1421 1005 l 1311 1005 l 955 -14 l 905 -14 l 574 1005 l 336 1005 l 593 209 l 733 604 l 753 543 l 556 -14 l 499 -14 m 834 650 l 802 677 l 923 1028 l 962 1019 l 834 650 m 818 1163 l 636 1252 q 609 1274 619 1259 q 598 1307 599 1289 q 606 1338 597 1324 q 631 1359 614 1352 q 667 1363 647 1367 q 702 1340 686 1360 l 840 1188 l 818 1163 z "},"X":{"ha":1098,"x_min":33,"x_max":1056,"o":"m 634 0 l 634 37 l 755 37 l 186 1005 l 81 1005 l 81 1042 l 493 1042 l 493 1005 l 371 1005 l 945 37 l 1056 37 l 1056 0 l 634 0 m 33 0 l 33 37 l 165 37 l 525 579 l 553 555 l 210 37 l 359 37 l 359 0 l 33 0 m 549 578 l 819 1005 l 680 1005 l 680 1042 l 979 1042 l 979 1005 l 861 1005 l 578 551 l 549 578 z "},"Y":{"ha":1038,"x_min":33,"x_max":996,"o":"m 325 0 l 325 37 l 450 37 l 450 501 l 142 1005 l 33 1005 l 33 1042 l 459 1042 l 459 1005 l 322 1005 l 585 566 l 853 1005 l 715 1005 l 715 1042 l 996 1042 l 996 1005 l 896 1005 l 606 530 l 606 37 l 744 37 l 744 0 l 325 0 z "},"Ý":{"ha":1038,"x_min":33,"x_max":996,"o":"m 325 0 l 325 37 l 450 37 l 450 501 l 142 1005 l 33 1005 l 33 1042 l 459 1042 l 459 1005 l 322 1005 l 585 566 l 853 1005 l 715 1005 l 715 1042 l 996 1042 l 996 1005 l 896 1005 l 606 530 l 606 37 l 744 37 l 744 0 l 325 0 m 501 1163 l 478 1188 l 616 1340 q 651 1363 632 1360 q 688 1359 671 1367 q 713 1338 704 1352 q 720 1307 722 1324 q 709 1274 719 1289 q 682 1252 699 1259 l 501 1163 z "},"Ŷ":{"ha":1038,"x_min":33,"x_max":996,"o":"m 325 0 l 325 37 l 450 37 l 450 501 l 142 1005 l 33 1005 l 33 1042 l 459 1042 l 459 1005 l 322 1005 l 585 566 l 853 1005 l 715 1005 l 715 1042 l 996 1042 l 996 1005 l 896 1005 l 606 530 l 606 37 l 744 37 l 744 0 l 325 0 m 358 1174 l 340 1193 l 496 1356 l 594 1356 l 751 1193 l 732 1174 l 544 1283 l 358 1174 z "},"Ÿ":{"ha":1038,"x_min":33,"x_max":996,"o":"m 325 0 l 325 37 l 450 37 l 450 501 l 142 1005 l 33 1005 l 33 1042 l 459 1042 l 459 1005 l 322 1005 l 585 566 l 853 1005 l 715 1005 l 715 1042 l 996 1042 l 996 1005 l 896 1005 l 606 530 l 606 37 l 744 37 l 744 0 l 325 0 m 660 1173 q 610 1193 631 1173 q 590 1243 590 1214 q 610 1293 590 1272 q 660 1314 631 1314 q 710 1293 690 1314 q 731 1243 731 1272 q 710 1193 731 1214 q 660 1173 690 1173 m 427 1173 q 377 1193 398 1173 q 357 1243 357 1214 q 377 1293 357 1272 q 428 1314 398 1314 q 477 1293 457 1314 q 498 1243 498 1272 q 477 1193 498 1214 q 427 1173 457 1173 z "},"Ỳ":{"ha":1038,"x_min":33,"x_max":996,"o":"m 325 0 l 325 37 l 450 37 l 450 501 l 142 1005 l 33 1005 l 33 1042 l 459 1042 l 459 1005 l 322 1005 l 585 566 l 853 1005 l 715 1005 l 715 1042 l 996 1042 l 996 1005 l 896 1005 l 606 530 l 606 37 l 744 37 l 744 0 l 325 0 m 589 1163 l 407 1252 q 380 1274 390 1259 q 369 1307 370 1289 q 376 1338 368 1324 q 401 1359 385 1352 q 438 1363 418 1367 q 473 1340 457 1360 l 610 1188 l 589 1163 z "},"Z":{"ha":833,"x_min":34,"x_max":760,"o":"m 34 0 l 34 37 l 578 1005 l 346 1005 q 200 985 251 1005 q 129 919 149 965 q 104 800 108 874 l 67 800 l 67 1042 l 752 1042 l 752 1005 l 207 37 l 482 37 q 627 58 577 37 q 698 131 678 80 q 723 269 719 181 l 760 269 l 760 0 l 34 0 z "},"Ź":{"ha":833,"x_min":34,"x_max":760,"o":"m 34 0 l 34 37 l 578 1005 l 346 1005 q 200 985 251 1005 q 129 919 149 965 q 104 800 108 874 l 67 800 l 67 1042 l 752 1042 l 752 1005 l 207 37 l 482 37 q 627 58 577 37 q 698 131 678 80 q 723 269 719 181 l 760 269 l 760 0 l 34 0 m 345 1163 l 323 1188 l 460 1340 q 496 1363 476 1360 q 532 1359 515 1367 q 557 1338 549 1352 q 565 1307 566 1324 q 553 1274 563 1289 q 526 1252 544 1259 l 345 1163 z "},"Ž":{"ha":833,"x_min":34,"x_max":760,"o":"m 34 0 l 34 37 l 578 1005 l 346 1005 q 200 985 251 1005 q 129 919 149 965 q 104 800 108 874 l 67 800 l 67 1042 l 752 1042 l 752 1005 l 207 37 l 482 37 q 627 58 577 37 q 698 131 678 80 q 723 269 719 181 l 760 269 l 760 0 l 34 0 m 340 1181 l 184 1344 l 203 1362 l 389 1253 l 576 1362 l 595 1344 l 439 1181 l 340 1181 z "},"Ż":{"ha":833,"x_min":34,"x_max":760,"o":"m 34 0 l 34 37 l 578 1005 l 346 1005 q 200 985 251 1005 q 129 919 149 965 q 104 800 108 874 l 67 800 l 67 1042 l 752 1042 l 752 1005 l 207 37 l 482 37 q 627 58 577 37 q 698 131 678 80 q 723 269 719 181 l 760 269 l 760 0 l 34 0 m 390 1267 q 324 1295 351 1267 q 297 1361 297 1322 q 324 1427 297 1400 q 390 1454 351 1454 q 456 1427 428 1454 q 483 1361 483 1400 q 456 1295 483 1322 q 390 1267 428 1267 z "},"a":{"ha":749,"x_min":61,"x_max":732,"o":"m 596 -14 q 531 -1 560 -14 q 485 39 502 12 q 468 109 468 66 l 468 423 q 459 517 468 473 q 423 588 450 560 q 340 615 395 615 q 280 609 312 615 q 220 591 248 603 q 174 557 192 578 q 156 506 156 536 l 111 506 q 137 566 111 544 q 195 589 163 589 q 257 568 229 589 q 284 509 284 547 q 256 445 284 465 q 195 424 228 424 q 134 445 159 424 q 110 506 110 467 q 132 567 110 541 q 190 612 153 594 q 273 640 227 631 q 365 650 318 650 q 516 618 464 650 q 589 534 569 585 q 608 423 608 482 l 608 91 q 616 53 608 69 q 648 38 624 38 q 683 50 663 38 q 713 80 703 61 l 732 48 q 679 4 713 22 q 596 -14 645 -14 m 259 -14 q 115 32 169 -14 q 61 158 61 78 q 142 305 61 251 q 371 360 223 360 l 533 360 l 533 328 l 383 328 q 288 305 324 328 q 233 245 251 281 q 216 172 216 210 q 227 109 216 138 q 260 63 238 81 q 317 46 283 46 q 386 69 351 46 q 445 140 422 93 q 468 255 468 186 l 490 255 q 461 115 490 176 q 381 20 433 54 q 259 -14 330 -14 z "},"á":{"ha":749,"x_min":61,"x_max":732,"o":"m 596 -14 q 531 -1 560 -14 q 485 39 502 12 q 468 109 468 66 l 468 423 q 459 517 468 473 q 423 588 450 560 q 340 615 395 615 q 280 609 312 615 q 220 591 248 603 q 174 557 192 578 q 156 506 156 536 l 111 506 q 137 566 111 544 q 195 589 163 589 q 257 568 229 589 q 284 509 284 547 q 256 445 284 465 q 195 424 228 424 q 134 445 159 424 q 110 506 110 467 q 132 567 110 541 q 190 612 153 594 q 273 640 227 631 q 365 650 318 650 q 516 618 464 650 q 589 534 569 585 q 608 423 608 482 l 608 91 q 616 53 608 69 q 648 38 624 38 q 683 50 663 38 q 713 80 703 61 l 732 48 q 679 4 713 22 q 596 -14 645 -14 m 259 -14 q 115 32 169 -14 q 61 158 61 78 q 142 305 61 251 q 371 360 223 360 l 533 360 l 533 328 l 383 328 q 288 305 324 328 q 233 245 251 281 q 216 172 216 210 q 227 109 216 138 q 260 63 238 81 q 317 46 283 46 q 386 69 351 46 q 445 140 422 93 q 468 255 468 186 l 490 255 q 461 115 490 176 q 381 20 433 54 q 259 -14 330 -14 m 320 760 l 298 785 l 435 938 q 471 960 451 957 q 507 957 490 964 q 532 935 524 949 q 540 904 541 922 q 528 871 538 886 q 501 849 519 856 l 320 760 z "},"ă":{"ha":749,"x_min":61,"x_max":732,"o":"m 596 -14 q 531 -1 560 -14 q 485 39 502 12 q 468 109 468 66 l 468 423 q 459 517 468 473 q 423 588 450 560 q 340 615 395 615 q 280 609 312 615 q 220 591 248 603 q 174 557 192 578 q 156 506 156 536 l 111 506 q 137 566 111 544 q 195 589 163 589 q 257 568 229 589 q 284 509 284 547 q 256 445 284 465 q 195 424 228 424 q 134 445 159 424 q 110 506 110 467 q 132 567 110 541 q 190 612 153 594 q 273 640 227 631 q 365 650 318 650 q 516 618 464 650 q 589 534 569 585 q 608 423 608 482 l 608 91 q 616 53 608 69 q 648 38 624 38 q 683 50 663 38 q 713 80 703 61 l 732 48 q 679 4 713 22 q 596 -14 645 -14 m 259 -14 q 115 32 169 -14 q 61 158 61 78 q 142 305 61 251 q 371 360 223 360 l 533 360 l 533 328 l 383 328 q 288 305 324 328 q 233 245 251 281 q 216 172 216 210 q 227 109 216 138 q 260 63 238 81 q 317 46 283 46 q 386 69 351 46 q 445 140 422 93 q 468 255 468 186 l 490 255 q 461 115 490 176 q 381 20 433 54 q 259 -14 330 -14 m 364 764 q 269 791 303 764 q 222 862 235 818 q 208 955 208 906 l 231 955 q 248 899 231 922 q 297 866 266 877 q 364 856 327 856 q 432 866 401 856 q 481 899 463 877 q 499 955 499 922 l 522 955 q 508 862 522 906 q 460 791 494 818 q 364 764 426 764 z "},"â":{"ha":749,"x_min":61,"x_max":732,"o":"m 596 -14 q 531 -1 560 -14 q 485 39 502 12 q 468 109 468 66 l 468 423 q 459 517 468 473 q 423 588 450 560 q 340 615 395 615 q 280 609 312 615 q 220 591 248 603 q 174 557 192 578 q 156 506 156 536 l 111 506 q 137 566 111 544 q 195 589 163 589 q 257 568 229 589 q 284 509 284 547 q 256 445 284 465 q 195 424 228 424 q 134 445 159 424 q 110 506 110 467 q 132 567 110 541 q 190 612 153 594 q 273 640 227 631 q 365 650 318 650 q 516 618 464 650 q 589 534 569 585 q 608 423 608 482 l 608 91 q 616 53 608 69 q 648 38 624 38 q 683 50 663 38 q 713 80 703 61 l 732 48 q 679 4 713 22 q 596 -14 645 -14 m 259 -14 q 115 32 169 -14 q 61 158 61 78 q 142 305 61 251 q 371 360 223 360 l 533 360 l 533 328 l 383 328 q 288 305 324 328 q 233 245 251 281 q 216 172 216 210 q 227 109 216 138 q 260 63 238 81 q 317 46 283 46 q 386 69 351 46 q 445 140 422 93 q 468 255 468 186 l 490 255 q 461 115 490 176 q 381 20 433 54 q 259 -14 330 -14 m 178 772 l 160 790 l 316 953 l 415 953 l 571 790 l 552 772 l 365 881 l 178 772 z "},"ä":{"ha":749,"x_min":61,"x_max":732,"o":"m 596 -14 q 531 -1 560 -14 q 485 39 502 12 q 468 109 468 66 l 468 423 q 459 517 468 473 q 423 588 450 560 q 340 615 395 615 q 280 609 312 615 q 220 591 248 603 q 174 557 192 578 q 156 506 156 536 l 111 506 q 137 566 111 544 q 195 589 163 589 q 257 568 229 589 q 284 509 284 547 q 256 445 284 465 q 195 424 228 424 q 134 445 159 424 q 110 506 110 467 q 132 567 110 541 q 190 612 153 594 q 273 640 227 631 q 365 650 318 650 q 516 618 464 650 q 589 534 569 585 q 608 423 608 482 l 608 91 q 616 53 608 69 q 648 38 624 38 q 683 50 663 38 q 713 80 703 61 l 732 48 q 679 4 713 22 q 596 -14 645 -14 m 259 -14 q 115 32 169 -14 q 61 158 61 78 q 142 305 61 251 q 371 360 223 360 l 533 360 l 533 328 l 383 328 q 288 305 324 328 q 233 245 251 281 q 216 172 216 210 q 227 109 216 138 q 260 63 238 81 q 317 46 283 46 q 386 69 351 46 q 445 140 422 93 q 468 255 468 186 l 490 255 q 461 115 490 176 q 381 20 433 54 q 259 -14 330 -14 m 481 770 q 430 791 451 770 q 410 840 410 811 q 430 890 410 869 q 481 911 451 911 q 530 890 510 911 q 551 840 551 869 q 530 791 551 811 q 481 770 510 770 m 247 770 q 198 791 218 770 q 177 840 177 811 q 198 890 177 869 q 248 911 218 911 q 298 890 277 911 q 318 840 318 869 q 298 791 318 811 q 247 770 277 770 z "},"à":{"ha":749,"x_min":61,"x_max":732,"o":"m 596 -14 q 531 -1 560 -14 q 485 39 502 12 q 468 109 468 66 l 468 423 q 459 517 468 473 q 423 588 450 560 q 340 615 395 615 q 280 609 312 615 q 220 591 248 603 q 174 557 192 578 q 156 506 156 536 l 111 506 q 137 566 111 544 q 195 589 163 589 q 257 568 229 589 q 284 509 284 547 q 256 445 284 465 q 195 424 228 424 q 134 445 159 424 q 110 506 110 467 q 132 567 110 541 q 190 612 153 594 q 273 640 227 631 q 365 650 318 650 q 516 618 464 650 q 589 534 569 585 q 608 423 608 482 l 608 91 q 616 53 608 69 q 648 38 624 38 q 683 50 663 38 q 713 80 703 61 l 732 48 q 679 4 713 22 q 596 -14 645 -14 m 259 -14 q 115 32 169 -14 q 61 158 61 78 q 142 305 61 251 q 371 360 223 360 l 533 360 l 533 328 l 383 328 q 288 305 324 328 q 233 245 251 281 q 216 172 216 210 q 227 109 216 138 q 260 63 238 81 q 317 46 283 46 q 386 69 351 46 q 445 140 422 93 q 468 255 468 186 l 490 255 q 461 115 490 176 q 381 20 433 54 q 259 -14 330 -14 m 409 760 l 227 849 q 200 871 210 856 q 189 904 190 886 q 197 935 188 922 q 222 957 205 949 q 258 960 238 964 q 293 938 277 957 l 431 785 l 409 760 z "},"ā":{"ha":749,"x_min":61,"x_max":732,"o":"m 596 -14 q 531 -1 560 -14 q 485 39 502 12 q 468 109 468 66 l 468 423 q 459 517 468 473 q 423 588 450 560 q 340 615 395 615 q 280 609 312 615 q 220 591 248 603 q 174 557 192 578 q 156 506 156 536 l 111 506 q 137 566 111 544 q 195 589 163 589 q 257 568 229 589 q 284 509 284 547 q 256 445 284 465 q 195 424 228 424 q 134 445 159 424 q 110 506 110 467 q 132 567 110 541 q 190 612 153 594 q 273 640 227 631 q 365 650 318 650 q 516 618 464 650 q 589 534 569 585 q 608 423 608 482 l 608 91 q 616 53 608 69 q 648 38 624 38 q 683 50 663 38 q 713 80 703 61 l 732 48 q 679 4 713 22 q 596 -14 645 -14 m 259 -14 q 115 32 169 -14 q 61 158 61 78 q 142 305 61 251 q 371 360 223 360 l 533 360 l 533 328 l 383 328 q 288 305 324 328 q 233 245 251 281 q 216 172 216 210 q 227 109 216 138 q 260 63 238 81 q 317 46 283 46 q 386 69 351 46 q 445 140 422 93 q 468 255 468 186 l 490 255 q 461 115 490 176 q 381 20 433 54 q 259 -14 330 -14 m 198 778 l 198 814 l 531 814 l 531 778 l 198 778 z "},"ą":{"ha":749,"x_min":61,"x_max":783,"o":"m 596 -14 q 531 -1 560 -14 q 485 39 502 12 q 468 109 468 66 l 468 423 q 459 517 468 473 q 423 588 450 560 q 340 615 395 615 q 280 609 312 615 q 220 591 248 603 q 174 557 192 578 q 156 506 156 536 l 111 506 q 137 566 111 544 q 195 589 163 589 q 257 568 229 589 q 284 509 284 547 q 256 445 284 465 q 195 424 228 424 q 134 445 159 424 q 110 506 110 467 q 132 567 110 541 q 190 612 153 594 q 273 640 227 631 q 365 650 318 650 q 516 618 464 650 q 589 534 569 585 q 608 423 608 482 l 608 91 q 616 53 608 69 q 648 38 624 38 q 683 50 663 38 q 713 80 703 61 l 732 48 q 679 4 713 22 q 596 -14 645 -14 m 259 -14 q 115 32 169 -14 q 61 158 61 78 q 142 305 61 251 q 371 360 223 360 l 533 360 l 533 328 l 383 328 q 288 305 324 328 q 233 245 251 281 q 216 172 216 210 q 227 109 216 138 q 260 63 238 81 q 317 46 283 46 q 386 69 351 46 q 445 140 422 93 q 468 255 468 186 l 490 255 q 461 115 490 176 q 381 20 433 54 q 259 -14 330 -14 m 620 -297 q 546 -284 582 -297 q 488 -245 510 -272 q 465 -177 465 -219 q 484 -102 465 -135 q 534 -44 503 -69 q 601 -2 565 -19 q 672 27 638 16 l 683 6 q 647 -26 663 -4 q 619 -78 630 -48 q 609 -144 609 -108 q 626 -214 609 -187 q 676 -240 643 -240 q 726 -222 707 -240 q 759 -180 746 -204 l 783 -196 q 755 -239 773 -215 q 705 -280 737 -262 q 620 -297 673 -297 z "},"å":{"ha":749,"x_min":61,"x_max":732,"o":"m 596 -14 q 531 -1 560 -14 q 485 39 502 12 q 468 109 468 66 l 468 423 q 459 517 468 473 q 423 588 450 560 q 340 615 395 615 q 280 609 312 615 q 220 591 248 603 q 174 557 192 578 q 156 506 156 536 l 111 506 q 137 566 111 544 q 195 589 163 589 q 257 568 229 589 q 284 509 284 547 q 256 445 284 465 q 195 424 228 424 q 134 445 159 424 q 110 506 110 467 q 132 567 110 541 q 190 612 153 594 q 273 640 227 631 q 365 650 318 650 q 516 618 464 650 q 589 534 569 585 q 608 423 608 482 l 608 91 q 616 53 608 69 q 648 38 624 38 q 683 50 663 38 q 713 80 703 61 l 732 48 q 679 4 713 22 q 596 -14 645 -14 m 259 -14 q 115 32 169 -14 q 61 158 61 78 q 142 305 61 251 q 371 360 223 360 l 533 360 l 533 328 l 383 328 q 288 305 324 328 q 233 245 251 281 q 216 172 216 210 q 227 109 216 138 q 260 63 238 81 q 317 46 283 46 q 386 69 351 46 q 445 140 422 93 q 468 255 468 186 l 490 255 q 461 115 490 176 q 381 20 433 54 q 259 -14 330 -14 m 365 764 q 273 800 309 764 q 236 888 236 835 q 273 978 236 942 q 365 1014 309 1014 q 457 978 421 1014 q 494 888 494 942 q 457 800 494 835 q 365 764 421 764 m 365 801 q 401 812 386 801 q 424 842 416 823 q 432 888 432 862 q 424 935 432 915 q 401 966 416 955 q 365 977 386 977 q 328 966 343 977 q 306 935 313 955 q 298 888 298 915 q 306 842 298 862 q 328 812 313 823 q 365 801 343 801 z "},"ã":{"ha":749,"x_min":61,"x_max":732,"o":"m 596 -14 q 531 -1 560 -14 q 485 39 502 12 q 468 109 468 66 l 468 423 q 459 517 468 473 q 423 588 450 560 q 340 615 395 615 q 280 609 312 615 q 220 591 248 603 q 174 557 192 578 q 156 506 156 536 l 111 506 q 137 566 111 544 q 195 589 163 589 q 257 568 229 589 q 284 509 284 547 q 256 445 284 465 q 195 424 228 424 q 134 445 159 424 q 110 506 110 467 q 132 567 110 541 q 190 612 153 594 q 273 640 227 631 q 365 650 318 650 q 516 618 464 650 q 589 534 569 585 q 608 423 608 482 l 608 91 q 616 53 608 69 q 648 38 624 38 q 683 50 663 38 q 713 80 703 61 l 732 48 q 679 4 713 22 q 596 -14 645 -14 m 259 -14 q 115 32 169 -14 q 61 158 61 78 q 142 305 61 251 q 371 360 223 360 l 533 360 l 533 328 l 383 328 q 288 305 324 328 q 233 245 251 281 q 216 172 216 210 q 227 109 216 138 q 260 63 238 81 q 317 46 283 46 q 386 69 351 46 q 445 140 422 93 q 468 255 468 186 l 490 255 q 461 115 490 176 q 381 20 433 54 q 259 -14 330 -14 m 475 760 q 402 776 433 760 q 347 815 372 793 q 298 853 322 836 q 242 869 273 869 q 186 849 209 869 q 163 778 163 828 l 125 778 q 147 878 125 837 q 202 941 168 919 q 272 962 235 962 q 346 945 316 962 q 398 907 376 928 q 442 869 421 885 q 491 852 464 852 q 549 873 527 852 q 572 944 572 894 l 608 944 q 593 838 608 878 q 548 778 578 797 q 475 760 519 760 z "},"æ":{"ha":1123,"x_min":61,"x_max":1073,"o":"m 294 -14 q 212 -5 253 -14 q 137 23 171 3 q 82 76 103 42 q 61 158 61 109 q 97 263 61 216 q 200 338 132 310 q 367 366 268 366 l 455 366 l 455 423 q 451 492 455 458 q 434 553 447 526 q 397 598 422 581 q 331 615 372 615 q 282 610 307 615 q 235 594 258 604 q 193 568 212 583 q 163 535 175 553 q 183 563 172 550 q 205 584 194 575 q 259 562 236 584 q 283 509 283 540 q 252 445 283 465 q 191 424 222 424 q 133 445 156 424 q 110 506 110 467 q 146 584 110 552 q 239 633 182 617 q 360 650 297 650 q 467 632 426 650 q 530 585 508 615 q 560 519 551 556 l 545 517 q 638 617 578 583 q 781 652 697 652 q 942 612 881 652 q 1033 507 1004 572 q 1061 366 1061 442 l 634 366 q 633 343 633 355 q 633 321 633 332 q 640 207 633 260 q 667 113 648 153 q 719 50 686 73 q 803 27 752 27 q 948 69 890 27 q 1032 178 1006 111 l 1073 178 q 976 41 1046 95 q 790 -14 906 -14 q 627 33 694 -14 q 528 169 560 81 l 542 170 q 494 68 528 109 q 410 7 460 27 q 294 -14 359 -14 m 329 40 q 392 63 364 40 q 438 133 421 86 q 455 251 455 180 l 455 331 l 378 331 q 292 308 326 331 q 240 250 257 285 q 222 174 222 215 q 252 70 222 100 q 329 40 283 40 m 636 403 l 897 403 q 893 474 897 437 q 878 544 890 512 q 843 597 867 576 q 781 617 820 617 q 701 588 731 617 q 656 511 671 560 q 636 403 641 463 z "},"b":{"ha":863,"x_min":48,"x_max":794,"o":"m 510 -14 q 371 39 429 -14 q 286 178 313 92 l 286 0 l 48 0 l 48 37 l 142 37 l 142 1005 l 48 1005 l 48 1042 l 286 1042 l 286 460 q 371 599 313 547 q 510 651 429 651 q 647 612 583 651 q 753 498 712 572 q 794 319 794 424 q 753 141 794 215 q 647 26 712 66 q 510 -14 583 -14 m 477 36 q 560 68 525 36 q 613 162 594 99 q 631 319 631 225 q 613 476 631 414 q 560 570 594 539 q 477 601 525 601 q 385 568 429 601 q 314 471 342 534 q 286 319 286 408 q 314 167 286 231 q 385 70 342 104 q 477 36 429 36 z "},"c":{"ha":717,"x_min":69,"x_max":650,"o":"m 392 -14 q 227 25 300 -14 q 111 138 154 64 q 69 319 69 213 q 107 488 69 413 q 217 608 144 563 q 396 653 290 653 q 524 628 470 653 q 608 566 578 604 q 638 486 638 528 q 613 422 638 444 q 553 399 588 399 q 513 407 533 399 q 478 435 492 416 q 464 485 464 454 q 491 546 464 524 q 553 567 517 567 q 611 547 586 567 q 636 486 636 526 l 600 486 q 584 538 600 514 q 540 579 567 562 q 481 605 513 596 q 418 615 449 615 q 326 587 362 615 q 272 516 291 560 q 246 420 253 472 q 239 319 239 369 q 247 207 239 260 q 275 116 256 155 q 328 54 294 76 q 413 31 362 31 q 504 50 466 31 q 567 102 542 69 q 611 178 593 135 l 650 178 q 562 40 623 94 q 392 -14 501 -14 z "},"ć":{"ha":717,"x_min":69,"x_max":650,"o":"m 392 -14 q 227 25 300 -14 q 111 138 154 64 q 69 319 69 213 q 107 488 69 413 q 217 608 144 563 q 396 653 290 653 q 524 628 470 653 q 608 566 578 604 q 638 486 638 528 q 613 422 638 444 q 553 399 588 399 q 513 407 533 399 q 478 435 492 416 q 464 485 464 454 q 491 546 464 524 q 553 567 517 567 q 611 547 586 567 q 636 486 636 526 l 600 486 q 584 538 600 514 q 540 579 567 562 q 481 605 513 596 q 418 615 449 615 q 326 587 362 615 q 272 516 291 560 q 246 420 253 472 q 239 319 239 369 q 247 207 239 260 q 275 116 256 155 q 328 54 294 76 q 413 31 362 31 q 504 50 466 31 q 567 102 542 69 q 611 178 593 135 l 650 178 q 562 40 623 94 q 392 -14 501 -14 m 353 760 l 331 785 l 469 938 q 504 960 485 957 q 540 957 524 964 q 565 935 557 949 q 573 904 574 922 q 562 871 572 886 q 535 849 552 856 l 353 760 z "},"č":{"ha":717,"x_min":69,"x_max":650,"o":"m 392 -14 q 227 25 300 -14 q 111 138 154 64 q 69 319 69 213 q 107 488 69 413 q 217 608 144 563 q 396 653 290 653 q 524 628 470 653 q 608 566 578 604 q 638 486 638 528 q 613 422 638 444 q 553 399 588 399 q 513 407 533 399 q 478 435 492 416 q 464 485 464 454 q 491 546 464 524 q 553 567 517 567 q 611 547 586 567 q 636 486 636 526 l 600 486 q 584 538 600 514 q 540 579 567 562 q 481 605 513 596 q 418 615 449 615 q 326 587 362 615 q 272 516 291 560 q 246 420 253 472 q 239 319 239 369 q 247 207 239 260 q 275 116 256 155 q 328 54 294 76 q 413 31 362 31 q 504 50 466 31 q 567 102 542 69 q 611 178 593 135 l 650 178 q 562 40 623 94 q 392 -14 501 -14 m 348 778 l 192 941 l 210 959 l 397 850 l 584 959 l 603 941 l 447 778 l 348 778 z "},"ç":{"ha":717,"x_min":69,"x_max":650,"o":"m 392 -14 q 227 25 300 -14 q 111 138 154 64 q 69 319 69 213 q 107 488 69 413 q 217 608 144 563 q 396 653 290 653 q 524 628 470 653 q 608 566 578 604 q 638 486 638 528 q 613 422 638 444 q 553 399 588 399 q 513 407 533 399 q 478 435 492 416 q 464 485 464 454 q 491 546 464 524 q 553 567 517 567 q 611 547 586 567 q 636 486 636 526 l 600 486 q 584 538 600 514 q 540 579 567 562 q 481 605 513 596 q 418 615 449 615 q 326 587 362 615 q 272 516 291 560 q 246 420 253 472 q 239 319 239 369 q 247 207 239 260 q 275 116 256 155 q 328 54 294 76 q 413 31 362 31 q 504 50 466 31 q 567 102 542 69 q 611 178 593 135 l 650 178 q 562 40 623 94 q 392 -14 501 -14 m 263 -350 l 263 -314 q 360 -293 325 -314 q 395 -240 395 -273 q 376 -191 395 -208 q 323 -168 356 -174 q 247 -161 289 -161 l 369 3 l 415 3 l 333 -106 q 426 -119 387 -108 q 488 -155 466 -131 q 510 -218 510 -179 q 485 -283 510 -253 q 407 -332 461 -313 q 263 -350 353 -350 z "},"ĉ":{"ha":717,"x_min":69,"x_max":650,"o":"m 392 -14 q 227 25 300 -14 q 111 138 154 64 q 69 319 69 213 q 107 488 69 413 q 217 608 144 563 q 396 653 290 653 q 524 628 470 653 q 608 566 578 604 q 638 486 638 528 q 613 422 638 444 q 553 399 588 399 q 513 407 533 399 q 478 435 492 416 q 464 485 464 454 q 491 546 464 524 q 553 567 517 567 q 611 547 586 567 q 636 486 636 526 l 600 486 q 584 538 600 514 q 540 579 567 562 q 481 605 513 596 q 418 615 449 615 q 326 587 362 615 q 272 516 291 560 q 246 420 253 472 q 239 319 239 369 q 247 207 239 260 q 275 116 256 155 q 328 54 294 76 q 413 31 362 31 q 504 50 466 31 q 567 102 542 69 q 611 178 593 135 l 650 178 q 562 40 623 94 q 392 -14 501 -14 m 210 772 l 192 790 l 348 953 l 447 953 l 603 790 l 584 772 l 397 881 l 210 772 z "},"ċ":{"ha":717,"x_min":69,"x_max":650,"o":"m 392 -14 q 227 25 300 -14 q 111 138 154 64 q 69 319 69 213 q 107 488 69 413 q 217 608 144 563 q 396 653 290 653 q 524 628 470 653 q 608 566 578 604 q 638 486 638 528 q 613 422 638 444 q 553 399 588 399 q 513 407 533 399 q 478 435 492 416 q 464 485 464 454 q 491 546 464 524 q 553 567 517 567 q 611 547 586 567 q 636 486 636 526 l 600 486 q 584 538 600 514 q 540 579 567 562 q 481 605 513 596 q 418 615 449 615 q 326 587 362 615 q 272 516 291 560 q 246 420 253 472 q 239 319 239 369 q 247 207 239 260 q 275 116 256 155 q 328 54 294 76 q 413 31 362 31 q 504 50 466 31 q 567 102 542 69 q 611 178 593 135 l 650 178 q 562 40 623 94 q 392 -14 501 -14 m 397 865 q 331 892 358 865 q 304 958 304 919 q 331 1024 304 997 q 397 1051 358 1051 q 463 1024 436 1051 q 490 958 490 997 q 463 892 490 919 q 397 865 436 865 z "},"d":{"ha":863,"x_min":69,"x_max":815,"o":"m 353 -13 q 216 26 281 -13 q 110 140 151 66 q 69 319 69 215 q 110 498 69 423 q 216 612 151 572 q 353 652 281 652 q 492 599 435 652 q 576 459 549 547 l 576 1005 l 482 1005 l 482 1042 l 721 1042 l 721 37 l 815 37 l 815 0 l 576 0 l 576 178 q 492 39 549 91 q 353 -13 435 -13 m 386 37 q 477 70 434 37 q 549 167 521 104 q 576 319 576 230 q 549 471 576 408 q 477 568 521 534 q 386 601 434 601 q 303 570 338 601 q 251 476 269 539 q 233 319 233 413 q 251 162 233 224 q 303 68 269 99 q 386 37 338 37 z "},"ð":{"ha":797,"x_min":42,"x_max":755,"o":"m 379 -14 q 197 33 272 -14 q 82 161 122 80 q 42 347 42 243 q 70 499 42 436 q 143 603 97 563 q 243 662 188 643 q 352 681 297 681 q 493 643 440 681 q 570 538 547 604 q 594 390 594 472 l 564 390 q 543 524 564 470 q 483 605 522 578 q 385 631 443 631 q 310 615 343 631 q 253 563 276 598 q 218 474 230 528 q 206 347 206 421 q 213 226 206 284 q 238 122 219 167 q 289 49 256 76 q 374 23 322 23 q 463 52 427 23 q 522 133 499 81 q 554 250 544 184 q 564 390 564 317 l 559 512 q 540 656 559 583 q 484 794 520 728 q 396 911 447 860 q 282 992 345 963 q 146 1022 219 1022 l 146 1056 q 370 1008 265 1056 q 556 874 476 960 q 682 675 637 788 q 728 431 728 562 q 685 186 728 285 q 564 36 642 87 q 379 -14 486 -14 m 162 840 l 162 876 l 755 876 l 755 839 l 162 840 z "},"ď":{"ha":863,"x_min":69,"x_max":1022,"o":"m 353 -13 q 216 26 281 -13 q 110 140 151 66 q 69 319 69 215 q 110 498 69 423 q 216 612 151 572 q 353 652 281 652 q 492 599 435 652 q 576 459 549 547 l 576 1005 l 482 1005 l 482 1042 l 721 1042 l 721 37 l 815 37 l 815 0 l 576 0 l 576 178 q 492 39 549 91 q 353 -13 435 -13 m 386 37 q 477 70 434 37 q 549 167 521 104 q 576 319 576 230 q 549 471 576 408 q 477 568 521 534 q 386 601 434 601 q 303 570 338 601 q 251 476 269 539 q 233 319 233 413 q 251 162 233 224 q 303 68 269 99 q 386 37 338 37 m 819 678 l 819 714 q 888 730 856 714 q 941 774 919 745 q 975 841 964 802 q 982 927 986 881 l 993 927 q 984 903 994 917 q 955 880 974 890 q 913 869 937 869 q 844 895 867 869 q 822 956 822 921 q 850 1018 822 993 q 919 1044 878 1044 q 991 1009 962 1044 q 1021 908 1021 974 q 997 797 1021 850 q 928 711 974 744 q 819 678 883 678 z "},"đ":{"ha":863,"x_min":69,"x_max":833,"o":"m 382 774 l 382 810 l 833 810 l 833 774 l 382 774 m 353 -13 q 216 26 281 -13 q 110 140 151 66 q 69 319 69 215 q 110 498 69 423 q 216 612 151 572 q 353 652 281 652 q 492 599 435 652 q 576 459 549 547 l 576 1005 l 482 1005 l 482 1042 l 721 1042 l 721 37 l 815 37 l 815 0 l 576 0 l 576 178 q 492 39 549 91 q 353 -13 435 -13 m 386 37 q 477 70 434 37 q 549 167 521 104 q 576 319 576 230 q 549 471 576 408 q 477 568 521 534 q 386 601 434 601 q 303 570 338 601 q 251 476 269 539 q 233 319 233 413 q 251 162 233 224 q 303 68 269 99 q 386 37 338 37 z "},"e":{"ha":730,"x_min":69,"x_max":667,"o":"m 388 -14 q 225 26 297 -14 q 111 140 153 65 q 69 319 69 215 q 108 499 69 424 q 218 613 148 574 q 378 652 288 652 q 539 612 478 652 q 627 507 600 572 q 655 366 655 442 l 163 366 l 163 402 l 492 402 q 488 474 491 437 q 474 544 485 512 q 441 596 463 576 q 378 616 418 616 q 305 593 333 616 q 259 530 276 570 q 237 436 243 489 q 231 324 231 383 q 238 208 231 262 q 265 114 246 154 q 317 50 284 73 q 401 27 350 27 q 544 69 488 27 q 626 178 599 111 l 667 178 q 572 41 640 95 q 388 -14 503 -14 z "},"é":{"ha":730,"x_min":69,"x_max":667,"o":"m 388 -14 q 225 26 297 -14 q 111 140 153 65 q 69 319 69 215 q 108 499 69 424 q 218 613 148 574 q 378 652 288 652 q 539 612 478 652 q 627 507 600 572 q 655 366 655 442 l 163 366 l 163 402 l 492 402 q 488 474 491 437 q 474 544 485 512 q 441 596 463 576 q 378 616 418 616 q 305 593 333 616 q 259 530 276 570 q 237 436 243 489 q 231 324 231 383 q 238 208 231 262 q 265 114 246 154 q 317 50 284 73 q 401 27 350 27 q 544 69 488 27 q 626 178 599 111 l 667 178 q 572 41 640 95 q 388 -14 503 -14 m 331 760 l 308 785 l 446 938 q 481 960 462 957 q 517 957 501 964 q 542 935 534 949 q 550 904 551 922 q 539 871 549 886 q 512 849 529 856 l 331 760 z "},"ĕ":{"ha":730,"x_min":69,"x_max":667,"o":"m 388 -14 q 225 26 297 -14 q 111 140 153 65 q 69 319 69 215 q 108 499 69 424 q 218 613 148 574 q 378 652 288 652 q 539 612 478 652 q 627 507 600 572 q 655 366 655 442 l 163 366 l 163 402 l 492 402 q 488 474 491 437 q 474 544 485 512 q 441 596 463 576 q 378 616 418 616 q 305 593 333 616 q 259 530 276 570 q 237 436 243 489 q 231 324 231 383 q 238 208 231 262 q 265 114 246 154 q 317 50 284 73 q 401 27 350 27 q 544 69 488 27 q 626 178 599 111 l 667 178 q 572 41 640 95 q 388 -14 503 -14 m 375 764 q 280 791 314 764 q 233 862 246 818 q 219 955 219 906 l 242 955 q 259 899 242 922 q 308 866 277 877 q 375 856 338 856 q 443 866 413 856 q 492 899 474 877 q 510 955 510 922 l 533 955 q 519 862 533 906 q 471 791 506 818 q 375 764 437 764 z "},"ě":{"ha":730,"x_min":69,"x_max":667,"o":"m 388 -14 q 225 26 297 -14 q 111 140 153 65 q 69 319 69 215 q 108 499 69 424 q 218 613 148 574 q 378 652 288 652 q 539 612 478 652 q 627 507 600 572 q 655 366 655 442 l 163 366 l 163 402 l 492 402 q 488 474 491 437 q 474 544 485 512 q 441 596 463 576 q 378 616 418 616 q 305 593 333 616 q 259 530 276 570 q 237 436 243 489 q 231 324 231 383 q 238 208 231 262 q 265 114 246 154 q 317 50 284 73 q 401 27 350 27 q 544 69 488 27 q 626 178 599 111 l 667 178 q 572 41 640 95 q 388 -14 503 -14 m 326 778 l 170 941 l 189 959 l 375 850 l 563 959 l 581 941 l 425 778 l 326 778 z "},"ê":{"ha":730,"x_min":69,"x_max":667,"o":"m 388 -14 q 225 26 297 -14 q 111 140 153 65 q 69 319 69 215 q 108 499 69 424 q 218 613 148 574 q 378 652 288 652 q 539 612 478 652 q 627 507 600 572 q 655 366 655 442 l 163 366 l 163 402 l 492 402 q 488 474 491 437 q 474 544 485 512 q 441 596 463 576 q 378 616 418 616 q 305 593 333 616 q 259 530 276 570 q 237 436 243 489 q 231 324 231 383 q 238 208 231 262 q 265 114 246 154 q 317 50 284 73 q 401 27 350 27 q 544 69 488 27 q 626 178 599 111 l 667 178 q 572 41 640 95 q 388 -14 503 -14 m 188 772 l 170 790 l 326 953 l 425 953 l 581 790 l 563 772 l 375 881 l 188 772 z "},"ë":{"ha":730,"x_min":69,"x_max":667,"o":"m 388 -14 q 225 26 297 -14 q 111 140 153 65 q 69 319 69 215 q 108 499 69 424 q 218 613 148 574 q 378 652 288 652 q 539 612 478 652 q 627 507 600 572 q 655 366 655 442 l 163 366 l 163 402 l 492 402 q 488 474 491 437 q 474 544 485 512 q 441 596 463 576 q 378 616 418 616 q 305 593 333 616 q 259 530 276 570 q 237 436 243 489 q 231 324 231 383 q 238 208 231 262 q 265 114 246 154 q 317 50 284 73 q 401 27 350 27 q 544 69 488 27 q 626 178 599 111 l 667 178 q 572 41 640 95 q 388 -14 503 -14 m 491 770 q 441 791 461 770 q 420 840 420 811 q 441 890 420 869 q 491 911 461 911 q 541 890 520 911 q 561 840 561 869 q 541 791 561 811 q 491 770 520 770 m 258 770 q 208 791 228 770 q 188 840 188 811 q 208 890 188 869 q 258 911 228 911 q 308 890 288 911 q 328 840 328 869 q 308 791 328 811 q 258 770 288 770 z "},"ė":{"ha":730,"x_min":69,"x_max":667,"o":"m 388 -14 q 225 26 297 -14 q 111 140 153 65 q 69 319 69 215 q 108 499 69 424 q 218 613 148 574 q 378 652 288 652 q 539 612 478 652 q 627 507 600 572 q 655 366 655 442 l 163 366 l 163 402 l 492 402 q 488 474 491 437 q 474 544 485 512 q 441 596 463 576 q 378 616 418 616 q 305 593 333 616 q 259 530 276 570 q 237 436 243 489 q 231 324 231 383 q 238 208 231 262 q 265 114 246 154 q 317 50 284 73 q 401 27 350 27 q 544 69 488 27 q 626 178 599 111 l 667 178 q 572 41 640 95 q 388 -14 503 -14 m 376 865 q 310 892 337 865 q 283 958 283 919 q 310 1024 283 997 q 376 1051 337 1051 q 442 1024 415 1051 q 469 958 469 997 q 442 892 469 919 q 376 865 415 865 z "},"è":{"ha":730,"x_min":69,"x_max":667,"o":"m 388 -14 q 225 26 297 -14 q 111 140 153 65 q 69 319 69 215 q 108 499 69 424 q 218 613 148 574 q 378 652 288 652 q 539 612 478 652 q 627 507 600 572 q 655 366 655 442 l 163 366 l 163 402 l 492 402 q 488 474 491 437 q 474 544 485 512 q 441 596 463 576 q 378 616 418 616 q 305 593 333 616 q 259 530 276 570 q 237 436 243 489 q 231 324 231 383 q 238 208 231 262 q 265 114 246 154 q 317 50 284 73 q 401 27 350 27 q 544 69 488 27 q 626 178 599 111 l 667 178 q 572 41 640 95 q 388 -14 503 -14 m 419 760 l 238 849 q 210 871 220 856 q 200 904 201 886 q 207 935 199 922 q 232 957 215 949 q 268 960 249 964 q 303 938 288 957 l 441 785 l 419 760 z "},"ē":{"ha":730,"x_min":69,"x_max":667,"o":"m 388 -14 q 225 26 297 -14 q 111 140 153 65 q 69 319 69 215 q 108 499 69 424 q 218 613 148 574 q 378 652 288 652 q 539 612 478 652 q 627 507 600 572 q 655 366 655 442 l 163 366 l 163 402 l 492 402 q 488 474 491 437 q 474 544 485 512 q 441 596 463 576 q 378 616 418 616 q 305 593 333 616 q 259 530 276 570 q 237 436 243 489 q 231 324 231 383 q 238 208 231 262 q 265 114 246 154 q 317 50 284 73 q 401 27 350 27 q 544 69 488 27 q 626 178 599 111 l 667 178 q 572 41 640 95 q 388 -14 503 -14 m 208 778 l 208 814 l 542 814 l 542 778 l 208 778 z "},"ę":{"ha":730,"x_min":69,"x_max":667,"o":"m 388 -14 q 225 26 297 -14 q 111 140 153 65 q 69 319 69 215 q 108 499 69 424 q 218 613 148 574 q 378 652 288 652 q 539 612 478 652 q 627 507 600 572 q 655 366 655 442 l 163 366 l 163 402 l 492 402 q 488 474 491 437 q 474 544 485 512 q 441 596 463 576 q 378 616 418 616 q 305 593 333 616 q 259 530 276 570 q 237 436 243 489 q 231 324 231 383 q 238 208 231 262 q 265 114 246 154 q 317 50 284 73 q 401 27 350 27 q 544 69 488 27 q 626 178 599 111 l 667 178 q 572 41 640 95 q 388 -14 503 -14 m 441 -297 q 367 -284 403 -297 q 308 -245 331 -272 q 285 -177 285 -219 q 305 -102 285 -135 q 355 -44 324 -69 q 422 -2 385 -19 q 493 27 458 16 l 503 6 q 467 -26 484 -4 q 440 -78 451 -48 q 430 -144 430 -108 q 447 -214 430 -187 q 497 -240 464 -240 q 547 -222 528 -240 q 580 -180 567 -204 l 604 -196 q 576 -239 594 -215 q 526 -280 558 -262 q 441 -297 494 -297 z "},"f":{"ha":565,"x_min":42,"x_max":631,"o":"m 163 0 l 163 710 q 197 882 163 803 q 296 1008 231 960 q 454 1056 361 1056 q 552 1034 513 1056 q 611 979 591 1012 q 631 913 631 946 q 604 842 631 866 q 542 818 577 818 q 503 826 523 818 q 470 853 484 835 q 457 902 457 872 q 484 965 457 942 q 542 987 512 987 q 583 978 563 987 q 617 952 603 969 q 630 913 630 935 l 594 913 q 576 964 594 940 q 528 1003 559 988 q 458 1019 497 1019 q 368 988 401 1019 q 320 898 335 958 q 306 750 306 838 l 306 0 l 163 0 m 42 0 l 42 37 l 469 37 l 469 0 l 42 0 m 42 602 l 42 639 l 497 639 l 497 602 l 42 602 z "},"g":{"ha":852,"x_min":48,"x_max":813,"o":"m 365 -361 q 244 -351 301 -361 q 143 -317 187 -340 q 73 -259 99 -294 q 48 -176 48 -224 q 69 -98 48 -129 q 123 -48 91 -67 q 187 -22 154 -30 q 243 -14 219 -14 l 270 -14 q 205 -71 228 -34 q 182 -159 182 -108 q 206 -240 182 -203 q 277 -299 231 -277 q 391 -321 324 -321 q 483 -310 440 -321 q 559 -277 526 -299 q 610 -223 592 -256 q 628 -146 628 -190 q 608 -78 628 -106 q 552 -37 588 -51 q 471 -22 516 -22 q 423 -22 456 -22 q 356 -22 390 -22 q 307 -22 322 -22 q 151 6 210 -22 q 92 99 92 33 q 116 168 92 138 q 177 217 139 197 q 263 247 216 237 q 360 256 310 256 l 358 233 q 309 227 336 233 q 257 210 282 221 q 216 184 232 199 q 199 151 199 169 q 236 110 199 117 q 330 102 273 102 q 376 102 354 102 q 420 103 399 103 q 461 103 442 103 q 542 96 500 103 q 619 66 583 88 q 677 0 655 43 q 699 -114 699 -43 q 671 -228 699 -181 q 595 -305 643 -276 q 488 -348 547 -334 q 365 -361 428 -361 m 341 225 q 252 237 297 225 q 168 274 206 249 q 106 341 130 300 q 83 439 83 381 q 106 537 83 497 q 168 603 130 578 q 252 640 206 628 q 341 652 297 652 q 430 640 385 652 q 511 603 474 628 q 571 537 549 578 q 594 439 594 497 q 571 341 594 381 q 511 274 549 300 q 430 237 474 249 q 341 225 385 225 m 341 261 q 403 284 378 261 q 440 347 428 307 q 452 439 452 387 q 440 531 452 492 q 403 593 428 571 q 341 616 378 616 q 279 593 303 616 q 242 531 255 571 q 230 439 230 492 q 237 347 230 387 q 267 284 244 307 q 341 261 291 261 m 734 455 q 682 474 706 455 q 659 530 659 494 q 683 583 659 567 q 734 599 707 599 q 786 583 761 599 q 811 536 811 567 l 775 536 q 752 587 775 564 q 690 610 730 610 q 635 599 665 610 q 578 558 605 588 q 537 471 551 528 l 511 490 q 556 583 525 549 q 623 632 587 617 q 687 646 658 646 q 752 630 724 646 q 797 589 781 614 q 813 536 813 563 q 787 472 813 490 q 734 455 762 455 z "},"ğ":{"ha":852,"x_min":48,"x_max":813,"o":"m 365 -361 q 244 -351 301 -361 q 143 -317 187 -340 q 73 -259 99 -294 q 48 -176 48 -224 q 69 -98 48 -129 q 123 -48 91 -67 q 187 -22 154 -30 q 243 -14 219 -14 l 270 -14 q 205 -71 228 -34 q 182 -159 182 -108 q 206 -240 182 -203 q 277 -299 231 -277 q 391 -321 324 -321 q 483 -310 440 -321 q 559 -277 526 -299 q 610 -223 592 -256 q 628 -146 628 -190 q 608 -78 628 -106 q 552 -37 588 -51 q 471 -22 516 -22 q 423 -22 456 -22 q 356 -22 390 -22 q 307 -22 322 -22 q 151 6 210 -22 q 92 99 92 33 q 116 168 92 138 q 177 217 139 197 q 263 247 216 237 q 360 256 310 256 l 358 233 q 309 227 336 233 q 257 210 282 221 q 216 184 232 199 q 199 151 199 169 q 236 110 199 117 q 330 102 273 102 q 376 102 354 102 q 420 103 399 103 q 461 103 442 103 q 542 96 500 103 q 619 66 583 88 q 677 0 655 43 q 699 -114 699 -43 q 671 -228 699 -181 q 595 -305 643 -276 q 488 -348 547 -334 q 365 -361 428 -361 m 341 225 q 252 237 297 225 q 168 274 206 249 q 106 341 130 300 q 83 439 83 381 q 106 537 83 497 q 168 603 130 578 q 252 640 206 628 q 341 652 297 652 q 430 640 385 652 q 511 603 474 628 q 571 537 549 578 q 594 439 594 497 q 571 341 594 381 q 511 274 549 300 q 430 237 474 249 q 341 225 385 225 m 341 261 q 403 284 378 261 q 440 347 428 307 q 452 439 452 387 q 440 531 452 492 q 403 593 428 571 q 341 616 378 616 q 279 593 303 616 q 242 531 255 571 q 230 439 230 492 q 237 347 230 387 q 267 284 244 307 q 341 261 291 261 m 734 455 q 682 474 706 455 q 659 530 659 494 q 683 583 659 567 q 734 599 707 599 q 786 583 761 599 q 811 536 811 567 l 775 536 q 752 587 775 564 q 690 610 730 610 q 635 599 665 610 q 578 558 605 588 q 537 471 551 528 l 511 490 q 556 583 525 549 q 623 632 587 617 q 687 646 658 646 q 752 630 724 646 q 797 589 781 614 q 813 536 813 563 q 787 472 813 490 q 734 455 762 455 m 383 764 q 288 791 322 764 q 241 862 254 818 q 228 955 228 906 l 250 955 q 268 899 250 922 q 316 866 285 877 q 383 856 347 856 q 451 866 421 856 q 500 899 482 877 q 518 955 518 922 l 541 955 q 527 862 541 906 q 480 791 514 818 q 383 764 445 764 z "},"ĝ":{"ha":852,"x_min":48,"x_max":813,"o":"m 365 -361 q 244 -351 301 -361 q 143 -317 187 -340 q 73 -259 99 -294 q 48 -176 48 -224 q 69 -98 48 -129 q 123 -48 91 -67 q 187 -22 154 -30 q 243 -14 219 -14 l 270 -14 q 205 -71 228 -34 q 182 -159 182 -108 q 206 -240 182 -203 q 277 -299 231 -277 q 391 -321 324 -321 q 483 -310 440 -321 q 559 -277 526 -299 q 610 -223 592 -256 q 628 -146 628 -190 q 608 -78 628 -106 q 552 -37 588 -51 q 471 -22 516 -22 q 423 -22 456 -22 q 356 -22 390 -22 q 307 -22 322 -22 q 151 6 210 -22 q 92 99 92 33 q 116 168 92 138 q 177 217 139 197 q 263 247 216 237 q 360 256 310 256 l 358 233 q 309 227 336 233 q 257 210 282 221 q 216 184 232 199 q 199 151 199 169 q 236 110 199 117 q 330 102 273 102 q 376 102 354 102 q 420 103 399 103 q 461 103 442 103 q 542 96 500 103 q 619 66 583 88 q 677 0 655 43 q 699 -114 699 -43 q 671 -228 699 -181 q 595 -305 643 -276 q 488 -348 547 -334 q 365 -361 428 -361 m 341 225 q 252 237 297 225 q 168 274 206 249 q 106 341 130 300 q 83 439 83 381 q 106 537 83 497 q 168 603 130 578 q 252 640 206 628 q 341 652 297 652 q 430 640 385 652 q 511 603 474 628 q 571 537 549 578 q 594 439 594 497 q 571 341 594 381 q 511 274 549 300 q 430 237 474 249 q 341 225 385 225 m 341 261 q 403 284 378 261 q 440 347 428 307 q 452 439 452 387 q 440 531 452 492 q 403 593 428 571 q 341 616 378 616 q 279 593 303 616 q 242 531 255 571 q 230 439 230 492 q 237 347 230 387 q 267 284 244 307 q 341 261 291 261 m 734 455 q 682 474 706 455 q 659 530 659 494 q 683 583 659 567 q 734 599 707 599 q 786 583 761 599 q 811 536 811 567 l 775 536 q 752 587 775 564 q 690 610 730 610 q 635 599 665 610 q 578 558 605 588 q 537 471 551 528 l 511 490 q 556 583 525 549 q 623 632 587 617 q 687 646 658 646 q 752 630 724 646 q 797 589 781 614 q 813 536 813 563 q 787 472 813 490 q 734 455 762 455 m 197 772 l 179 790 l 335 953 l 434 953 l 590 790 l 572 772 l 384 881 l 197 772 z "},"ģ":{"ha":852,"x_min":48,"x_max":813,"o":"m 365 -361 q 244 -351 301 -361 q 143 -317 187 -340 q 73 -259 99 -294 q 48 -176 48 -224 q 69 -98 48 -129 q 123 -48 91 -67 q 187 -22 154 -30 q 243 -14 219 -14 l 270 -14 q 205 -71 228 -34 q 182 -159 182 -108 q 206 -240 182 -203 q 277 -299 231 -277 q 391 -321 324 -321 q 483 -310 440 -321 q 559 -277 526 -299 q 610 -223 592 -256 q 628 -146 628 -190 q 608 -78 628 -106 q 552 -37 588 -51 q 471 -22 516 -22 q 423 -22 456 -22 q 356 -22 390 -22 q 307 -22 322 -22 q 151 6 210 -22 q 92 99 92 33 q 116 168 92 138 q 177 217 139 197 q 263 247 216 237 q 360 256 310 256 l 358 233 q 309 227 336 233 q 257 210 282 221 q 216 184 232 199 q 199 151 199 169 q 236 110 199 117 q 330 102 273 102 q 376 102 354 102 q 420 103 399 103 q 461 103 442 103 q 542 96 500 103 q 619 66 583 88 q 677 0 655 43 q 699 -114 699 -43 q 671 -228 699 -181 q 595 -305 643 -276 q 488 -348 547 -334 q 365 -361 428 -361 m 341 225 q 252 237 297 225 q 168 274 206 249 q 106 341 130 300 q 83 439 83 381 q 106 537 83 497 q 168 603 130 578 q 252 640 206 628 q 341 652 297 652 q 430 640 385 652 q 511 603 474 628 q 571 537 549 578 q 594 439 594 497 q 571 341 594 381 q 511 274 549 300 q 430 237 474 249 q 341 225 385 225 m 341 261 q 403 284 378 261 q 440 347 428 307 q 452 439 452 387 q 440 531 452 492 q 403 593 428 571 q 341 616 378 616 q 279 593 303 616 q 242 531 255 571 q 230 439 230 492 q 237 347 230 387 q 267 284 244 307 q 341 261 291 261 m 734 455 q 682 474 706 455 q 659 530 659 494 q 683 583 659 567 q 734 599 707 599 q 786 583 761 599 q 811 536 811 567 l 775 536 q 752 587 775 564 q 690 610 730 610 q 635 599 665 610 q 578 558 605 588 q 537 471 551 528 l 511 490 q 556 583 525 549 q 623 632 587 617 q 687 646 658 646 q 752 630 724 646 q 797 589 781 614 q 813 536 813 563 q 787 472 813 490 q 734 455 762 455 m 387 765 q 325 795 351 765 q 300 881 300 825 q 320 975 300 931 q 379 1047 340 1019 q 473 1075 417 1075 l 473 1045 q 397 1022 431 1045 q 346 959 364 999 q 332 865 328 918 l 322 865 q 331 887 322 875 q 356 907 340 899 q 392 915 372 915 q 451 893 431 915 q 471 841 471 872 q 460 803 471 820 q 430 775 449 785 q 387 765 410 765 z "},"ġ":{"ha":852,"x_min":48,"x_max":813,"o":"m 365 -361 q 244 -351 301 -361 q 143 -317 187 -340 q 73 -259 99 -294 q 48 -176 48 -224 q 69 -98 48 -129 q 123 -48 91 -67 q 187 -22 154 -30 q 243 -14 219 -14 l 270 -14 q 205 -71 228 -34 q 182 -159 182 -108 q 206 -240 182 -203 q 277 -299 231 -277 q 391 -321 324 -321 q 483 -310 440 -321 q 559 -277 526 -299 q 610 -223 592 -256 q 628 -146 628 -190 q 608 -78 628 -106 q 552 -37 588 -51 q 471 -22 516 -22 q 423 -22 456 -22 q 356 -22 390 -22 q 307 -22 322 -22 q 151 6 210 -22 q 92 99 92 33 q 116 168 92 138 q 177 217 139 197 q 263 247 216 237 q 360 256 310 256 l 358 233 q 309 227 336 233 q 257 210 282 221 q 216 184 232 199 q 199 151 199 169 q 236 110 199 117 q 330 102 273 102 q 376 102 354 102 q 420 103 399 103 q 461 103 442 103 q 542 96 500 103 q 619 66 583 88 q 677 0 655 43 q 699 -114 699 -43 q 671 -228 699 -181 q 595 -305 643 -276 q 488 -348 547 -334 q 365 -361 428 -361 m 341 225 q 252 237 297 225 q 168 274 206 249 q 106 341 130 300 q 83 439 83 381 q 106 537 83 497 q 168 603 130 578 q 252 640 206 628 q 341 652 297 652 q 430 640 385 652 q 511 603 474 628 q 571 537 549 578 q 594 439 594 497 q 571 341 594 381 q 511 274 549 300 q 430 237 474 249 q 341 225 385 225 m 341 261 q 403 284 378 261 q 440 347 428 307 q 452 439 452 387 q 440 531 452 492 q 403 593 428 571 q 341 616 378 616 q 279 593 303 616 q 242 531 255 571 q 230 439 230 492 q 237 347 230 387 q 267 284 244 307 q 341 261 291 261 m 734 455 q 682 474 706 455 q 659 530 659 494 q 683 583 659 567 q 734 599 707 599 q 786 583 761 599 q 811 536 811 567 l 775 536 q 752 587 775 564 q 690 610 730 610 q 635 599 665 610 q 578 558 605 588 q 537 471 551 528 l 511 490 q 556 583 525 549 q 623 632 587 617 q 687 646 658 646 q 752 630 724 646 q 797 589 781 614 q 813 536 813 563 q 787 472 813 490 q 734 455 762 455 m 385 865 q 319 892 346 865 q 292 958 292 919 q 319 1024 292 997 q 385 1051 346 1051 q 451 1024 424 1051 q 478 958 478 997 q 451 892 478 919 q 385 865 424 865 z "},"h":{"ha":847,"x_min":48,"x_max":801,"o":"m 48 0 l 48 37 l 142 37 l 142 1005 l 48 1005 l 48 1042 l 286 1042 l 286 37 l 374 37 l 374 0 l 48 0 m 478 0 l 478 37 l 565 37 l 565 421 q 560 519 565 479 q 538 580 555 559 q 485 600 521 600 q 403 573 440 600 q 341 501 367 545 q 300 407 315 458 q 286 312 286 357 l 263 310 q 277 415 263 356 q 321 527 291 473 q 400 617 351 581 q 516 652 448 652 q 636 625 595 652 q 691 551 676 599 q 706 444 706 504 l 706 37 l 801 37 l 801 0 l 478 0 z "},"ħ":{"ha":838,"x_min":48,"x_max":801,"o":"m 49 808 l 49 844 l 455 844 l 455 808 l 49 808 m 48 0 l 48 37 l 142 37 l 142 1005 l 48 1005 l 48 1042 l 286 1042 l 286 37 l 374 37 l 374 0 l 48 0 m 478 0 l 478 37 l 565 37 l 565 421 q 560 519 565 479 q 538 580 555 559 q 485 600 521 600 q 403 573 440 600 q 341 501 367 545 q 300 407 315 458 q 286 312 286 357 l 263 310 q 277 415 263 356 q 321 527 291 473 q 400 617 351 581 q 516 652 448 652 q 636 625 595 652 q 691 551 676 599 q 706 444 706 504 l 706 37 l 801 37 l 801 0 l 478 0 z "},"ĥ":{"ha":847,"x_min":48,"x_max":801,"o":"m 48 0 l 48 37 l 142 37 l 142 1005 l 48 1005 l 48 1042 l 286 1042 l 286 37 l 374 37 l 374 0 l 48 0 m 478 0 l 478 37 l 565 37 l 565 421 q 560 519 565 479 q 538 580 555 559 q 485 600 521 600 q 403 573 440 600 q 341 501 367 545 q 300 407 315 458 q 286 312 286 357 l 263 310 q 277 415 263 356 q 321 527 291 473 q 400 617 351 581 q 516 652 448 652 q 636 625 595 652 q 691 551 676 599 q 706 444 706 504 l 706 37 l 801 37 l 801 0 l 478 0 m 246 1118 l 228 1137 l 384 1299 l 483 1299 l 639 1137 l 620 1118 l 433 1227 l 246 1118 z "},"i":{"ha":439,"x_min":56,"x_max":388,"o":"m 222 865 q 156 892 183 865 q 128 958 128 919 q 156 1024 128 997 q 222 1051 183 1051 q 288 1024 260 1051 q 315 958 315 997 q 288 892 315 919 q 222 865 260 865 m 293 639 l 293 37 l 388 37 l 388 0 l 56 0 l 56 37 l 149 37 l 149 602 l 56 602 l 56 639 l 293 639 z "},"ı":{"ha":441,"x_min":56,"x_max":388,"o":"m 293 639 l 293 37 l 388 37 l 388 0 l 56 0 l 56 37 l 149 37 l 149 602 l 56 602 l 56 639 l 293 639 z "},"í":{"ha":441,"x_min":56,"x_max":399,"o":"m 293 639 l 293 37 l 388 37 l 388 0 l 56 0 l 56 37 l 149 37 l 149 602 l 56 602 l 56 639 l 293 639 m 178 760 l 156 785 l 294 938 q 329 960 310 957 q 365 957 349 964 q 390 935 382 949 q 398 904 399 922 q 387 871 397 886 q 360 849 377 856 l 178 760 z "},"ĭ":{"ha":441,"x_min":56,"x_max":388,"o":"m 293 639 l 293 37 l 388 37 l 388 0 l 56 0 l 56 37 l 149 37 l 149 602 l 56 602 l 56 639 l 293 639 m 222 764 q 127 791 161 764 q 80 862 93 818 q 67 955 67 906 l 89 955 q 107 899 89 922 q 155 866 124 877 q 222 856 185 856 q 290 866 260 856 q 339 899 321 877 q 357 955 357 922 l 380 955 q 366 862 380 906 q 318 791 353 818 q 222 764 284 764 z "},"î":{"ha":441,"x_min":17,"x_max":429,"o":"m 293 639 l 293 37 l 388 37 l 388 0 l 56 0 l 56 37 l 149 37 l 149 602 l 56 602 l 56 639 l 293 639 m 36 772 l 18 790 l 174 953 l 273 953 l 429 790 l 410 772 l 223 881 l 36 772 z "},"ï":{"ha":441,"x_min":35,"x_max":409,"o":"m 293 639 l 293 37 l 388 37 l 388 0 l 56 0 l 56 37 l 149 37 l 149 602 l 56 602 l 56 639 l 293 639 m 339 770 q 289 791 309 770 q 268 840 268 811 q 289 890 268 869 q 339 911 309 911 q 389 890 368 911 q 409 840 409 869 q 389 791 409 811 q 339 770 368 770 m 106 770 q 56 791 76 770 q 35 840 35 811 q 56 890 35 869 q 106 911 76 911 q 156 890 135 911 q 176 840 176 869 q 156 791 176 811 q 106 770 135 770 z "},"ì":{"ha":441,"x_min":46,"x_max":388,"o":"m 293 639 l 293 37 l 388 37 l 388 0 l 56 0 l 56 37 l 149 37 l 149 602 l 56 602 l 56 639 l 293 639 m 267 760 l 85 849 q 58 871 68 856 q 48 904 49 886 q 55 935 47 922 q 80 957 63 949 q 116 960 97 964 q 151 938 135 957 l 289 785 l 267 760 z "},"ĳ":{"ha":790,"x_min":56,"x_max":663,"o":"m 222 865 q 156 892 183 865 q 128 958 128 919 q 156 1024 128 997 q 222 1051 183 1051 q 288 1024 260 1051 q 315 958 315 997 q 288 892 315 919 q 222 865 260 865 m 293 639 l 293 37 l 388 37 l 388 0 l 56 0 l 56 37 l 149 37 l 149 602 l 56 602 l 56 639 l 293 639 m 412 -361 q 314 -340 354 -361 q 251 -282 273 -318 q 230 -206 230 -247 q 256 -136 230 -160 q 319 -112 283 -112 q 359 -121 340 -112 q 392 -148 379 -130 q 406 -196 406 -167 q 382 -253 406 -226 q 320 -279 359 -279 q 277 -270 297 -279 q 244 -244 256 -260 q 231 -206 231 -228 l 267 -206 q 285 -266 267 -239 q 333 -310 303 -293 q 403 -326 364 -326 q 474 -296 451 -326 q 504 -215 497 -266 q 510 -101 511 -165 q 510 28 510 -38 l 510 602 l 388 602 l 388 639 l 653 639 l 653 -16 q 641 -146 653 -84 q 600 -257 628 -208 q 525 -333 572 -305 q 412 -361 479 -361 m 571 869 q 505 897 532 869 q 478 963 478 924 q 505 1028 478 1001 q 571 1056 532 1056 q 636 1028 609 1056 q 663 963 663 1001 q 636 897 663 924 q 571 869 609 869 z "},"ī":{"ha":441,"x_min":56,"x_max":390,"o":"m 293 639 l 293 37 l 388 37 l 388 0 l 56 0 l 56 37 l 149 37 l 149 602 l 56 602 l 56 639 l 293 639 m 56 778 l 56 814 l 390 814 l 390 778 l 56 778 z "},"į":{"ha":441,"x_min":56,"x_max":388,"o":"m 293 639 l 293 37 l 388 37 l 388 0 l 56 0 l 56 37 l 149 37 l 149 602 l 56 602 l 56 639 l 293 639 m 224 865 q 158 892 185 865 q 131 958 131 919 q 158 1024 131 997 q 224 1051 185 1051 q 290 1024 263 1051 q 317 958 317 997 q 290 892 317 919 q 224 865 263 865 m 223 -297 q 149 -284 185 -297 q 90 -245 113 -272 q 67 -177 67 -219 q 86 -102 67 -135 q 136 -44 106 -69 q 204 -2 167 -19 q 275 27 240 16 l 285 6 q 249 -26 266 -4 q 222 -78 233 -48 q 212 -144 212 -108 q 229 -214 212 -187 q 279 -240 246 -240 q 329 -222 310 -240 q 362 -180 349 -204 l 386 -196 q 358 -239 376 -215 q 308 -280 340 -262 q 223 -297 276 -297 z "},"ĩ":{"ha":441,"x_min":-17,"x_max":466,"o":"m 293 639 l 293 37 l 388 37 l 388 0 l 56 0 l 56 37 l 149 37 l 149 602 l 56 602 l 56 639 l 293 639 m 333 760 q 260 776 290 760 q 205 815 229 793 q 155 853 180 836 q 100 869 131 869 q 43 849 67 869 q 20 778 20 828 l -17 778 q 4 878 -17 837 q 59 941 26 919 q 130 962 93 962 q 203 945 174 962 q 256 907 233 928 q 300 869 278 885 q 349 852 322 852 q 407 873 385 852 q 429 944 429 894 l 466 944 q 451 838 466 878 q 406 778 435 797 q 333 760 376 760 z "},"j":{"ha":442,"x_min":-109,"x_max":324,"o":"m 73 -361 q -25 -340 15 -361 q -87 -282 -66 -318 q -109 -206 -109 -247 q -83 -136 -109 -160 q -20 -112 -56 -112 q 20 -121 1 -112 q 53 -148 40 -130 q 67 -196 67 -167 q 43 -253 67 -226 q -19 -279 20 -279 q -62 -270 -42 -279 q -95 -244 -83 -260 q -108 -206 -108 -228 l -72 -206 q -54 -266 -72 -239 q -6 -310 -36 -293 q 64 -326 25 -326 q 135 -296 112 -326 q 165 -215 158 -266 q 172 -101 172 -165 q 171 28 171 -38 l 171 602 l 49 602 l 49 639 l 315 639 l 315 -16 q 302 -146 315 -84 q 261 -257 290 -208 q 186 -333 233 -305 q 73 -361 140 -361 m 232 869 q 166 897 193 869 q 139 963 139 924 q 166 1028 139 1001 q 232 1056 193 1056 q 297 1028 270 1056 q 324 963 324 1001 q 297 897 324 924 q 232 869 270 869 z "},"ȷ":{"ha":442,"x_min":-109,"x_max":315,"o":"m 73 -361 q -25 -340 15 -361 q -87 -282 -66 -318 q -109 -206 -109 -247 q -83 -136 -109 -160 q -20 -112 -56 -112 q 20 -121 1 -112 q 53 -148 40 -130 q 67 -196 67 -167 q 43 -253 67 -226 q -19 -279 20 -279 q -62 -270 -42 -279 q -95 -244 -83 -260 q -108 -206 -108 -228 l -72 -206 q -54 -266 -72 -239 q -6 -310 -36 -293 q 64 -326 25 -326 q 135 -296 112 -326 q 165 -215 158 -266 q 172 -101 172 -165 q 171 28 171 -38 l 171 602 l 49 602 l 49 639 l 315 639 l 315 -16 q 302 -146 315 -84 q 261 -257 290 -208 q 186 -333 233 -305 q 73 -361 140 -361 z "},"ĵ":{"ha":442,"x_min":-109,"x_max":427,"o":"m 73 -361 q -25 -340 15 -361 q -87 -282 -66 -318 q -109 -206 -109 -247 q -83 -136 -109 -160 q -20 -112 -56 -112 q 20 -121 1 -112 q 53 -148 40 -130 q 67 -196 67 -167 q 43 -253 67 -226 q -19 -279 20 -279 q -62 -270 -42 -279 q -95 -244 -83 -260 q -108 -206 -108 -228 l -72 -206 q -54 -266 -72 -239 q -6 -310 -36 -293 q 64 -326 25 -326 q 135 -296 112 -326 q 165 -215 158 -266 q 172 -101 172 -165 q 171 28 171 -38 l 171 602 l 49 602 l 49 639 l 315 639 l 315 -16 q 302 -146 315 -84 q 261 -257 290 -208 q 186 -333 233 -305 q 73 -361 140 -361 m 34 772 l 16 790 l 172 953 l 271 953 l 427 790 l 408 772 l 221 881 l 34 772 z "},"k":{"ha":863,"x_min":48,"x_max":828,"o":"m 48 0 l 48 37 l 170 37 l 170 1005 l 48 1005 l 48 1042 l 314 1042 l 314 37 l 406 37 l 406 0 l 48 0 m 485 0 l 485 37 l 572 37 l 299 367 l 606 602 l 473 602 l 473 639 l 775 639 l 775 602 l 657 602 l 427 422 l 746 37 l 828 37 l 828 0 l 485 0 z "},"ķ":{"ha":863,"x_min":48,"x_max":828,"o":"m 48 0 l 48 37 l 170 37 l 170 1005 l 48 1005 l 48 1042 l 314 1042 l 314 37 l 406 37 l 406 0 l 48 0 m 485 0 l 485 37 l 572 37 l 299 367 l 606 602 l 473 602 l 473 639 l 775 639 l 775 602 l 657 602 l 427 422 l 746 37 l 828 37 l 828 0 l 485 0 m 357 -447 l 357 -417 q 432 -394 399 -417 q 483 -331 465 -371 q 497 -237 501 -290 l 507 -237 q 499 -258 508 -247 q 474 -278 490 -270 q 438 -287 458 -287 q 378 -265 398 -287 q 359 -212 359 -243 q 370 -174 359 -192 q 400 -147 381 -157 q 442 -137 419 -137 q 504 -167 478 -137 q 529 -253 529 -197 q 509 -347 529 -303 q 450 -419 489 -392 q 357 -447 412 -447 z "},"ĸ":{"ha":862,"x_min":46,"x_max":830,"o":"m 603 0 l 301 367 l 654 639 l 705 639 l 428 422 l 777 0 l 603 0 m 46 0 l 46 37 l 407 37 l 407 0 l 46 0 m 171 0 l 171 602 l 46 602 l 46 639 l 315 639 l 315 0 l 171 0 m 483 0 l 483 37 l 830 37 l 830 0 l 483 0 m 467 602 l 467 639 l 776 639 l 776 602 l 467 602 z "},"l":{"ha":483,"x_min":48,"x_max":435,"o":"m 314 1042 l 314 37 l 435 37 l 435 0 l 48 0 l 48 37 l 170 37 l 170 1005 l 48 1005 l 48 1042 l 314 1042 z "},"ĺ":{"ha":483,"x_min":48,"x_max":435,"o":"m 314 1042 l 314 37 l 435 37 l 435 0 l 48 0 l 48 37 l 170 37 l 170 1005 l 48 1005 l 48 1042 l 314 1042 m 199 1163 l 177 1188 l 315 1340 q 350 1363 331 1360 q 386 1359 369 1367 q 411 1338 403 1352 q 419 1307 420 1324 q 408 1274 417 1289 q 381 1252 398 1259 l 199 1163 z "},"ľ":{"ha":483,"x_min":48,"x_max":610,"o":"m 314 1042 l 314 37 l 435 37 l 435 0 l 48 0 l 48 37 l 170 37 l 170 1005 l 48 1005 l 48 1042 l 314 1042 m 409 678 l 409 714 q 477 730 446 714 q 531 774 508 745 q 565 841 553 802 q 572 927 576 881 l 583 927 q 574 903 584 917 q 545 880 563 890 q 503 869 526 869 q 434 895 457 869 q 411 956 411 921 q 440 1018 411 993 q 509 1044 468 1044 q 581 1009 551 1044 q 610 908 610 974 q 587 797 610 850 q 518 711 563 744 q 409 678 473 678 z "},"ļ":{"ha":483,"x_min":48,"x_max":435,"o":"m 314 1042 l 314 37 l 435 37 l 435 0 l 48 0 l 48 37 l 170 37 l 170 1005 l 48 1005 l 48 1042 l 314 1042 m 164 -447 l 164 -417 q 239 -394 206 -417 q 290 -331 272 -371 q 304 -237 308 -290 l 314 -237 q 306 -258 315 -247 q 281 -278 297 -270 q 244 -287 265 -287 q 185 -265 205 -287 q 166 -212 166 -243 q 177 -174 166 -192 q 207 -147 188 -157 q 249 -137 226 -137 q 311 -167 285 -137 q 336 -253 336 -197 q 316 -347 336 -303 q 257 -419 296 -392 q 164 -447 219 -447 z "},"ŀ":{"ha":517,"x_min":48,"x_max":602,"o":"m 314 1042 l 314 37 l 435 37 l 435 0 l 48 0 l 48 37 l 170 37 l 170 1005 l 48 1005 l 48 1042 l 314 1042 z "},"ł":{"ha":483,"x_min":48,"x_max":465,"o":"m 50 504 l 50 548 l 465 806 l 465 762 l 50 504 m 314 1042 l 314 37 l 435 37 l 435 0 l 48 0 l 48 37 l 170 37 l 170 1005 l 48 1005 l 48 1042 l 314 1042 z "},"m":{"ha":1215,"x_min":48,"x_max":1168,"o":"m 283 639 l 283 37 l 369 37 l 369 0 l 48 0 l 48 37 l 142 37 l 142 602 l 48 602 l 48 639 l 283 639 m 678 444 l 678 37 l 765 37 l 765 0 l 451 0 l 451 37 l 538 37 l 538 426 q 533 524 538 485 q 512 582 528 563 q 464 601 497 601 q 390 573 424 601 q 333 501 357 545 q 296 409 309 458 q 283 317 283 360 l 263 316 q 275 419 263 362 q 317 530 288 477 q 393 618 346 583 q 507 652 440 652 q 612 625 575 652 q 664 551 649 599 q 678 444 678 504 m 1074 444 l 1074 37 l 1168 37 l 1168 0 l 847 0 l 847 37 l 933 37 l 933 426 q 927 524 933 485 q 902 582 920 563 q 851 601 884 601 q 777 573 810 601 q 723 501 745 545 q 690 409 701 458 q 678 317 678 360 l 656 316 q 667 419 656 362 q 706 530 678 477 q 779 618 733 583 q 894 652 825 652 q 1001 625 963 652 q 1057 551 1040 599 q 1074 444 1074 504 z "},"n":{"ha":847,"x_min":48,"x_max":801,"o":"m 283 639 l 283 37 l 370 37 l 370 0 l 48 0 l 48 37 l 142 37 l 142 602 l 48 602 l 48 639 l 283 639 m 706 444 l 706 37 l 801 37 l 801 0 l 478 0 l 478 37 l 565 37 l 565 421 q 560 519 565 479 q 538 580 555 559 q 485 600 521 600 q 403 573 440 600 q 339 501 365 545 q 297 407 312 458 q 283 312 283 357 l 258 310 q 273 415 258 356 q 318 527 287 473 q 398 617 349 581 q 518 652 447 652 q 638 625 597 652 q 692 551 678 599 q 706 444 706 504 z "},"ń":{"ha":847,"x_min":48,"x_max":801,"o":"m 283 639 l 283 37 l 370 37 l 370 0 l 48 0 l 48 37 l 142 37 l 142 602 l 48 602 l 48 639 l 283 639 m 706 444 l 706 37 l 801 37 l 801 0 l 478 0 l 478 37 l 565 37 l 565 421 q 560 519 565 479 q 538 580 555 559 q 485 600 521 600 q 403 573 440 600 q 339 501 365 545 q 297 407 312 458 q 283 312 283 357 l 258 310 q 273 415 258 356 q 318 527 287 473 q 398 617 349 581 q 518 652 447 652 q 638 625 597 652 q 692 551 678 599 q 706 444 706 504 m 383 760 l 361 785 l 499 938 q 534 960 515 957 q 570 957 553 964 q 595 935 587 949 q 603 904 604 922 q 592 871 601 886 q 565 849 582 856 l 383 760 z "},"ŉ":{"ha":1003,"x_min":10,"x_max":943,"o":"m 425 639 l 425 37 l 513 37 l 513 0 l 190 0 l 190 37 l 285 37 l 285 602 l 190 602 l 190 639 l 425 639 m 849 444 l 849 37 l 943 37 l 943 0 l 620 0 l 620 37 l 708 37 l 708 421 q 702 519 708 479 q 680 580 697 559 q 628 600 663 600 q 545 573 583 600 q 481 501 508 545 q 440 407 454 458 q 425 312 425 357 l 401 310 q 415 415 401 356 q 460 527 429 473 q 540 617 491 581 q 660 652 590 652 q 780 625 740 652 q 835 551 821 599 q 849 444 849 504 m 10 648 l 10 685 q 84 701 50 685 q 142 748 117 718 q 178 819 166 778 q 186 910 190 860 l 198 910 q 188 883 199 898 q 157 858 176 869 q 111 847 137 847 q 38 875 63 847 q 13 941 13 903 q 27 988 13 967 q 65 1022 41 1010 q 118 1035 89 1035 q 173 1018 148 1035 q 213 969 198 1001 q 227 890 227 937 q 201 773 227 828 q 127 682 176 717 q 10 648 79 648 z "},"ň":{"ha":847,"x_min":48,"x_max":801,"o":"m 283 639 l 283 37 l 370 37 l 370 0 l 48 0 l 48 37 l 142 37 l 142 602 l 48 602 l 48 639 l 283 639 m 706 444 l 706 37 l 801 37 l 801 0 l 478 0 l 478 37 l 565 37 l 565 421 q 560 519 565 479 q 538 580 555 559 q 485 600 521 600 q 403 573 440 600 q 339 501 365 545 q 297 407 312 458 q 283 312 283 357 l 258 310 q 273 415 258 356 q 318 527 287 473 q 398 617 349 581 q 518 652 447 652 q 638 625 597 652 q 692 551 678 599 q 706 444 706 504 m 379 778 l 223 941 l 242 959 l 428 850 l 615 959 l 634 941 l 478 778 l 379 778 z "},"ņ":{"ha":847,"x_min":48,"x_max":801,"o":"m 283 639 l 283 37 l 370 37 l 370 0 l 48 0 l 48 37 l 142 37 l 142 602 l 48 602 l 48 639 l 283 639 m 706 444 l 706 37 l 801 37 l 801 0 l 478 0 l 478 37 l 565 37 l 565 421 q 560 519 565 479 q 538 580 555 559 q 485 600 521 600 q 403 573 440 600 q 339 501 365 545 q 297 407 312 458 q 283 312 283 357 l 258 310 q 273 415 258 356 q 318 527 287 473 q 398 617 349 581 q 518 652 447 652 q 638 625 597 652 q 692 551 678 599 q 706 444 706 504 m 336 -447 l 336 -417 q 411 -394 378 -417 q 463 -331 444 -371 q 476 -237 481 -290 l 486 -237 q 478 -258 487 -247 q 453 -278 469 -270 q 417 -287 437 -287 q 358 -265 377 -287 q 338 -212 338 -243 q 349 -174 338 -192 q 379 -147 360 -157 q 422 -137 399 -137 q 483 -167 458 -137 q 508 -253 508 -197 q 488 -347 508 -303 q 430 -419 468 -392 q 336 -447 391 -447 z "},"ŋ":{"ha":856,"x_min":52,"x_max":717,"o":"m 475 -361 q 377 -340 417 -361 q 315 -282 336 -318 q 294 -206 294 -247 q 320 -136 294 -160 q 383 -112 346 -112 q 423 -121 403 -112 q 456 -148 442 -130 q 469 -196 469 -167 q 447 -253 469 -226 q 385 -279 424 -279 q 341 -270 362 -279 q 308 -244 321 -260 q 295 -206 295 -228 l 331 -206 q 349 -266 331 -238 q 397 -310 366 -293 q 469 -326 428 -326 q 539 -296 517 -326 q 568 -215 562 -266 q 574 -101 575 -165 q 573 28 573 -38 l 573 418 l 717 444 l 717 -16 q 704 -145 717 -83 q 664 -256 692 -208 q 589 -333 635 -305 q 475 -361 543 -361 m 52 0 l 52 37 l 384 37 l 384 0 l 52 0 m 149 0 l 149 602 l 52 602 l 52 639 l 288 639 l 288 0 l 149 0 m 265 313 q 281 414 265 356 q 330 525 297 471 q 411 616 363 580 q 526 652 460 652 q 647 625 606 652 q 703 551 688 599 q 717 444 717 504 l 573 418 q 567 517 573 476 q 544 578 561 557 q 493 599 528 599 q 415 571 452 599 q 350 500 378 544 q 305 407 322 456 q 288 313 288 358 l 265 313 z "},"ñ":{"ha":847,"x_min":48,"x_max":801,"o":"m 283 639 l 283 37 l 370 37 l 370 0 l 48 0 l 48 37 l 142 37 l 142 602 l 48 602 l 48 639 l 283 639 m 706 444 l 706 37 l 801 37 l 801 0 l 478 0 l 478 37 l 565 37 l 565 421 q 560 519 565 479 q 538 580 555 559 q 485 600 521 600 q 403 573 440 600 q 339 501 365 545 q 297 407 312 458 q 283 312 283 357 l 258 310 q 273 415 258 356 q 318 527 287 473 q 398 617 349 581 q 518 652 447 652 q 638 625 597 652 q 692 551 678 599 q 706 444 706 504 m 538 760 q 465 776 495 760 q 409 815 434 793 q 360 853 385 836 q 305 869 335 869 q 248 849 272 869 q 225 778 225 828 l 188 778 q 209 878 188 837 q 264 941 231 919 q 335 962 298 962 q 408 945 378 962 q 461 907 438 928 q 505 869 483 885 q 553 852 526 852 q 612 873 590 852 q 634 944 634 894 l 671 944 q 656 838 671 878 q 611 778 640 797 q 538 760 581 760 z "},"o":{"ha":786,"x_min":69,"x_max":717,"o":"m 394 -14 q 221 32 294 -14 q 108 153 148 78 q 69 319 69 229 q 108 485 69 410 q 221 607 148 561 q 394 652 294 652 q 566 607 493 652 q 677 485 638 561 q 717 319 717 410 q 677 153 717 229 q 566 32 638 78 q 394 -14 493 -14 m 394 23 q 476 49 444 23 q 527 118 509 75 q 551 215 544 162 q 558 319 558 267 q 551 425 558 372 q 527 520 544 477 q 476 590 509 564 q 394 616 444 616 q 310 590 342 616 q 260 520 278 564 q 235 425 242 477 q 228 319 228 372 q 235 215 228 267 q 260 118 242 162 q 310 49 278 75 q 394 23 342 23 z "},"ó":{"ha":786,"x_min":69,"x_max":717,"o":"m 394 -14 q 221 32 294 -14 q 108 153 148 78 q 69 319 69 229 q 108 485 69 410 q 221 607 148 561 q 394 652 294 652 q 566 607 493 652 q 677 485 638 561 q 717 319 717 410 q 677 153 717 229 q 566 32 638 78 q 394 -14 493 -14 m 394 23 q 476 49 444 23 q 527 118 509 75 q 551 215 544 162 q 558 319 558 267 q 551 425 558 372 q 527 520 544 477 q 476 590 509 564 q 394 616 444 616 q 310 590 342 616 q 260 520 278 564 q 235 425 242 477 q 228 319 228 372 q 235 215 228 267 q 260 118 242 162 q 310 49 278 75 q 394 23 342 23 m 349 760 l 327 785 l 465 938 q 500 960 481 957 q 536 957 519 964 q 561 935 553 949 q 569 904 570 922 q 558 871 567 886 q 531 849 548 856 l 349 760 z "},"ŏ":{"ha":786,"x_min":69,"x_max":717,"o":"m 394 -14 q 221 32 294 -14 q 108 153 148 78 q 69 319 69 229 q 108 485 69 410 q 221 607 148 561 q 394 652 294 652 q 566 607 493 652 q 677 485 638 561 q 717 319 717 410 q 677 153 717 229 q 566 32 638 78 q 394 -14 493 -14 m 394 23 q 476 49 444 23 q 527 118 509 75 q 551 215 544 162 q 558 319 558 267 q 551 425 558 372 q 527 520 544 477 q 476 590 509 564 q 394 616 444 616 q 310 590 342 616 q 260 520 278 564 q 235 425 242 477 q 228 319 228 372 q 235 215 228 267 q 260 118 242 162 q 310 49 278 75 q 394 23 342 23 m 393 764 q 298 791 332 764 q 251 862 264 818 q 238 955 238 906 l 260 955 q 277 899 260 922 q 326 866 295 877 q 393 856 356 856 q 461 866 431 856 q 510 899 492 877 q 528 955 528 922 l 551 955 q 537 862 551 906 q 489 791 524 818 q 393 764 455 764 z "},"ô":{"ha":786,"x_min":69,"x_max":717,"o":"m 394 -14 q 221 32 294 -14 q 108 153 148 78 q 69 319 69 229 q 108 485 69 410 q 221 607 148 561 q 394 652 294 652 q 566 607 493 652 q 677 485 638 561 q 717 319 717 410 q 677 153 717 229 q 566 32 638 78 q 394 -14 493 -14 m 394 23 q 476 49 444 23 q 527 118 509 75 q 551 215 544 162 q 558 319 558 267 q 551 425 558 372 q 527 520 544 477 q 476 590 509 564 q 394 616 444 616 q 310 590 342 616 q 260 520 278 564 q 235 425 242 477 q 228 319 228 372 q 235 215 228 267 q 260 118 242 162 q 310 49 278 75 q 394 23 342 23 m 206 772 l 188 790 l 344 953 l 443 953 l 599 790 l 581 772 l 393 881 l 206 772 z "},"ö":{"ha":786,"x_min":69,"x_max":717,"o":"m 394 -14 q 221 32 294 -14 q 108 153 148 78 q 69 319 69 229 q 108 485 69 410 q 221 607 148 561 q 394 652 294 652 q 566 607 493 652 q 677 485 638 561 q 717 319 717 410 q 677 153 717 229 q 566 32 638 78 q 394 -14 493 -14 m 394 23 q 476 49 444 23 q 527 118 509 75 q 551 215 544 162 q 558 319 558 267 q 551 425 558 372 q 527 520 544 477 q 476 590 509 564 q 394 616 444 616 q 310 590 342 616 q 260 520 278 564 q 235 425 242 477 q 228 319 228 372 q 235 215 228 267 q 260 118 242 162 q 310 49 278 75 q 394 23 342 23 m 509 770 q 459 791 479 770 q 438 840 438 811 q 459 890 438 869 q 509 911 479 911 q 559 890 538 911 q 579 840 579 869 q 559 791 579 811 q 509 770 538 770 m 276 770 q 226 791 247 770 q 206 840 206 811 q 226 890 206 869 q 276 911 247 911 q 326 890 306 911 q 347 840 347 869 q 326 791 347 811 q 276 770 306 770 z "},"ò":{"ha":786,"x_min":69,"x_max":717,"o":"m 394 -14 q 221 32 294 -14 q 108 153 148 78 q 69 319 69 229 q 108 485 69 410 q 221 607 148 561 q 394 652 294 652 q 566 607 493 652 q 677 485 638 561 q 717 319 717 410 q 677 153 717 229 q 566 32 638 78 q 394 -14 493 -14 m 394 23 q 476 49 444 23 q 527 118 509 75 q 551 215 544 162 q 558 319 558 267 q 551 425 558 372 q 527 520 544 477 q 476 590 509 564 q 394 616 444 616 q 310 590 342 616 q 260 520 278 564 q 235 425 242 477 q 228 319 228 372 q 235 215 228 267 q 260 118 242 162 q 310 49 278 75 q 394 23 342 23 m 438 760 l 256 849 q 228 871 238 856 q 218 904 219 886 q 225 935 217 922 q 250 957 233 949 q 286 960 267 964 q 322 938 306 957 l 459 785 l 438 760 z "},"ő":{"ha":786,"x_min":69,"x_max":719,"o":"m 394 -14 q 221 32 294 -14 q 108 153 148 78 q 69 319 69 229 q 108 485 69 410 q 221 607 148 561 q 394 652 294 652 q 566 607 493 652 q 677 485 638 561 q 717 319 717 410 q 677 153 717 229 q 566 32 638 78 q 394 -14 493 -14 m 394 23 q 476 49 444 23 q 527 118 509 75 q 551 215 544 162 q 558 319 558 267 q 551 425 558 372 q 527 520 544 477 q 476 590 509 564 q 394 616 444 616 q 310 590 342 616 q 260 520 278 564 q 235 425 242 477 q 228 319 228 372 q 235 215 228 267 q 260 118 242 162 q 310 49 278 75 q 394 23 342 23 m 204 760 l 182 785 l 319 938 q 355 960 335 957 q 391 957 374 964 q 416 935 408 949 q 424 904 425 922 q 413 871 422 886 q 385 849 403 856 l 204 760 m 499 760 l 476 785 l 614 938 q 649 960 630 957 q 685 957 669 964 q 710 935 702 949 q 718 904 719 922 q 707 871 717 886 q 680 849 697 856 l 499 760 z "},"ō":{"ha":786,"x_min":69,"x_max":717,"o":"m 394 -14 q 221 32 294 -14 q 108 153 148 78 q 69 319 69 229 q 108 485 69 410 q 221 607 148 561 q 394 652 294 652 q 566 607 493 652 q 677 485 638 561 q 717 319 717 410 q 677 153 717 229 q 566 32 638 78 q 394 -14 493 -14 m 394 23 q 476 49 444 23 q 527 118 509 75 q 551 215 544 162 q 558 319 558 267 q 551 425 558 372 q 527 520 544 477 q 476 590 509 564 q 394 616 444 616 q 310 590 342 616 q 260 520 278 564 q 235 425 242 477 q 228 319 228 372 q 235 215 228 267 q 260 118 242 162 q 310 49 278 75 q 394 23 342 23 m 226 778 l 226 814 l 560 814 l 560 778 l 226 778 z "},"ø":{"ha":786,"x_min":69,"x_max":717,"o":"m 78 -171 l 669 804 l 706 804 l 115 -171 l 78 -171 m 394 -14 q 221 32 294 -14 q 108 153 148 78 q 69 319 69 229 q 108 485 69 410 q 221 607 148 561 q 394 652 294 652 q 566 607 493 652 q 677 485 638 561 q 717 319 717 410 q 677 153 717 229 q 566 32 638 78 q 394 -14 493 -14 m 394 23 q 476 49 444 23 q 527 118 509 75 q 551 215 544 162 q 558 319 558 267 q 551 425 558 372 q 527 520 544 477 q 476 590 509 564 q 394 616 444 616 q 310 590 342 616 q 260 520 278 564 q 235 425 242 477 q 228 319 228 372 q 235 215 228 267 q 260 118 242 162 q 310 49 278 75 q 394 23 342 23 z "},"õ":{"ha":786,"x_min":69,"x_max":717,"o":"m 394 -14 q 221 32 294 -14 q 108 153 148 78 q 69 319 69 229 q 108 485 69 410 q 221 607 148 561 q 394 652 294 652 q 566 607 493 652 q 677 485 638 561 q 717 319 717 410 q 677 153 717 229 q 566 32 638 78 q 394 -14 493 -14 m 394 23 q 476 49 444 23 q 527 118 509 75 q 551 215 544 162 q 558 319 558 267 q 551 425 558 372 q 527 520 544 477 q 476 590 509 564 q 394 616 444 616 q 310 590 342 616 q 260 520 278 564 q 235 425 242 477 q 228 319 228 372 q 235 215 228 267 q 260 118 242 162 q 310 49 278 75 q 394 23 342 23 m 503 760 q 430 776 460 760 q 375 815 399 793 q 325 853 350 836 q 270 869 301 869 q 214 849 237 869 q 190 778 190 828 l 153 778 q 174 878 153 837 q 230 941 196 919 q 300 962 263 962 q 374 945 344 962 q 426 907 403 928 q 470 869 449 885 q 519 852 492 852 q 577 873 555 852 q 599 944 599 894 l 636 944 q 621 838 636 878 q 576 778 606 797 q 503 760 547 760 z "},"œ":{"ha":1222,"x_min":69,"x_max":1158,"o":"m 394 -14 q 221 32 294 -14 q 108 153 148 78 q 69 319 69 229 q 108 485 69 410 q 221 607 148 561 q 394 652 294 652 q 566 607 493 652 q 677 485 638 561 q 717 319 717 410 q 677 153 717 229 q 566 32 638 78 q 394 -14 493 -14 m 394 23 q 476 49 444 23 q 527 118 509 75 q 551 215 544 162 q 558 319 558 267 q 551 425 558 372 q 527 520 544 477 q 476 590 509 564 q 394 616 444 616 q 310 590 342 616 q 260 520 278 564 q 235 425 242 477 q 228 319 228 372 q 235 215 228 267 q 260 118 242 162 q 310 49 278 75 q 394 23 342 23 m 879 -14 q 717 26 789 -14 q 603 140 645 65 q 560 319 560 215 q 600 499 560 424 q 709 613 640 574 q 870 652 779 652 q 1031 612 970 652 q 1119 507 1092 572 q 1147 366 1147 442 l 654 366 l 654 402 l 983 402 q 980 474 983 437 q 966 544 976 512 q 932 596 955 576 q 870 616 910 616 q 796 593 825 616 q 751 530 767 570 q 728 436 735 489 q 722 324 722 383 q 730 208 722 262 q 757 114 738 154 q 809 50 776 73 q 893 27 842 27 q 1035 69 980 27 q 1117 178 1091 111 l 1158 178 q 1063 41 1131 95 q 879 -14 995 -14 z "},"p":{"ha":863,"x_min":48,"x_max":794,"o":"m 48 -347 l 48 -310 l 142 -310 l 142 602 l 48 602 l 48 639 l 286 639 l 286 460 q 371 599 313 547 q 510 651 429 651 q 647 612 583 651 q 753 498 712 572 q 794 319 794 424 q 753 141 794 215 q 647 26 712 66 q 510 -14 583 -14 q 371 39 429 -14 q 286 178 313 92 l 286 -310 l 380 -310 l 380 -347 l 48 -347 m 477 36 q 560 68 525 36 q 613 162 594 99 q 631 319 631 225 q 613 476 631 414 q 560 570 594 539 q 477 601 525 601 q 385 568 429 601 q 314 471 342 534 q 286 319 286 408 q 314 167 286 231 q 385 70 342 104 q 477 36 429 36 z "},"þ":{"ha":854,"x_min":43,"x_max":792,"o":"m 43 -347 l 43 -310 l 140 -310 l 140 1005 l 43 1005 l 43 1042 l 285 1042 l 285 460 q 369 599 311 547 q 507 651 427 651 q 645 612 580 651 q 751 498 710 572 q 792 319 792 424 q 751 141 792 215 q 645 26 710 66 q 507 -14 580 -14 q 369 39 427 -14 q 285 178 311 92 l 285 -310 l 381 -310 l 381 -347 l 43 -347 m 474 36 q 557 68 523 36 q 610 162 592 99 q 628 319 628 225 q 610 476 628 414 q 557 570 592 539 q 474 601 523 601 q 383 568 427 601 q 312 471 340 534 q 285 319 285 408 q 312 167 285 231 q 383 70 340 104 q 474 36 427 36 z "},"q":{"ha":863,"x_min":69,"x_max":815,"o":"m 482 -347 l 482 -310 l 576 -310 l 576 178 q 492 39 549 91 q 353 -13 435 -13 q 216 26 281 -13 q 110 140 151 66 q 69 319 69 215 q 110 498 69 423 q 216 612 151 572 q 353 652 281 652 q 492 599 435 652 q 576 459 549 547 l 576 639 l 815 639 l 815 602 l 721 602 l 721 -310 l 815 -310 l 815 -347 l 482 -347 m 386 37 q 477 70 434 37 q 549 167 521 104 q 576 319 576 230 q 549 471 576 408 q 477 568 521 534 q 386 601 434 601 q 303 570 338 601 q 251 476 269 539 q 233 319 233 413 q 251 162 233 224 q 303 68 269 99 q 386 37 338 37 z "},"r":{"ha":642,"x_min":48,"x_max":608,"o":"m 262 293 q 276 418 262 355 q 318 535 290 482 q 388 620 347 588 q 482 652 428 652 q 552 636 524 652 q 594 595 580 620 q 608 541 608 569 q 584 474 608 502 q 520 446 560 446 q 455 469 480 446 q 431 528 431 492 q 457 591 431 569 q 520 614 484 614 q 564 604 544 614 q 595 578 583 594 q 607 541 607 561 l 570 541 q 558 579 570 562 q 524 605 545 596 q 478 615 503 615 q 406 588 441 615 q 343 514 372 560 q 299 411 315 468 q 283 293 283 353 l 262 293 m 283 639 l 283 37 l 389 37 l 389 0 l 48 0 l 48 37 l 142 37 l 142 602 l 48 602 l 48 639 l 283 639 z "},"ŕ":{"ha":642,"x_min":48,"x_max":608,"o":"m 262 293 q 276 418 262 355 q 318 535 290 482 q 388 620 347 588 q 482 652 428 652 q 552 636 524 652 q 594 595 580 620 q 608 541 608 569 q 584 474 608 502 q 520 446 560 446 q 455 469 480 446 q 431 528 431 492 q 457 591 431 569 q 520 614 484 614 q 564 604 544 614 q 595 578 583 594 q 607 541 607 561 l 570 541 q 558 579 570 562 q 524 605 545 596 q 478 615 503 615 q 406 588 441 615 q 343 514 372 560 q 299 411 315 468 q 283 293 283 353 l 262 293 m 283 639 l 283 37 l 389 37 l 389 0 l 48 0 l 48 37 l 142 37 l 142 602 l 48 602 l 48 639 l 283 639 m 293 760 l 271 785 l 408 938 q 444 960 424 957 q 480 957 463 964 q 505 935 497 949 q 513 904 514 922 q 501 871 511 886 q 474 849 492 856 l 293 760 z "},"ř":{"ha":642,"x_min":48,"x_max":608,"o":"m 262 293 q 276 418 262 355 q 318 535 290 482 q 388 620 347 588 q 482 652 428 652 q 552 636 524 652 q 594 595 580 620 q 608 541 608 569 q 584 474 608 502 q 520 446 560 446 q 455 469 480 446 q 431 528 431 492 q 457 591 431 569 q 520 614 484 614 q 564 604 544 614 q 595 578 583 594 q 607 541 607 561 l 570 541 q 558 579 570 562 q 524 605 545 596 q 478 615 503 615 q 406 588 441 615 q 343 514 372 560 q 299 411 315 468 q 283 293 283 353 l 262 293 m 283 639 l 283 37 l 389 37 l 389 0 l 48 0 l 48 37 l 142 37 l 142 602 l 48 602 l 48 639 l 283 639 m 289 778 l 133 941 l 151 959 l 338 850 l 525 959 l 544 941 l 388 778 l 289 778 z "},"ŗ":{"ha":642,"x_min":48,"x_max":608,"o":"m 262 293 q 276 418 262 355 q 318 535 290 482 q 388 620 347 588 q 482 652 428 652 q 552 636 524 652 q 594 595 580 620 q 608 541 608 569 q 584 474 608 502 q 520 446 560 446 q 455 469 480 446 q 431 528 431 492 q 457 591 431 569 q 520 614 484 614 q 564 604 544 614 q 595 578 583 594 q 607 541 607 561 l 570 541 q 558 579 570 562 q 524 605 545 596 q 478 615 503 615 q 406 588 441 615 q 343 514 372 560 q 299 411 315 468 q 283 293 283 353 l 262 293 m 283 639 l 283 37 l 389 37 l 389 0 l 48 0 l 48 37 l 142 37 l 142 602 l 48 602 l 48 639 l 283 639 m 135 -447 l 135 -417 q 210 -394 177 -417 q 262 -331 244 -371 q 276 -237 280 -290 l 285 -237 q 277 -258 286 -247 q 252 -278 268 -270 q 216 -287 236 -287 q 157 -265 176 -287 q 138 -212 138 -243 q 148 -174 138 -192 q 178 -147 159 -157 q 221 -137 198 -137 q 282 -167 257 -137 q 308 -253 308 -197 q 288 -347 308 -303 q 229 -419 267 -392 q 135 -447 190 -447 z "},"ȓ":{"ha":642,"x_min":48,"x_max":608,"o":"m 262 293 q 276 418 262 355 q 318 535 290 482 q 388 620 347 588 q 482 652 428 652 q 552 636 524 652 q 594 595 580 620 q 608 541 608 569 q 584 474 608 502 q 520 446 560 446 q 455 469 480 446 q 431 528 431 492 q 457 591 431 569 q 520 614 484 614 q 564 604 544 614 q 595 578 583 594 q 607 541 607 561 l 570 541 q 558 579 570 562 q 524 605 545 596 q 478 615 503 615 q 406 588 441 615 q 343 514 372 560 q 299 411 315 468 q 283 293 283 353 l 262 293 m 283 639 l 283 37 l 389 37 l 389 0 l 48 0 l 48 37 l 142 37 l 142 602 l 48 602 l 48 639 l 283 639 m 182 764 q 196 857 182 813 q 244 928 210 901 q 339 955 278 955 q 435 928 401 955 q 482 857 469 901 q 495 764 495 813 l 473 764 q 455 819 473 797 q 407 852 437 842 q 339 863 376 863 q 272 852 302 863 q 223 819 241 842 q 205 764 205 797 l 182 764 z "},"s":{"ha":613,"x_min":60,"x_max":545,"o":"m 60 -14 l 60 197 l 97 197 q 140 108 110 147 q 212 47 170 69 q 302 25 253 25 q 373 37 340 25 q 425 72 406 49 q 445 130 445 95 q 419 196 445 172 q 351 237 392 221 q 263 269 309 253 q 174 308 216 285 q 106 369 133 331 q 80 468 80 407 q 101 557 80 515 q 165 625 122 599 q 274 651 208 651 q 359 636 320 651 q 428 597 398 622 l 481 652 l 513 652 l 513 458 l 476 458 q 441 533 467 498 q 372 590 414 568 q 276 613 331 613 q 221 602 246 613 q 180 571 196 591 q 165 524 165 551 q 192 466 165 489 q 263 427 220 444 q 355 393 306 410 q 447 351 403 376 q 518 289 490 326 q 545 193 545 251 q 514 82 545 128 q 430 11 482 35 q 314 -14 378 -14 q 224 3 267 -14 q 148 48 182 19 l 92 -14 l 60 -14 z "},"ś":{"ha":613,"x_min":60,"x_max":545,"o":"m 60 -14 l 60 197 l 97 197 q 140 108 110 147 q 212 47 170 69 q 302 25 253 25 q 373 37 340 25 q 425 72 406 49 q 445 130 445 95 q 419 196 445 172 q 351 237 392 221 q 263 269 309 253 q 174 308 216 285 q 106 369 133 331 q 80 468 80 407 q 101 557 80 515 q 165 625 122 599 q 274 651 208 651 q 359 636 320 651 q 428 597 398 622 l 481 652 l 513 652 l 513 458 l 476 458 q 441 533 467 498 q 372 590 414 568 q 276 613 331 613 q 221 602 246 613 q 180 571 196 591 q 165 524 165 551 q 192 466 165 489 q 263 427 220 444 q 355 393 306 410 q 447 351 403 376 q 518 289 490 326 q 545 193 545 251 q 514 82 545 128 q 430 11 482 35 q 314 -14 378 -14 q 224 3 267 -14 q 148 48 182 19 l 92 -14 l 60 -14 m 254 760 l 232 785 l 369 938 q 405 960 385 957 q 441 957 424 964 q 466 935 458 949 q 474 904 475 922 q 463 871 472 886 q 435 849 453 856 l 254 760 z "},"š":{"ha":613,"x_min":60,"x_max":545,"o":"m 60 -14 l 60 197 l 97 197 q 140 108 110 147 q 212 47 170 69 q 302 25 253 25 q 373 37 340 25 q 425 72 406 49 q 445 130 445 95 q 419 196 445 172 q 351 237 392 221 q 263 269 309 253 q 174 308 216 285 q 106 369 133 331 q 80 468 80 407 q 101 557 80 515 q 165 625 122 599 q 274 651 208 651 q 359 636 320 651 q 428 597 398 622 l 481 652 l 513 652 l 513 458 l 476 458 q 441 533 467 498 q 372 590 414 568 q 276 613 331 613 q 221 602 246 613 q 180 571 196 591 q 165 524 165 551 q 192 466 165 489 q 263 427 220 444 q 355 393 306 410 q 447 351 403 376 q 518 289 490 326 q 545 193 545 251 q 514 82 545 128 q 430 11 482 35 q 314 -14 378 -14 q 224 3 267 -14 q 148 48 182 19 l 92 -14 l 60 -14 m 249 778 l 93 941 l 112 959 l 298 850 l 485 959 l 504 941 l 348 778 l 249 778 z "},"ş":{"ha":613,"x_min":60,"x_max":545,"o":"m 60 -14 l 60 197 l 97 197 q 140 108 110 147 q 212 47 170 69 q 302 25 253 25 q 373 37 340 25 q 425 72 406 49 q 445 130 445 95 q 419 196 445 172 q 351 237 392 221 q 263 269 309 253 q 174 308 216 285 q 106 369 133 331 q 80 468 80 407 q 101 557 80 515 q 165 625 122 599 q 274 651 208 651 q 359 636 320 651 q 428 597 398 622 l 481 652 l 513 652 l 513 458 l 476 458 q 441 533 467 498 q 372 590 414 568 q 276 613 331 613 q 221 602 246 613 q 180 571 196 591 q 165 524 165 551 q 192 466 165 489 q 263 427 220 444 q 355 393 306 410 q 447 351 403 376 q 518 289 490 326 q 545 193 545 251 q 514 82 545 128 q 430 11 482 35 q 314 -14 378 -14 q 224 3 267 -14 q 148 48 182 19 l 92 -14 l 60 -14 m 183 -351 l 183 -315 q 280 -295 244 -315 q 315 -242 315 -274 q 295 -193 315 -210 q 242 -169 276 -176 q 166 -162 208 -162 l 288 2 l 334 2 l 252 -107 q 346 -121 306 -109 q 407 -157 385 -133 q 429 -219 429 -181 q 405 -284 429 -254 q 326 -333 381 -315 q 183 -351 272 -351 z "},"ŝ":{"ha":613,"x_min":60,"x_max":545,"o":"m 60 -14 l 60 197 l 97 197 q 140 108 110 147 q 212 47 170 69 q 302 25 253 25 q 373 37 340 25 q 425 72 406 49 q 445 130 445 95 q 419 196 445 172 q 351 237 392 221 q 263 269 309 253 q 174 308 216 285 q 106 369 133 331 q 80 468 80 407 q 101 557 80 515 q 165 625 122 599 q 274 651 208 651 q 359 636 320 651 q 428 597 398 622 l 481 652 l 513 652 l 513 458 l 476 458 q 441 533 467 498 q 372 590 414 568 q 276 613 331 613 q 221 602 246 613 q 180 571 196 591 q 165 524 165 551 q 192 466 165 489 q 263 427 220 444 q 355 393 306 410 q 447 351 403 376 q 518 289 490 326 q 545 193 545 251 q 514 82 545 128 q 430 11 482 35 q 314 -14 378 -14 q 224 3 267 -14 q 148 48 182 19 l 92 -14 l 60 -14 m 111 772 l 93 790 l 249 953 l 348 953 l 504 790 l 485 772 l 298 881 l 111 772 z "},"ș":{"ha":613,"x_min":60,"x_max":545,"o":"m 60 -14 l 60 197 l 97 197 q 140 108 110 147 q 212 47 170 69 q 302 25 253 25 q 373 37 340 25 q 425 72 406 49 q 445 130 445 95 q 419 196 445 172 q 351 237 392 221 q 263 269 309 253 q 174 308 216 285 q 106 369 133 331 q 80 468 80 407 q 101 557 80 515 q 165 625 122 599 q 274 651 208 651 q 359 636 320 651 q 428 597 398 622 l 481 652 l 513 652 l 513 458 l 476 458 q 441 533 467 498 q 372 590 414 568 q 276 613 331 613 q 221 602 246 613 q 180 571 196 591 q 165 524 165 551 q 192 466 165 489 q 263 427 220 444 q 355 393 306 410 q 447 351 403 376 q 518 289 490 326 q 545 193 545 251 q 514 82 545 128 q 430 11 482 35 q 314 -14 378 -14 q 224 3 267 -14 q 148 48 182 19 l 92 -14 l 60 -14 m 220 -451 l 220 -420 q 295 -397 262 -420 q 347 -334 328 -374 q 360 -240 365 -294 l 370 -240 q 362 -262 371 -250 q 337 -282 353 -274 q 301 -290 321 -290 q 242 -268 261 -290 q 222 -216 222 -247 q 233 -178 222 -195 q 263 -150 244 -160 q 306 -140 283 -140 q 367 -170 342 -140 q 392 -256 392 -200 q 372 -351 392 -306 q 314 -423 352 -395 q 220 -451 275 -451 z "},"ß":{"ha":980,"x_min":20,"x_max":925,"o":"m 146 0 l 146 682 q 175 843 146 774 q 256 960 203 913 q 380 1032 308 1008 q 537 1056 451 1056 q 675 1036 612 1056 q 786 981 739 1016 q 858 902 833 947 q 884 807 884 857 q 846 680 884 735 q 724 591 808 624 q 500 558 640 558 l 500 581 q 607 601 564 581 q 674 654 649 622 q 710 724 699 687 q 720 794 720 760 q 711 871 720 831 q 681 945 701 911 q 624 1001 660 980 q 535 1022 588 1022 q 419 995 466 1022 q 345 919 373 967 q 307 806 318 870 q 295 668 295 742 l 295 0 l 146 0 m 20 0 l 20 37 l 413 37 l 413 0 l 20 0 m 649 -14 q 509 42 565 -14 q 454 197 454 97 q 482 270 454 243 q 549 297 510 297 q 609 274 585 297 q 634 210 634 251 q 622 166 634 185 q 589 136 609 147 q 545 125 569 125 q 507 133 528 125 q 472 158 487 142 q 456 197 456 174 l 492 197 q 512 100 492 139 q 564 43 532 62 q 633 24 597 24 q 699 42 674 24 q 738 90 725 60 q 757 154 751 119 q 762 222 762 189 q 752 327 762 272 q 716 433 743 383 q 637 514 689 482 q 500 545 585 545 l 500 568 q 708 540 626 568 q 838 465 791 513 q 905 356 885 417 q 925 227 925 295 q 902 128 925 172 q 841 52 880 83 q 752 3 802 20 q 649 -14 703 -14 z "},"ſ":{"ha":565,"x_min":42,"x_max":631,"o":"m 454 1056 q 552 1034 513 1056 q 611 979 591 1012 q 631 913 631 946 q 604 842 631 866 q 542 818 577 818 q 503 826 523 818 q 470 853 484 835 q 457 902 457 872 q 471 949 457 930 q 505 978 485 968 q 546 987 526 988 q 560 978 553 985 q 568 963 567 972 q 543 991 559 978 q 506 1011 527 1004 q 458 1019 484 1019 q 368 988 401 1019 q 320 898 335 958 q 306 750 306 838 l 306 37 l 469 37 l 469 0 l 42 0 l 42 37 l 163 37 l 163 710 q 197 882 163 803 q 296 1008 231 960 q 454 1056 361 1056 z "},"t":{"ha":477,"x_min":35,"x_max":459,"o":"m 272 -10 q 181 15 212 -10 q 138 78 149 40 q 126 157 126 116 l 126 778 q 203 790 162 778 q 269 819 244 803 l 269 136 q 282 66 269 84 q 325 47 295 47 q 382 72 355 47 q 428 130 410 97 l 459 111 q 388 24 431 57 q 272 -10 345 -10 m 35 602 l 35 639 l 418 639 l 418 602 l 35 602 z "},"ŧ":{"ha":477,"x_min":35,"x_max":459,"o":"m 35 400 l 35 436 l 423 436 l 423 400 l 35 400 m 272 -10 q 181 15 212 -10 q 138 78 149 40 q 126 157 126 116 l 126 778 q 203 790 162 778 q 269 819 244 803 l 269 136 q 282 66 269 84 q 325 47 295 47 q 382 72 355 47 q 428 130 410 97 l 459 111 q 388 24 431 57 q 272 -10 345 -10 m 35 602 l 35 639 l 418 639 l 418 602 l 35 602 z "},"ť":{"ha":477,"x_min":35,"x_max":544,"o":"m 272 -10 q 181 15 212 -10 q 138 78 149 40 q 126 157 126 116 l 126 778 q 203 790 162 778 q 269 819 244 803 l 269 136 q 282 66 269 84 q 325 47 295 47 q 382 72 355 47 q 428 130 410 97 l 459 111 q 388 24 431 57 q 272 -10 345 -10 m 35 602 l 35 639 l 418 639 l 418 602 l 35 602 m 343 748 l 343 783 q 411 799 380 783 q 465 843 442 815 q 499 911 488 872 q 506 997 510 950 l 517 997 q 508 973 518 986 q 479 949 497 959 q 437 939 460 939 q 368 965 391 939 q 345 1026 345 990 q 374 1088 345 1063 q 443 1113 402 1113 q 515 1078 485 1113 q 544 978 544 1044 q 521 867 544 919 q 452 781 497 814 q 343 748 407 748 z "},"ţ":{"ha":477,"x_min":35,"x_max":459,"o":"m 272 -10 q 181 15 212 -10 q 138 78 149 40 q 126 157 126 116 l 126 778 q 203 790 162 778 q 269 819 244 803 l 269 136 q 282 66 269 84 q 325 47 295 47 q 382 72 355 47 q 428 130 410 97 l 459 111 q 388 24 431 57 q 272 -10 345 -10 m 35 602 l 35 639 l 418 639 l 418 602 l 35 602 m 147 -348 l 147 -312 q 243 -291 208 -312 q 278 -238 278 -271 q 259 -189 278 -206 q 206 -166 240 -172 q 130 -159 172 -159 l 252 6 l 298 6 l 216 -103 q 310 -117 270 -106 q 371 -153 349 -129 q 393 -216 393 -177 q 369 -281 393 -251 q 290 -330 344 -311 q 147 -348 236 -348 z "},"ț":{"ha":477,"x_min":35,"x_max":459,"o":"m 272 -10 q 181 15 212 -10 q 138 78 149 40 q 126 157 126 116 l 126 778 q 203 790 162 778 q 269 819 244 803 l 269 136 q 282 66 269 84 q 325 47 295 47 q 382 72 355 47 q 428 130 410 97 l 459 111 q 388 24 431 57 q 272 -10 345 -10 m 35 602 l 35 639 l 418 639 l 418 602 l 35 602 m 184 -447 l 184 -417 q 259 -394 226 -417 q 310 -331 292 -371 q 324 -237 328 -290 l 334 -237 q 326 -258 335 -247 q 301 -278 317 -270 q 265 -287 285 -287 q 206 -265 225 -287 q 186 -212 186 -243 q 197 -174 186 -192 q 227 -147 208 -157 q 269 -137 247 -137 q 331 -167 306 -137 q 356 -253 356 -197 q 336 -347 356 -303 q 277 -419 316 -392 q 184 -447 239 -447 z "},"u":{"ha":851,"x_min":48,"x_max":804,"o":"m 334 -14 q 213 14 254 -14 q 157 88 171 41 q 142 196 142 135 l 142 602 l 48 602 l 48 639 l 286 639 l 286 218 q 292 120 286 160 q 315 59 297 80 q 367 39 332 39 q 449 66 413 39 q 512 138 486 94 q 552 232 538 181 q 565 327 565 282 l 588 329 q 575 224 588 283 q 534 111 563 166 q 456 22 505 57 q 334 -14 407 -14 m 565 0 l 565 602 l 470 602 l 470 639 l 710 639 l 710 37 l 804 37 l 804 0 l 565 0 z "},"ú":{"ha":851,"x_min":48,"x_max":804,"o":"m 334 -14 q 213 14 254 -14 q 157 88 171 41 q 142 196 142 135 l 142 602 l 48 602 l 48 639 l 286 639 l 286 218 q 292 120 286 160 q 315 59 297 80 q 367 39 332 39 q 449 66 413 39 q 512 138 486 94 q 552 232 538 181 q 565 327 565 282 l 588 329 q 575 224 588 283 q 534 111 563 166 q 456 22 505 57 q 334 -14 407 -14 m 565 0 l 565 602 l 470 602 l 470 639 l 710 639 l 710 37 l 804 37 l 804 0 l 565 0 m 348 760 l 326 785 l 463 938 q 499 960 479 957 q 535 957 518 964 q 560 935 551 949 q 567 904 569 922 q 556 871 566 886 q 529 849 547 856 l 348 760 z "},"ŭ":{"ha":851,"x_min":48,"x_max":804,"o":"m 334 -14 q 213 14 254 -14 q 157 88 171 41 q 142 196 142 135 l 142 602 l 48 602 l 48 639 l 286 639 l 286 218 q 292 120 286 160 q 315 59 297 80 q 367 39 332 39 q 449 66 413 39 q 512 138 486 94 q 552 232 538 181 q 565 327 565 282 l 588 329 q 575 224 588 283 q 534 111 563 166 q 456 22 505 57 q 334 -14 407 -14 m 565 0 l 565 602 l 470 602 l 470 639 l 710 639 l 710 37 l 804 37 l 804 0 l 565 0 m 392 764 q 297 791 331 764 q 249 862 263 818 q 236 955 236 906 l 258 955 q 276 899 258 922 q 324 866 294 877 q 392 856 355 856 q 460 866 429 856 q 508 899 490 877 q 526 955 526 922 l 549 955 q 536 862 549 906 q 488 791 522 818 q 392 764 453 764 z "},"û":{"ha":851,"x_min":48,"x_max":804,"o":"m 334 -14 q 213 14 254 -14 q 157 88 171 41 q 142 196 142 135 l 142 602 l 48 602 l 48 639 l 286 639 l 286 218 q 292 120 286 160 q 315 59 297 80 q 367 39 332 39 q 449 66 413 39 q 512 138 486 94 q 552 232 538 181 q 565 327 565 282 l 588 329 q 575 224 588 283 q 534 111 563 166 q 456 22 505 57 q 334 -14 407 -14 m 565 0 l 565 602 l 470 602 l 470 639 l 710 639 l 710 37 l 804 37 l 804 0 l 565 0 m 205 772 l 187 790 l 343 953 l 442 953 l 598 790 l 579 772 l 392 881 l 205 772 z "},"ü":{"ha":851,"x_min":48,"x_max":804,"o":"m 334 -14 q 213 14 254 -14 q 157 88 171 41 q 142 196 142 135 l 142 602 l 48 602 l 48 639 l 286 639 l 286 218 q 292 120 286 160 q 315 59 297 80 q 367 39 332 39 q 449 66 413 39 q 512 138 486 94 q 552 232 538 181 q 565 327 565 282 l 588 329 q 575 224 588 283 q 534 111 563 166 q 456 22 505 57 q 334 -14 407 -14 m 565 0 l 565 602 l 470 602 l 470 639 l 710 639 l 710 37 l 804 37 l 804 0 l 565 0 m 508 770 q 457 791 478 770 q 437 840 437 811 q 457 890 437 869 q 508 911 478 911 q 557 890 537 911 q 578 840 578 869 q 557 791 578 811 q 508 770 537 770 m 274 770 q 225 791 245 770 q 204 840 204 811 q 225 890 204 869 q 275 911 245 911 q 325 890 304 911 q 345 840 345 869 q 325 791 345 811 q 274 770 304 770 z "},"ù":{"ha":851,"x_min":48,"x_max":804,"o":"m 334 -14 q 213 14 254 -14 q 157 88 171 41 q 142 196 142 135 l 142 602 l 48 602 l 48 639 l 286 639 l 286 218 q 292 120 286 160 q 315 59 297 80 q 367 39 332 39 q 449 66 413 39 q 512 138 486 94 q 552 232 538 181 q 565 327 565 282 l 588 329 q 575 224 588 283 q 534 111 563 166 q 456 22 505 57 q 334 -14 407 -14 m 565 0 l 565 602 l 470 602 l 470 639 l 710 639 l 710 37 l 804 37 l 804 0 l 565 0 m 436 760 l 254 849 q 227 871 237 856 q 216 904 217 886 q 224 935 215 922 q 249 957 232 949 q 285 960 265 964 q 320 938 304 957 l 458 785 l 436 760 z "},"ű":{"ha":851,"x_min":48,"x_max":804,"o":"m 334 -14 q 213 14 254 -14 q 157 88 171 41 q 142 196 142 135 l 142 602 l 48 602 l 48 639 l 286 639 l 286 218 q 292 120 286 160 q 315 59 297 80 q 367 39 332 39 q 449 66 413 39 q 512 138 486 94 q 552 232 538 181 q 565 327 565 282 l 588 329 q 575 224 588 283 q 534 111 563 166 q 456 22 505 57 q 334 -14 407 -14 m 565 0 l 565 602 l 470 602 l 470 639 l 710 639 l 710 37 l 804 37 l 804 0 l 565 0 m 203 760 l 181 785 l 318 938 q 353 960 334 957 q 390 957 373 964 q 415 935 406 949 q 422 904 424 922 q 411 871 421 886 q 384 849 401 856 l 203 760 m 497 760 l 475 785 l 613 938 q 648 960 628 957 q 684 957 667 964 q 709 935 701 949 q 717 904 718 922 q 706 871 715 886 q 678 849 696 856 l 497 760 z "},"ū":{"ha":851,"x_min":48,"x_max":804,"o":"m 334 -14 q 213 14 254 -14 q 157 88 171 41 q 142 196 142 135 l 142 602 l 48 602 l 48 639 l 286 639 l 286 218 q 292 120 286 160 q 315 59 297 80 q 367 39 332 39 q 449 66 413 39 q 512 138 486 94 q 552 232 538 181 q 565 327 565 282 l 588 329 q 575 224 588 283 q 534 111 563 166 q 456 22 505 57 q 334 -14 407 -14 m 565 0 l 565 602 l 470 602 l 470 639 l 710 639 l 710 37 l 804 37 l 804 0 l 565 0 m 225 778 l 225 814 l 558 814 l 558 778 l 225 778 z "},"ų":{"ha":851,"x_min":48,"x_max":808,"o":"m 334 -14 q 213 14 254 -14 q 157 88 171 41 q 142 196 142 135 l 142 602 l 48 602 l 48 639 l 286 639 l 286 218 q 292 120 286 160 q 315 59 297 80 q 367 39 332 39 q 449 66 413 39 q 512 138 486 94 q 552 232 538 181 q 565 327 565 282 l 588 329 q 575 224 588 283 q 534 111 563 166 q 456 22 505 57 q 334 -14 407 -14 m 565 0 l 565 602 l 470 602 l 470 639 l 710 639 l 710 37 l 804 37 l 804 0 l 565 0 m 645 -297 q 571 -284 607 -297 q 513 -245 535 -272 q 490 -177 490 -219 q 509 -102 490 -135 q 559 -44 528 -69 q 626 -2 590 -19 q 697 27 663 16 l 708 6 q 672 -26 688 -4 q 644 -78 655 -48 q 634 -144 634 -108 q 651 -214 634 -187 q 701 -240 668 -240 q 751 -222 732 -240 q 784 -180 771 -204 l 808 -196 q 780 -239 798 -215 q 730 -280 762 -262 q 645 -297 698 -297 z "},"ů":{"ha":851,"x_min":48,"x_max":804,"o":"m 334 -14 q 213 14 254 -14 q 157 88 171 41 q 142 196 142 135 l 142 602 l 48 602 l 48 639 l 286 639 l 286 218 q 292 120 286 160 q 315 59 297 80 q 367 39 332 39 q 449 66 413 39 q 512 138 486 94 q 552 232 538 181 q 565 327 565 282 l 588 329 q 575 224 588 283 q 534 111 563 166 q 456 22 505 57 q 334 -14 407 -14 m 565 0 l 565 602 l 470 602 l 470 639 l 710 639 l 710 37 l 804 37 l 804 0 l 565 0 m 392 764 q 300 800 336 764 q 263 888 263 835 q 300 978 263 942 q 392 1014 336 1014 q 484 978 448 1014 q 521 888 521 942 q 484 800 521 835 q 392 764 448 764 m 392 801 q 428 812 413 801 q 451 842 443 823 q 459 888 459 862 q 451 935 459 915 q 428 966 443 955 q 392 977 413 977 q 355 966 370 977 q 333 935 340 955 q 325 888 325 915 q 333 842 325 862 q 355 812 340 823 q 392 801 370 801 z "},"ũ":{"ha":851,"x_min":48,"x_max":804,"o":"m 334 -14 q 213 14 254 -14 q 157 88 171 41 q 142 196 142 135 l 142 602 l 48 602 l 48 639 l 286 639 l 286 218 q 292 120 286 160 q 315 59 297 80 q 367 39 332 39 q 449 66 413 39 q 512 138 486 94 q 552 232 538 181 q 565 327 565 282 l 588 329 q 575 224 588 283 q 534 111 563 166 q 456 22 505 57 q 334 -14 407 -14 m 565 0 l 565 602 l 470 602 l 470 639 l 710 639 l 710 37 l 804 37 l 804 0 l 565 0 m 502 760 q 429 776 460 760 q 374 815 399 793 q 325 853 349 836 q 269 869 300 869 q 213 849 236 869 q 190 778 190 828 l 152 778 q 174 878 152 837 q 229 941 195 919 q 299 962 263 962 q 373 945 343 962 q 425 907 403 928 q 469 869 448 885 q 518 852 491 852 q 576 873 554 852 q 599 944 599 894 l 635 944 q 620 838 635 878 q 575 778 605 797 q 502 760 546 760 z "},"v":{"ha":758,"x_min":21,"x_max":735,"o":"m 735 639 l 735 603 l 658 603 l 409 -14 l 356 -14 l 102 603 l 21 603 l 21 639 l 372 639 l 372 603 l 260 603 l 433 149 l 615 603 l 494 603 l 494 639 l 735 639 z "},"w":{"ha":1080,"x_min":21,"x_max":1056,"o":"m 1056 639 l 1056 603 l 965 603 l 758 -14 l 708 -14 l 544 476 l 347 -14 l 293 -14 l 103 603 l 21 603 l 21 639 l 344 639 l 344 603 l 242 603 l 375 160 l 573 652 l 637 652 l 783 183 l 924 603 l 803 603 l 803 639 l 1056 639 z "},"ẃ":{"ha":1080,"x_min":21,"x_max":1056,"o":"m 1056 639 l 1056 603 l 965 603 l 758 -14 l 708 -14 l 544 476 l 347 -14 l 293 -14 l 103 603 l 21 603 l 21 639 l 344 639 l 344 603 l 242 603 l 375 160 l 573 652 l 637 652 l 783 183 l 924 603 l 803 603 l 803 639 l 1056 639 m 505 760 l 483 785 l 620 938 q 656 960 636 957 q 692 957 675 964 q 717 935 708 949 q 724 904 726 922 q 713 871 723 886 q 686 849 703 856 l 505 760 z "},"ŵ":{"ha":1080,"x_min":21,"x_max":1056,"o":"m 1056 639 l 1056 603 l 965 603 l 758 -14 l 708 -14 l 544 476 l 347 -14 l 293 -14 l 103 603 l 21 603 l 21 639 l 344 639 l 344 603 l 242 603 l 375 160 l 573 652 l 637 652 l 783 183 l 924 603 l 803 603 l 803 639 l 1056 639 m 361 772 l 343 790 l 499 953 l 598 953 l 754 790 l 735 772 l 548 881 l 361 772 z "},"ẅ":{"ha":1080,"x_min":21,"x_max":1056,"o":"m 1056 639 l 1056 603 l 965 603 l 758 -14 l 708 -14 l 544 476 l 347 -14 l 293 -14 l 103 603 l 21 603 l 21 639 l 344 639 l 344 603 l 242 603 l 375 160 l 573 652 l 637 652 l 783 183 l 924 603 l 803 603 l 803 639 l 1056 639 m 665 770 q 614 791 635 770 q 594 840 594 811 q 614 890 594 869 q 665 911 635 911 q 714 890 694 911 q 735 840 735 869 q 714 791 735 811 q 665 770 694 770 m 431 770 q 382 791 402 770 q 361 840 361 811 q 382 890 361 869 q 432 911 402 911 q 482 890 461 911 q 502 840 502 869 q 482 791 502 811 q 431 770 461 770 z "},"ẇ":{"ha":1080,"x_min":21,"x_max":1056,"o":"m 1056 639 l 1056 603 l 965 603 l 758 -14 l 708 -14 l 544 476 l 347 -14 l 293 -14 l 103 603 l 21 603 l 21 639 l 344 639 l 344 603 l 242 603 l 375 160 l 573 652 l 637 652 l 783 183 l 924 603 l 803 603 l 803 639 l 1056 639 m 549 865 q 483 892 510 865 q 456 958 456 919 q 483 1024 456 997 q 549 1051 510 1051 q 615 1024 588 1051 q 642 958 642 997 q 615 892 642 919 q 549 865 588 865 z "},"ẉ":{"ha":1080,"x_min":21,"x_max":1056,"o":"m 1056 639 l 1056 603 l 965 603 l 758 -14 l 708 -14 l 544 476 l 347 -14 l 293 -14 l 103 603 l 21 603 l 21 639 l 344 639 l 344 603 l 242 603 l 375 160 l 573 652 l 637 652 l 783 183 l 924 603 l 803 603 l 803 639 l 1056 639 m 544 -299 q 479 -272 506 -299 q 451 -206 451 -244 q 479 -140 451 -167 q 544 -113 506 -113 q 610 -140 583 -113 q 638 -206 638 -167 q 610 -272 638 -244 q 544 -299 583 -299 z "},"ẁ":{"ha":1080,"x_min":21,"x_max":1056,"o":"m 1056 639 l 1056 603 l 965 603 l 758 -14 l 708 -14 l 544 476 l 347 -14 l 293 -14 l 103 603 l 21 603 l 21 639 l 344 639 l 344 603 l 242 603 l 375 160 l 573 652 l 637 652 l 783 183 l 924 603 l 803 603 l 803 639 l 1056 639 m 592 760 l 410 849 q 383 871 393 856 q 373 904 374 886 q 380 935 372 922 q 405 957 388 949 q 441 960 422 964 q 476 938 460 957 l 614 785 l 592 760 z "},"x":{"ha":813,"x_min":35,"x_max":779,"o":"m 447 0 l 447 36 l 526 36 l 144 603 l 47 603 l 47 639 l 399 639 l 399 603 l 313 603 l 695 36 l 779 36 l 779 0 l 447 0 m 35 0 l 35 36 l 126 36 l 609 603 l 504 603 l 504 639 l 760 639 l 760 603 l 655 603 l 172 36 l 299 36 l 299 0 l 35 0 z "},"y":{"ha":778,"x_min":19,"x_max":771,"o":"m 256 603 l 478 142 l 398 -27 l 91 603 l 19 603 l 19 639 l 371 639 l 371 603 l 256 603 m 771 639 l 771 603 l 693 603 l 310 -268 q 264 -339 289 -312 q 196 -365 238 -365 q 156 -357 176 -365 q 122 -330 135 -348 q 108 -283 108 -311 q 119 -237 108 -257 q 150 -207 131 -218 q 194 -196 169 -196 q 228 -203 213 -196 q 256 -225 244 -211 q 271 -256 267 -238 l 649 603 l 539 603 l 539 639 l 771 639 z "},"ý":{"ha":778,"x_min":19,"x_max":771,"o":"m 256 603 l 478 142 l 398 -27 l 91 603 l 19 603 l 19 639 l 371 639 l 371 603 l 256 603 m 771 639 l 771 603 l 693 603 l 310 -268 q 264 -339 289 -312 q 196 -365 238 -365 q 156 -357 176 -365 q 122 -330 135 -348 q 108 -283 108 -311 q 119 -237 108 -257 q 150 -207 131 -218 q 194 -196 169 -196 q 228 -203 213 -196 q 256 -225 244 -211 q 271 -256 267 -238 l 649 603 l 539 603 l 539 639 l 771 639 m 385 760 l 363 785 l 501 938 q 536 960 517 957 q 572 957 556 964 q 597 935 589 949 q 605 904 606 922 q 594 871 603 886 q 567 849 584 856 l 385 760 z "},"ŷ":{"ha":778,"x_min":19,"x_max":771,"o":"m 256 603 l 478 142 l 398 -27 l 91 603 l 19 603 l 19 639 l 371 639 l 371 603 l 256 603 m 771 639 l 771 603 l 693 603 l 310 -268 q 264 -339 289 -312 q 196 -365 238 -365 q 156 -357 176 -365 q 122 -330 135 -348 q 108 -283 108 -311 q 119 -237 108 -257 q 150 -207 131 -218 q 194 -196 169 -196 q 228 -203 213 -196 q 256 -225 244 -211 q 271 -256 267 -238 l 649 603 l 539 603 l 539 639 l 771 639 m 242 772 l 224 790 l 381 953 l 479 953 l 635 790 l 617 772 l 429 881 l 242 772 z "},"ÿ":{"ha":778,"x_min":19,"x_max":771,"o":"m 256 603 l 478 142 l 398 -27 l 91 603 l 19 603 l 19 639 l 371 639 l 371 603 l 256 603 m 771 639 l 771 603 l 693 603 l 310 -268 q 264 -339 289 -312 q 196 -365 238 -365 q 156 -357 176 -365 q 122 -330 135 -348 q 108 -283 108 -311 q 119 -237 108 -257 q 150 -207 131 -218 q 194 -196 169 -196 q 228 -203 213 -196 q 256 -225 244 -211 q 271 -256 267 -238 l 649 603 l 539 603 l 539 639 l 771 639 m 545 770 q 495 791 515 770 q 474 840 474 811 q 495 890 474 869 q 545 911 515 911 q 595 890 574 911 q 615 840 615 869 q 595 791 615 811 q 545 770 574 770 m 312 770 q 262 791 283 770 q 242 840 242 811 q 262 890 242 869 q 313 911 283 911 q 362 890 342 911 q 383 840 383 869 q 362 791 383 811 q 312 770 342 770 z "},"ỳ":{"ha":778,"x_min":19,"x_max":771,"o":"m 256 603 l 478 142 l 398 -27 l 91 603 l 19 603 l 19 639 l 371 639 l 371 603 l 256 603 m 771 639 l 771 603 l 693 603 l 310 -268 q 264 -339 289 -312 q 196 -365 238 -365 q 156 -357 176 -365 q 122 -330 135 -348 q 108 -283 108 -311 q 119 -237 108 -257 q 150 -207 131 -218 q 194 -196 169 -196 q 228 -203 213 -196 q 256 -225 244 -211 q 271 -256 267 -238 l 649 603 l 539 603 l 539 639 l 771 639 m 474 760 l 292 849 q 265 871 274 856 q 254 904 255 886 q 261 935 253 922 q 286 957 269 949 q 322 960 303 964 q 358 938 342 957 l 495 785 l 474 760 z "},"z":{"ha":658,"x_min":42,"x_max":609,"o":"m 42 0 l 42 36 l 422 603 l 308 603 q 192 581 233 603 q 136 515 152 560 q 117 400 120 470 l 81 400 l 81 639 l 587 639 l 587 603 l 205 36 l 350 36 q 460 47 417 36 q 527 81 503 57 q 561 148 551 106 q 573 256 571 191 l 609 256 l 609 0 l 42 0 z "},"ź":{"ha":658,"x_min":42,"x_max":609,"o":"m 42 0 l 42 36 l 422 603 l 308 603 q 192 581 233 603 q 136 515 152 560 q 117 400 120 470 l 81 400 l 81 639 l 587 639 l 587 603 l 205 36 l 350 36 q 460 47 417 36 q 527 81 503 57 q 561 148 551 106 q 573 256 571 191 l 609 256 l 609 0 l 42 0 m 290 760 l 268 785 l 406 938 q 441 960 422 957 q 477 957 460 964 q 502 935 494 949 q 510 904 511 922 q 499 871 508 886 q 472 849 489 856 l 290 760 z "},"ž":{"ha":658,"x_min":42,"x_max":609,"o":"m 42 0 l 42 36 l 422 603 l 308 603 q 192 581 233 603 q 136 515 152 560 q 117 400 120 470 l 81 400 l 81 639 l 587 639 l 587 603 l 205 36 l 350 36 q 460 47 417 36 q 527 81 503 57 q 561 148 551 106 q 573 256 571 191 l 609 256 l 609 0 l 42 0 m 286 778 l 130 941 l 149 959 l 335 850 l 522 959 l 541 941 l 385 778 l 286 778 z "},"ż":{"ha":658,"x_min":42,"x_max":609,"o":"m 42 0 l 42 36 l 422 603 l 308 603 q 192 581 233 603 q 136 515 152 560 q 117 400 120 470 l 81 400 l 81 639 l 587 639 l 587 603 l 205 36 l 350 36 q 460 47 417 36 q 527 81 503 57 q 561 148 551 106 q 573 256 571 191 l 609 256 l 609 0 l 42 0 m 335 865 q 269 892 297 865 q 242 958 242 919 q 269 1024 242 997 q 335 1051 297 1051 q 401 1024 374 1051 q 428 958 428 997 q 401 892 428 919 q 335 865 374 865 z "},"ﬁ":{"ha":865,"x_min":42,"x_max":813,"o":"m 164 0 l 164 710 q 188 845 164 782 q 256 955 212 908 q 361 1029 300 1002 q 497 1056 423 1056 q 612 1035 560 1056 q 693 981 663 1014 q 723 913 723 949 q 696 843 723 867 q 634 818 669 818 q 576 838 604 818 q 549 903 549 858 q 562 949 549 929 q 595 978 575 968 q 634 989 615 989 q 694 968 666 989 q 722 913 722 948 l 685 913 q 658 965 685 940 q 588 1004 631 989 q 497 1019 545 1019 q 392 989 435 1019 q 328 899 350 958 q 306 750 306 839 l 306 0 l 164 0 m 42 0 l 42 37 l 813 37 l 813 0 l 42 0 m 571 0 l 571 602 l 42 602 l 42 639 l 715 639 l 715 0 l 571 0 z "},"ﬂ":{"ha":899,"x_min":42,"x_max":850,"o":"m 164 0 l 164 710 q 199 883 164 804 q 301 1008 235 961 q 460 1056 367 1056 q 558 1034 518 1056 q 619 980 599 1013 q 640 913 640 947 q 613 843 640 867 q 551 818 587 818 q 493 838 522 818 q 465 903 465 858 q 493 965 465 943 q 551 988 522 988 q 611 968 583 988 q 638 913 638 948 l 602 913 q 584 964 602 940 q 534 1003 566 988 q 460 1019 501 1019 q 372 988 406 1019 q 322 898 338 958 q 306 750 306 838 l 306 0 l 164 0 m 42 0 l 42 37 l 850 37 l 850 0 l 42 0 m 42 602 l 42 639 l 497 639 l 497 602 l 42 602 m 585 0 l 585 1014 l 729 1069 l 729 0 l 585 0 z "},"ª":{"ha":448,"x_min":31,"x_max":434,"o":"m 352 661 q 298 678 320 661 q 275 735 275 696 l 275 923 q 270 980 275 953 q 248 1023 265 1006 q 199 1039 232 1039 q 150 1032 176 1039 q 106 1011 124 1026 q 88 973 88 997 l 61 973 q 77 1009 61 996 q 112 1022 92 1022 q 149 1010 132 1022 q 165 975 165 998 q 148 936 165 949 q 112 924 131 924 q 75 936 90 924 q 60 973 60 949 q 83 1019 60 1000 q 140 1049 105 1039 q 214 1060 176 1060 q 304 1040 272 1060 q 348 990 335 1021 q 360 923 360 958 l 360 724 q 364 701 360 710 q 383 692 368 692 q 404 699 392 692 q 422 717 416 706 l 434 699 q 402 672 422 683 q 352 661 381 661 m 150 661 q 64 689 96 661 q 31 764 31 717 q 80 852 31 819 q 217 885 128 885 l 314 885 l 314 867 l 224 867 q 167 852 189 867 q 134 816 144 838 q 124 773 124 794 q 139 720 124 742 q 184 697 154 697 q 245 729 216 697 q 275 823 275 760 l 288 823 q 251 706 288 751 q 150 661 214 661 z "},"º":{"ha":786,"x_min":201,"x_max":589,"o":"m 395 660 q 291 687 335 660 q 224 760 248 715 q 201 860 201 806 q 224 959 201 914 q 291 1032 248 1005 q 395 1060 335 1060 q 499 1032 455 1060 q 566 959 542 1005 q 589 860 589 914 q 566 760 589 806 q 499 687 542 715 q 395 660 455 660 m 395 682 q 457 709 436 682 q 486 777 478 735 q 494 860 494 818 q 486 943 494 901 q 457 1011 478 984 q 395 1038 436 1038 q 333 1011 354 1038 q 303 943 311 984 q 296 860 296 901 q 303 777 296 818 q 333 709 311 735 q 395 682 354 682 z "},"Δ":{"ha":893,"x_min":47,"x_max":851,"o":"m 47 0 l 424 1062 l 483 1062 l 851 0 l 672 0 l 390 861 l 90 0 l 47 0 m 72 0 l 72 37 l 797 37 l 797 0 l 72 0 z "},"Ω":{"ha":1078,"x_min":90,"x_max":988,"o":"m 435 219 q 313 266 374 232 q 202 353 252 300 q 121 475 151 406 q 90 630 90 545 q 145 856 90 760 q 301 1004 201 952 q 539 1056 402 1056 q 777 1004 676 1056 q 933 856 877 952 q 988 630 988 760 q 958 476 988 545 q 877 356 927 407 q 766 271 826 304 q 644 225 705 238 l 644 259 q 738 335 699 283 q 795 464 776 388 q 815 630 815 539 q 802 782 815 711 q 760 907 790 853 q 675 992 729 961 q 539 1022 622 1022 q 402 992 456 1022 q 318 907 349 961 q 276 782 288 853 q 264 630 264 711 q 283 462 264 539 q 341 331 303 385 q 435 253 379 276 l 435 219 m 125 0 l 125 228 l 162 228 q 186 156 162 179 q 264 133 210 133 l 399 133 l 399 239 l 435 238 l 435 0 l 125 0 m 644 0 l 644 245 l 679 245 l 679 133 l 815 133 q 892 156 868 133 q 917 228 917 179 l 953 228 l 953 0 l 644 0 z "},"μ":{"ha":851,"x_min":48,"x_max":804,"o":"m 710 639 l 710 37 l 804 37 l 804 0 l 565 0 l 565 199 q 522 97 551 146 q 448 17 494 49 q 334 -14 402 -14 q 233 7 269 -14 q 178 62 196 27 l 178 -168 q 196 -245 178 -213 q 242 -297 213 -278 q 304 -323 271 -317 q 288 -292 294 -312 q 281 -253 281 -273 q 308 -189 281 -217 q 372 -161 335 -161 q 436 -189 410 -161 q 463 -259 463 -217 q 434 -331 463 -301 q 342 -361 404 -361 q 245 -339 291 -361 q 171 -274 200 -317 q 142 -168 142 -231 l 142 602 l 48 602 l 48 639 l 286 639 l 286 218 q 292 120 286 160 q 315 59 297 80 q 367 39 332 39 q 449 66 413 39 q 512 138 486 94 q 552 232 538 181 q 565 327 565 282 l 565 602 l 470 602 l 470 639 l 710 639 z "},"π":{"ha":826,"x_min":57,"x_max":778,"o":"m 57 390 l 57 639 l 750 639 l 750 494 l 94 494 l 94 390 l 57 390 m 152 -14 q 84 8 107 -14 q 60 60 60 31 q 73 103 60 87 q 105 134 85 120 q 147 165 125 147 q 189 209 169 182 q 222 279 209 235 q 234 388 234 322 l 234 556 l 311 556 l 311 338 q 269 80 311 173 q 152 -14 228 -14 m 618 -14 q 522 14 564 -14 q 480 106 480 42 l 480 539 l 625 539 l 625 139 q 638 103 625 118 q 676 88 651 88 q 715 103 698 88 q 753 158 733 119 l 778 143 q 714 28 754 70 q 618 -14 673 -14 z "},"¹":{"ha":735,"x_min":188,"x_max":481,"o":"m 296 640 l 296 1236 l 201 1236 l 201 1258 l 390 1258 l 390 640 l 296 640 m 188 633 l 188 656 l 481 656 l 481 633 l 188 633 z "},"²":{"ha":652,"x_min":133,"x_max":540,"o":"m 133 635 l 133 697 l 317 865 q 397 970 368 913 q 426 1089 426 1027 q 391 1198 426 1157 q 303 1239 356 1239 q 230 1220 262 1239 q 181 1166 198 1201 q 165 1083 163 1131 l 144 1083 q 164 1114 144 1100 q 206 1127 183 1127 q 244 1113 226 1127 q 262 1074 262 1098 q 245 1030 262 1046 q 203 1013 228 1013 q 161 1032 178 1013 q 144 1083 144 1051 q 190 1216 140 1163 q 335 1269 240 1269 q 474 1221 425 1269 q 524 1110 524 1174 q 515 1052 524 1078 q 493 1005 507 1026 q 462 966 480 983 q 426 931 444 948 l 200 724 l 519 724 l 519 787 l 540 787 l 540 635 l 133 635 z "},"³":{"ha":624,"x_min":107,"x_max":499,"o":"m 284 626 q 184 645 224 626 q 126 692 145 663 q 107 752 107 721 q 123 796 107 780 q 163 812 139 812 q 198 798 183 812 q 213 759 213 784 q 197 723 213 737 q 160 710 181 710 q 124 722 140 710 q 108 752 108 734 l 129 752 q 147 701 129 724 q 194 663 164 677 q 265 649 225 649 q 368 694 337 649 q 400 803 400 739 q 389 872 400 835 q 343 935 377 909 q 242 962 310 962 l 242 976 q 398 951 342 976 q 476 887 454 926 q 499 801 499 847 q 469 708 499 747 q 392 648 440 669 q 284 626 343 626 m 242 970 l 242 983 q 333 1007 306 983 q 368 1064 361 1031 q 375 1126 375 1097 q 364 1187 375 1160 q 331 1230 353 1214 q 277 1245 309 1245 q 233 1239 255 1245 q 194 1219 212 1232 q 165 1189 176 1207 q 154 1151 154 1172 l 133 1151 q 150 1183 133 1172 q 185 1195 167 1195 q 223 1182 206 1195 q 239 1145 239 1169 q 221 1106 239 1118 q 185 1093 203 1093 q 148 1108 165 1093 q 131 1151 131 1123 q 154 1208 131 1182 q 213 1251 176 1235 q 292 1267 250 1267 q 380 1251 339 1267 q 448 1204 422 1235 q 474 1127 474 1173 q 456 1050 474 1085 q 388 992 438 1014 q 242 970 338 970 z "},"⁴":{"ha":550,"x_min":38,"x_max":509,"o":"m 245 638 l 245 660 l 324 660 l 324 1195 l 78 828 l 509 828 l 509 806 l 38 806 l 342 1263 l 417 1263 l 417 660 l 480 660 l 480 638 l 245 638 z "},"⁄":{"ha":744,"x_min":56,"x_max":683,"o":"m 56 -208 l 647 1084 l 683 1084 l 92 -208 l 56 -208 z "},"½":{"ha":942,"x_min":31,"x_max":914,"o":"m 49 -139 l 706 903 l 742 903 l 86 -139 l 49 -139 m 31 494 l 31 517 l 324 517 l 324 494 l 31 494 m 507 -140 l 507 -78 l 691 90 q 771 194 742 138 q 800 313 800 251 q 765 423 800 381 q 676 464 730 464 q 604 445 636 464 q 555 391 572 426 q 539 308 537 356 l 518 308 q 537 338 518 325 q 580 351 556 351 q 618 337 600 351 q 635 298 635 323 q 618 254 635 270 q 576 238 601 238 q 535 257 552 238 q 517 308 518 276 q 564 440 515 387 q 708 493 614 493 q 848 446 799 493 q 897 335 897 399 q 889 277 897 303 q 867 230 881 251 q 836 190 853 208 q 799 156 818 172 l 574 -51 l 892 -51 l 892 11 l 914 11 l 914 -140 l 507 -140 m 139 501 l 139 1097 l 44 1097 l 44 1119 l 232 1119 l 232 501 l 139 501 z "},"¼":{"ha":901,"x_min":31,"x_max":873,"o":"m 51 -139 l 708 903 l 744 903 l 88 -139 l 51 -139 m 31 494 l 31 517 l 324 517 l 324 494 l 31 494 m 609 -143 l 609 -121 l 688 -121 l 688 414 l 442 47 l 873 47 l 873 25 l 401 25 l 706 482 l 781 482 l 781 -121 l 844 -121 l 844 -143 l 609 -143 m 139 501 l 139 1097 l 44 1097 l 44 1119 l 232 1119 l 232 501 l 139 501 z "},"¾":{"ha":985,"x_min":28,"x_max":956,"o":"m 133 -139 l 789 903 l 826 903 l 169 -139 l 133 -139 m 205 483 q 105 502 144 483 q 47 549 66 520 q 28 609 28 578 q 44 653 28 637 q 83 669 60 669 q 119 655 105 669 q 134 616 134 641 q 118 580 134 594 q 81 567 101 567 q 44 579 60 567 q 28 609 28 591 l 50 609 q 67 558 50 581 q 115 520 85 534 q 186 506 146 506 q 290 551 258 506 q 322 660 322 596 q 310 729 322 692 q 264 792 298 766 q 163 819 231 819 l 163 833 q 319 808 263 833 q 397 744 375 783 q 419 658 419 704 q 391 565 419 604 q 313 505 362 526 q 205 483 264 483 m 692 -143 l 692 -121 l 772 -121 l 772 414 l 526 47 l 956 47 l 956 25 l 485 25 l 790 482 l 865 482 l 865 -121 l 927 -121 l 927 -143 l 692 -143 m 163 827 l 163 840 q 254 864 226 840 q 289 921 282 888 q 297 983 297 954 q 285 1044 297 1017 q 252 1086 274 1071 q 198 1102 231 1102 q 155 1095 176 1102 q 115 1076 133 1089 q 86 1046 97 1064 q 75 1008 75 1028 l 53 1008 q 71 1040 53 1028 q 106 1052 88 1052 q 143 1039 127 1052 q 160 1002 160 1026 q 142 963 160 975 q 106 950 124 950 q 69 965 85 950 q 52 1008 52 980 q 75 1065 52 1039 q 134 1108 97 1092 q 213 1124 171 1124 q 301 1108 260 1124 q 369 1061 343 1092 q 394 984 394 1030 q 377 907 394 942 q 309 849 359 871 q 163 827 259 827 z "},".":{"ha":300,"x_min":56,"x_max":246,"o":"m 151 -14 q 103 -1 124 -14 q 68 33 81 12 q 56 81 56 55 q 68 129 56 107 q 103 164 81 151 q 151 176 124 176 q 198 164 176 176 q 233 129 220 151 q 246 81 246 107 q 233 33 246 55 q 198 -1 220 12 q 151 -14 176 -14 z "},",":{"ha":322,"x_min":53,"x_max":269,"o":"m 53 -213 l 53 -176 q 126 -160 92 -176 q 184 -113 160 -143 q 220 -42 208 -83 q 228 49 233 -1 l 240 49 q 230 22 241 37 q 199 -3 219 8 q 153 -14 179 -14 q 80 14 105 -14 q 56 80 56 42 q 69 127 56 106 q 107 161 83 149 q 160 174 131 174 q 215 157 190 174 q 255 108 240 140 q 269 29 269 76 q 244 -89 269 -33 q 170 -179 218 -144 q 53 -213 122 -213 z "},":":{"ha":298,"x_min":56,"x_max":246,"o":"m 151 550 q 103 563 124 550 q 68 597 81 576 q 56 645 56 619 q 68 693 56 671 q 103 727 81 715 q 151 740 124 740 q 198 727 176 740 q 233 693 220 715 q 246 645 246 671 q 233 597 246 619 q 198 563 220 576 q 151 550 176 550 m 151 -14 q 103 -1 124 -14 q 68 33 81 12 q 56 81 56 55 q 68 129 56 107 q 103 164 81 151 q 151 176 124 176 q 198 164 176 176 q 233 129 220 151 q 246 81 246 107 q 233 33 246 55 q 198 -1 220 12 q 151 -14 176 -14 z "},";":{"ha":322,"x_min":53,"x_max":269,"o":"m 151 550 q 103 563 125 550 q 69 597 82 576 q 56 645 56 619 q 69 693 56 671 q 103 727 82 715 q 151 740 125 740 q 199 727 177 740 q 234 693 221 715 q 247 645 247 671 q 234 597 247 619 q 199 563 221 576 q 151 550 177 550 m 53 -213 l 53 -176 q 127 -160 93 -176 q 185 -113 160 -143 q 221 -42 209 -83 q 229 49 233 -1 l 241 49 q 231 22 242 37 q 200 -3 219 8 q 154 -14 180 -14 q 81 14 106 -14 q 56 80 56 42 q 70 127 56 106 q 108 161 84 149 q 161 174 132 174 q 216 157 191 174 q 256 108 241 140 q 270 29 270 76 q 244 -89 270 -33 q 170 -179 219 -144 q 53 -213 122 -213 z "},"…":{"ha":903,"x_min":56,"x_max":848,"o":"m 753 -14 q 705 -1 726 -14 q 670 33 683 12 q 658 81 658 55 q 670 129 658 107 q 705 164 683 151 q 753 176 726 176 q 800 164 778 176 q 835 129 822 151 q 848 81 848 107 q 835 33 848 55 q 800 -1 822 12 q 753 -14 778 -14 m 452 -14 q 404 -1 426 -14 q 370 33 383 12 q 357 81 357 55 q 370 129 357 107 q 404 164 383 151 q 452 176 426 176 q 500 164 478 176 q 534 129 522 151 q 547 81 547 107 q 534 33 547 55 q 500 -1 522 12 q 452 -14 478 -14 m 151 -14 q 103 -1 124 -14 q 68 33 81 12 q 56 81 56 55 q 68 129 56 107 q 103 164 81 151 q 151 176 124 176 q 198 164 176 176 q 233 129 220 151 q 246 81 246 107 q 233 33 246 55 q 198 -1 220 12 q 151 -14 176 -14 z "},"!":{"ha":465,"x_min":138,"x_max":328,"o":"m 213 308 q 204 453 213 383 q 181 595 194 524 q 156 743 168 667 q 138 908 144 820 q 138 921 138 915 q 138 933 138 927 q 158 1018 138 984 q 232 1053 178 1053 q 306 1018 285 1053 q 327 933 327 984 q 326 921 327 927 q 326 908 326 915 q 308 743 320 820 q 282 595 295 667 q 259 453 269 524 q 250 308 250 383 l 213 308 m 233 -14 q 185 -1 207 -14 q 151 33 164 12 q 138 81 138 55 q 151 129 138 107 q 185 164 164 151 q 233 176 207 176 q 281 164 260 176 q 315 129 302 151 q 328 81 328 107 q 315 33 328 55 q 281 -1 302 12 q 233 -14 260 -14 z "},"¡":{"ha":466,"x_min":139,"x_max":329,"o":"m 235 -331 q 161 -296 183 -331 q 140 -211 140 -262 q 141 -199 140 -205 q 142 -185 142 -192 q 160 -21 147 -98 q 185 127 172 56 q 208 269 199 199 q 217 414 217 340 l 254 414 q 264 269 254 340 q 286 127 273 199 q 311 -21 299 56 q 329 -185 324 -98 q 329 -199 329 -192 q 329 -211 329 -205 q 309 -296 329 -262 q 235 -331 289 -331 m 234 546 q 186 559 208 546 q 152 593 165 572 q 139 641 139 615 q 152 689 139 667 q 186 723 165 710 q 234 736 208 736 q 282 723 260 736 q 316 689 303 710 q 329 641 329 667 q 316 593 329 615 q 282 559 303 572 q 234 546 260 546 z "},"?":{"ha":776,"x_min":83,"x_max":708,"o":"m 328 304 l 328 492 q 448 556 400 513 q 520 656 496 599 q 544 778 544 713 q 537 870 544 827 q 510 947 530 913 q 453 999 491 980 q 356 1017 416 1017 q 265 1000 307 1017 q 190 954 222 983 q 139 889 158 925 q 121 816 121 853 l 85 816 q 97 857 85 839 q 130 884 110 874 q 172 893 151 893 q 216 883 196 893 q 249 853 236 873 q 261 808 261 834 q 247 758 261 777 q 213 730 233 739 q 172 721 192 721 q 110 745 137 721 q 83 816 83 770 q 106 901 83 859 q 168 978 128 944 q 262 1034 208 1013 q 377 1056 315 1056 q 552 1021 478 1056 q 667 924 626 986 q 708 778 708 861 q 665 632 708 698 q 544 523 621 565 q 365 475 467 481 l 365 304 l 328 304 m 353 -14 q 306 -1 328 -14 q 272 33 285 12 q 258 81 258 55 q 272 129 258 107 q 306 164 285 151 q 353 176 328 176 q 401 164 380 176 q 436 129 423 151 q 449 81 449 107 q 436 33 449 55 q 401 -1 423 12 q 353 -14 380 -14 z "},"¿":{"ha":776,"x_min":63,"x_max":688,"o":"m 394 -333 q 220 -299 294 -333 q 105 -201 146 -264 q 63 -56 63 -139 q 107 91 63 24 q 228 199 151 157 q 407 247 305 241 l 407 418 l 444 418 l 444 230 q 324 166 372 209 q 251 66 276 124 q 227 -56 227 9 q 234 -148 227 -104 q 261 -224 242 -191 q 318 -276 281 -258 q 416 -295 356 -295 q 507 -278 465 -295 q 582 -232 549 -261 q 632 -167 614 -203 q 651 -94 651 -131 l 687 -94 q 674 -134 687 -117 q 642 -161 662 -151 q 599 -171 622 -171 q 556 -161 577 -171 q 523 -131 535 -151 q 510 -85 510 -112 q 524 -36 510 -55 q 559 -8 538 -17 q 599 1 580 1 q 661 -23 635 1 q 688 -94 688 -47 q 666 -179 688 -136 q 603 -256 643 -222 q 510 -312 563 -291 q 394 -333 456 -333 m 418 546 q 370 559 392 546 q 336 593 349 572 q 323 641 323 615 q 336 689 323 667 q 370 723 349 710 q 418 736 392 736 q 466 723 444 736 q 500 689 488 710 q 513 641 513 667 q 500 593 513 615 q 466 559 488 572 q 418 546 444 546 z "},"·":{"ha":298,"x_min":56,"x_max":246,"o":"m 151 472 q 103 485 124 472 q 68 519 81 498 q 56 567 56 541 q 68 615 56 593 q 103 650 81 637 q 151 663 124 663 q 198 650 176 663 q 233 615 220 637 q 246 567 246 593 q 233 519 246 541 q 198 485 220 498 q 151 472 176 472 z "},"•":{"ha":277,"x_min":56,"x_max":246,"o":"m 151 424 q 103 436 124 424 q 68 471 81 449 q 56 519 56 492 q 68 566 56 544 q 103 601 81 588 q 151 614 124 614 q 198 601 176 614 q 233 566 220 588 q 246 519 246 544 q 233 471 246 492 q 198 436 220 449 q 151 424 176 424 z "},"*":{"ha":876,"x_min":83,"x_max":794,"o":"m 438 274 q 381 299 403 274 q 359 367 359 324 q 359 379 359 373 q 360 392 360 385 q 374 453 365 428 q 393 502 383 478 q 410 556 403 525 q 419 632 417 586 q 358 585 381 607 q 320 544 335 564 q 287 503 304 524 q 241 461 269 483 q 230 453 235 456 q 219 447 225 451 q 150 433 182 426 q 100 469 118 440 q 93 531 83 500 q 140 584 103 563 q 151 590 146 588 q 163 596 156 593 q 223 615 197 610 q 275 623 249 619 q 330 634 300 626 q 400 665 359 643 q 330 695 359 686 q 275 707 300 703 q 223 715 249 710 q 163 734 197 720 q 151 740 156 737 q 140 745 146 742 q 93 799 103 767 q 100 860 83 830 q 150 897 118 890 q 219 883 182 904 q 230 877 225 880 q 241 869 235 874 q 287 826 269 847 q 320 785 304 806 q 358 744 335 765 q 419 698 381 722 q 410 774 417 744 q 393 828 403 804 q 374 876 383 851 q 360 938 365 901 q 359 951 360 945 q 359 963 359 957 q 381 1031 359 1007 q 438 1056 403 1056 q 495 1031 474 1056 q 517 963 517 1007 q 517 951 517 957 q 516 938 517 945 q 502 876 511 901 q 483 828 493 851 q 467 774 474 804 q 457 698 460 744 q 519 744 497 722 q 557 785 542 765 q 590 826 573 806 q 636 869 608 847 q 647 877 642 874 q 658 883 653 880 q 727 897 695 904 q 776 860 759 890 q 784 799 794 830 q 737 745 774 767 q 726 740 732 742 q 714 734 721 737 q 654 715 681 720 q 602 707 628 710 q 547 695 577 703 q 476 665 517 686 q 547 634 517 643 q 602 623 577 626 q 654 615 628 619 q 714 596 681 610 q 726 590 721 593 q 737 584 732 588 q 784 531 774 563 q 776 469 794 500 q 727 433 759 440 q 658 447 695 426 q 647 453 653 451 q 636 461 642 456 q 590 503 608 483 q 557 544 573 524 q 519 585 542 564 q 457 632 497 607 q 467 556 460 586 q 483 502 474 525 q 502 453 493 478 q 516 392 511 428 q 517 379 517 385 q 517 367 517 373 q 495 299 517 324 q 438 274 474 274 z "},"‽":{"ha":856,"x_min":96,"x_max":812,"o":"m 452 465 l 452 498 q 538 528 499 503 q 607 593 578 553 q 653 680 636 632 q 669 778 669 727 q 640 899 669 846 q 555 984 610 953 q 425 1015 501 1015 q 328 998 374 1015 q 247 952 283 981 q 185 888 210 924 q 149 817 160 853 q 164 829 153 825 q 182 833 174 833 q 225 823 206 833 q 257 793 245 812 q 269 748 269 774 q 256 700 269 719 q 222 671 242 681 q 182 661 202 661 q 121 686 147 661 q 96 756 96 712 q 120 857 96 805 q 191 955 144 909 q 305 1028 238 1000 q 458 1056 372 1056 q 601 1036 536 1056 q 714 978 666 1016 q 786 887 761 941 q 812 764 812 833 q 791 667 812 713 q 735 585 771 622 q 654 521 700 548 q 556 480 608 494 q 452 465 504 465 m 423 -14 q 375 -1 397 -14 q 341 33 353 12 q 328 81 328 55 q 341 129 328 107 q 375 164 353 151 q 423 176 397 176 q 471 164 449 176 q 505 129 492 151 q 518 81 518 107 q 505 33 518 55 q 471 -1 492 12 q 423 -14 449 -14 m 403 303 q 393 416 403 352 q 369 550 382 480 q 349 686 356 619 q 348 700 348 694 q 347 713 347 706 q 356 758 347 734 q 383 800 364 783 q 435 817 403 817 q 488 800 468 817 q 516 758 508 783 q 525 713 525 734 q 525 700 525 706 q 524 686 525 694 q 505 584 518 636 q 477 481 492 532 q 452 385 463 431 q 442 303 442 340 l 403 303 z "},"#":{"ha":890,"x_min":42,"x_max":849,"o":"m 488 -8 l 626 1047 l 663 1049 l 524 -7 l 488 -8 m 42 334 l 42 370 l 808 370 l 808 334 l 42 334 m 215 -7 l 353 1049 l 390 1049 l 251 -7 l 215 -7 m 83 692 l 83 729 l 849 729 l 849 692 l 83 692 z "},"‾":{"ha":499,"x_min":-7,"x_max":507,"o":"m -7 1078 l -7 1115 l 507 1115 l 507 1078 l -7 1078 z "},"/":{"ha":738,"x_min":56,"x_max":683,"o":"m 56 -208 l 647 1084 l 683 1084 l 92 -208 l 56 -208 z "},"\\":{"ha":735,"x_min":56,"x_max":681,"o":"m 639 -208 l 56 1084 l 97 1084 l 681 -208 l 639 -208 z "},"(":{"ha":507,"x_min":90,"x_max":497,"o":"m 481 -236 q 324 -133 396 -199 q 200 23 253 -67 q 119 222 148 113 q 90 451 90 330 q 141 744 90 613 q 279 969 191 876 q 481 1111 367 1063 l 497 1085 q 389 979 436 1045 q 310 828 342 913 q 262 648 278 744 q 246 451 246 551 q 262 251 246 351 q 310 61 278 151 q 389 -99 342 -29 q 497 -209 436 -169 l 481 -236 z "},")":{"ha":508,"x_min":12,"x_max":419,"o":"m 28 -236 l 12 -210 q 120 -104 73 -170 q 198 47 167 -38 q 247 227 230 131 q 263 424 263 324 q 247 624 263 524 q 198 814 230 724 q 120 974 167 904 q 12 1084 73 1044 l 28 1111 q 184 1008 113 1074 q 308 852 256 942 q 390 653 360 762 q 419 424 419 545 q 368 131 419 262 q 230 -94 317 -1 q 28 -236 142 -187 z "},"{":{"ha":400,"x_min":76,"x_max":360,"o":"m 360 1084 l 360 1046 q 288 1027 317 1046 q 244 976 258 1009 q 229 899 229 942 q 241 807 229 848 q 264 718 253 765 q 276 604 276 672 q 255 519 276 551 q 194 469 234 487 q 99 438 155 451 q 194 407 155 425 q 255 357 234 389 q 276 272 276 326 q 264 158 276 204 q 241 70 253 111 q 229 -22 229 28 q 244 -100 229 -66 q 288 -152 258 -133 q 360 -172 317 -172 l 360 -208 q 188 -185 250 -208 q 101 -118 126 -162 q 76 -10 76 -74 q 89 109 76 60 q 118 195 101 158 q 147 263 135 232 q 160 327 160 294 q 134 390 160 370 q 76 419 108 409 l 76 456 q 134 487 108 466 q 160 550 160 508 q 147 614 160 583 q 118 681 135 644 q 89 767 101 718 q 76 886 76 817 q 101 994 76 950 q 188 1061 126 1038 q 360 1084 250 1084 z "},"}":{"ha":400,"x_min":42,"x_max":326,"o":"m 326 432 q 218 463 263 446 q 149 513 173 481 q 126 603 126 545 q 137 717 126 671 q 160 805 149 764 q 172 897 172 847 q 158 975 172 941 q 114 1027 143 1008 q 42 1047 85 1047 l 42 1083 q 213 1060 151 1083 q 300 993 274 1038 q 326 885 326 949 q 313 766 326 815 q 283 680 300 717 q 254 612 267 643 q 242 548 242 581 q 268 486 242 506 q 326 456 294 466 l 326 432 m 42 -209 l 42 -171 q 114 -152 85 -171 q 158 -101 143 -134 q 172 -24 172 -67 q 160 68 172 27 q 137 157 149 110 q 126 271 126 203 q 149 361 126 328 q 218 411 173 393 q 326 442 263 428 l 326 419 q 268 389 294 409 q 242 325 242 368 q 254 261 242 292 q 283 194 267 231 q 313 108 300 157 q 326 -11 326 58 q 300 -119 326 -75 q 213 -186 274 -163 q 42 -209 151 -209 z "},"[":{"ha":463,"x_min":76,"x_max":422,"o":"m 76 -208 l 76 1084 l 224 1084 l 224 -208 l 76 -208 m 76 -208 l 76 -172 l 422 -172 l 422 -208 l 76 -208 m 76 1046 l 76 1084 l 422 1084 l 422 1046 l 76 1046 z "},"]":{"ha":463,"x_min":42,"x_max":388,"o":"m 238 -209 l 238 1083 l 388 1083 l 388 -209 l 238 -209 m 42 -209 l 42 -171 l 388 -171 l 388 -209 l 42 -209 m 42 1047 l 42 1083 l 388 1083 l 388 1047 l 42 1047 z "},"-":{"ha":499,"x_min":83,"x_max":417,"o":"m 83 364 l 83 400 l 417 400 l 417 364 l 83 364 z "},"­":{"ha":499,"x_min":83,"x_max":417,"o":"m 83 364 l 83 400 l 417 400 l 417 364 l 83 364 z "},"–":{"ha":751,"x_min":83,"x_max":667,"o":"m 83 364 l 83 400 l 667 400 l 667 364 l 83 364 z "},"—":{"ha":1090,"x_min":83,"x_max":1006,"o":"m 83 364 l 83 400 l 1006 400 l 1006 364 l 83 364 z "},"‒":{"ha":649,"x_min":83,"x_max":566,"o":"m 83 364 l 83 400 l 566 400 l 566 364 l 83 364 z "},"―":{"ha":1191,"x_min":83,"x_max":1108,"o":"m 83 364 l 83 400 l 1108 400 l 1108 364 l 83 364 z "},"‐":{"ha":499,"x_min":83,"x_max":417,"o":"m 83 364 l 83 400 l 417 400 l 417 364 l 83 364 z "},"‑":{"ha":499,"x_min":83,"x_max":417,"o":"m 83 364 l 83 400 l 417 400 l 417 364 l 83 364 z "},"_":{"ha":777,"x_min":-8,"x_max":784,"o":"m -8 -226 l -8 -190 l 784 -190 l 784 -226 l -8 -226 z "},"‚":{"ha":470,"x_min":53,"x_max":269,"o":"m 53 -213 l 53 -176 q 126 -160 92 -176 q 184 -113 160 -143 q 220 -42 208 -83 q 228 49 233 -1 l 240 49 q 230 22 241 37 q 199 -3 219 8 q 153 -14 179 -14 q 80 14 105 -14 q 56 80 56 42 q 69 127 56 106 q 107 161 83 149 q 160 174 131 174 q 215 157 190 174 q 255 108 240 140 q 269 29 269 76 q 244 -89 269 -33 q 170 -179 218 -144 q 53 -213 122 -213 z "}}}
